<?xml version="1.0" encoding="iso-8859-1"?>
<!-- Generator: Adobe Illustrator 23.1.0, SVG Export Plug-In . SVG Version: 6.00 Build 0)  -->
<svg version="1.1" xmlns="http://www.w3.org/2000/svg" xmlns:xlink="http://www.w3.org/1999/xlink" x="0px" y="0px"
	 viewBox="0 0 1200 1200" enable-background="new 0 0 1200 1200" xml:space="preserve">
<g id="Layer_x5F_Shadow">
	<ellipse id="XMLID_50_" fill="#EBF2FA" cx="301.8808594" cy="1023.8286743" rx="293.8808594" ry="14.1713562"/>
</g>
<g id="Layer_x5F_Tree_2">
	<g>
		<path fill="#EB5A62" d="M322.8869324,597.9247437c-8.3200378,7.0460815-20.0294495,14.6677246-32.1907654,21.8577881
			c-26.9321594,15.8591919-56.1442871,29.4997559-56.1442871,29.4997559s-110.9323654-63.6834106-96.5522461-108.8780518
			s36.9774628-53.4118958,22.5973358-88.3350525s-10.2715149-51.3575745,14.380127-76.0092163
			s26.7059326-45.1946716,26.7059326-71.9006348c0-14.0516052,9.6551361-28.6574402,21.8166962-34.8614502
			c10.9493408-5.6082153,23.9121246-4.3962402,33.6495056,10.2098083
			c20.5430298,30.8145447,6.1629028,76.0092468,36.9774475,96.5522766s43.1403809,32.8688354,34.9231567,63.6834106
			s-18.488739,49.3032532,2.0542908,69.8463135C351.6471863,530.1326904,349.592865,575.3273926,322.8869324,597.9247437z"/>
		<polygon fill="#CEE0F2" points="262.5302429,566.4605713 238.1335602,595.8240356 239.3842926,519.4352417 
			264.0703735,491.7778625 262.553894,490.4241028 239.4351349,516.3255005 240.6409302,442.6755066 241.5237732,443.3471069 
			264.1209412,413.6528015 262.5032043,412.4221802 240.6663513,441.1172485 241.7311401,376.076416 239.6985168,376.0433044 
			237.9213104,484.6045837 208.5351715,457.4851074 207.1569672,458.979126 237.8766785,487.3293762 236.8240051,551.6315308 
			206.4579315,525.2570801 205.1253967,526.7913818 236.7805634,554.2855225 229.4268951,1003.4788818 231.459137,1003.5119019 
			238.0805054,599.0686035 264.0937195,567.7594604 		"/>
		<path opacity="0.4" fill="#662131" d="M290.696167,619.7825317
			c-26.9321594,15.8591919-56.1442871,29.4997559-56.1442871,29.4997559s-110.9323654-63.6834106-96.5522461-108.8780518
			s36.9774628-53.4118958,22.5973358-88.3350525s-10.2715149-51.3575745,14.380127-76.0092163
			s26.7059326-45.1946716,26.7059326-71.9006348c0-14.0516052,9.6551361-28.6574402,21.8166962-34.8614502
			c-6.3477325,8.1555176-11.1138458,19.0434265-9.4908752,32.8071594
			c4.1086121,34.9231567-10.2715149,67.7919922-24.6516418,80.1178284c-14.3801117,12.3258057-14.3801117,39.0317688,0,65.7377014
			c14.380127,26.7059631-6.1629028,59.5747986-10.2715149,86.2807617
			C175.5934906,556.982605,221.240036,621.4258423,290.696167,619.7825317z"/>
		<path fill="#EB5A62" d="M227.2193298,1005.0372925c0,0,18.2931519-51.4918213,46.0716248-77.2377319
			s45.394104-8.130249,34.5537109,18.2931519c-10.8403625,26.4234619-67.0748596,58.9445801-67.0748596,58.9445801H227.2193298z"/>
		
			<rect x="220.3061371" y="977.2590332" transform="matrix(0.6094905 -0.7927934 0.7927934 0.6094905 -676.3547363 583.4477539)" fill="#20437F" width="67.5201492" height="2.0321867"/>
		<path fill="#EB5A62" d="M244.6842804,1005.0372925c0,0-27.1144409-76.3220825-68.288208-114.4831543
			s-67.2839584-12.0508423-51.2161484,27.1144409s99.4195938,87.3687134,99.4195938,87.3687134H244.6842804z"/>
		
			<rect x="203.8753967" y="915.3297729" transform="matrix(0.7927179 -0.6095887 0.6095887 0.7927179 -546.0081177 325.0033875)" fill="#20437F" width="2.0321867" height="100.0799179"/>
	</g>
	<g>
		<path fill="#FFC763" d="M682.6620483,716.6321411c-5.8977661,4.9946899-14.1980591,10.3973389-22.8187256,15.4940796
			c-19.0911255,11.2419434-39.7984009,20.9111938-39.7984009,20.9111938s-78.635437-45.1426392-68.4418945-77.1793213
			c10.1934814-32.0366821,26.211792-37.8615112,16.0183716-62.6171265
			c-10.1934814-24.7556152-7.2810669-36.4053345,10.1934814-53.8798218
			c17.4745483-17.4745483,18.9307861-32.0366821,18.9307861-50.9674377c0-9.9606323,6.8441772-20.3140869,15.4649658-24.7118835
			c7.7615967-3.9754333,16.9503784-3.1163025,23.8527832,7.2373657
			c14.5620728,21.8432007,4.3685913,53.8798828,26.211792,68.4420166
			c21.8431396,14.5621338,30.5803833,23.2993774,24.7555542,45.1425781
			c-5.8248901,21.8432007-13.105957,34.9490967,1.4561768,49.5112305
			C703.0490112,668.5771484,701.5927734,700.6138306,682.6620483,716.6321411z"/>
		<polygon fill="#CEE0F2" points="639.8776855,694.3284912 622.5838623,715.1430054 623.470459,660.9940796 640.9694214,641.388916 
			639.8944702,640.4292603 623.5065308,658.7897339 624.3612671,606.5822144 624.9870605,607.0582886 641.0053101,586.0092163 
			639.8585815,585.1369019 624.3792725,605.4776611 625.1340942,559.3728027 623.6932983,559.3493652 622.4334106,636.3040161 
			601.6028442,617.0801392 600.6258545,618.1391602 622.4017944,638.2355347 621.6555786,683.8167114 600.1303101,665.1209106 
			599.18573,666.2085571 621.6247559,685.6980591 616.4118652,1004.1129761 617.852417,1004.1364136 622.5462036,717.4429321 
			640.9859619,695.2491455 		"/>
		<path opacity="0.2" fill="#563112" d="M659.8433228,732.1262207
			c-19.0911255,11.2419434-39.7984009,20.9111938-39.7984009,20.9111938s-78.635437-45.1426392-68.4418945-77.1793213
			c10.1934814-32.0366821,26.211792-37.8615112,16.0183716-62.6171265
			c-10.1934814-24.7556152-7.2810669-36.4053345,10.1934814-53.8798218
			c17.4745483-17.4745483,18.9307861-32.0366821,18.9307861-50.9674377c0-9.9606323,6.8441772-20.3140869,15.4649658-24.7118835
			c-4.4996338,5.7811279-7.8781128,13.499115-6.7276611,23.2556763
			c2.9124146,24.7556152-7.2811279,48.0549927-17.4746094,56.7922974c-10.1934814,8.7372437-10.1934814,27.6679688,0,46.5987549
			s-4.3686523,42.2301636-7.2811279,61.1609497C578.25177,687.6098633,610.6087036,733.2910767,659.8433228,732.1262207z"/>
		<path fill="#EB5A62" d="M614.8469849,1005.2177124c0,0,12.9672852-36.5004883,32.6583252-54.7506714
			c19.69104-18.2502441,32.1780396-5.7632446,24.4937134,12.9672852
			c-7.6843262,18.7304688-47.5466309,41.7833862-47.5466309,41.7833862H614.8469849z"/>
		
			<rect x="609.9465332" y="985.5267944" transform="matrix(0.6094912 -0.7927929 0.7927929 0.6094912 -534.3547974 887.671875)" fill="#20437F" width="47.8622894" height="1.4405345"/>
		<path fill="#EB5A62" d="M627.2271729,1005.2177124c0,0-19.2202759-54.1016846-48.4066772-81.1525269
			c-29.1863403-27.0508423-47.6948242-8.5424194-36.3050537,19.2202759
			c11.3898315,27.7626953,70.4744873,61.932251,70.4744873,61.932251H627.2271729z"/>
		
			<rect x="598.2994385" y="941.6276855" transform="matrix(0.7927184 -0.609588 0.609588 0.7927184 -471.4620361 567.6898193)" fill="#20437F" width="1.4405344" height="70.9425888"/>
	</g>
</g>
<g id="Layer_x5F_Trees_1">
	<g>
		<path fill="#20437F" d="M1154.286377,646.4069824c-7.3966064,6.2640991-17.8065186,13.0397949-28.618042,19.4318848
			c-23.9429932,14.098999-49.9129639,26.225647-49.9129639,26.225647s-98.6203003-56.6153564-85.8361816-96.7940063
			s32.8734131-47.4838257,20.0892944-78.5310059c-12.7841187-31.0471191-9.1315308-45.6575623,12.7841187-67.5731812
			s23.7419434-40.1786499,23.7419434-63.9205933c0-12.4920654,8.5834961-25.4768066,19.3952637-30.9922791
			c9.7341309-4.9857788,21.2581787-3.9083252,29.914917,9.0766602
			c18.2629395,27.3945312,5.4788818,67.5731812,32.8734131,85.8362122s38.3522949,29.2208557,31.0471191,56.615387
			c-7.3051758,27.3945007-16.4366455,43.8312683,1.8262939,62.0942688
			C1179.8546143,586.1389771,1178.0283203,626.317627,1154.286377,646.4069824z"/>
		<polygon fill="#CEE0F2" points="1100.62854,618.4349365 1078.9395752,644.5394287 1080.0513916,576.6288452 
			1101.9976807,552.0410156 1100.6495361,550.8375244 1080.0966797,573.8642578 1081.1685791,508.3883972 1081.9534912,508.9854736 
			1102.0426025,482.586853 1100.6044922,481.4928284 1081.1911621,507.0031128 1082.1378174,449.1809692 1080.3308105,449.1515198 
			1078.7508545,545.6638794 1052.6262207,521.5543213 1051.4008789,522.8825073 1078.7111816,548.0863037 1077.7752686,605.25177 
			1050.7794189,581.8045044 1049.5948486,583.1685181 1077.7366943,607.611145 1071.1992188,1006.9498291 1073.0058594,1006.979248 
			1078.892334,647.4238892 1102.0184326,619.5896606 		"/>
		<path opacity="0.4" d="M1125.668335,665.8388672c-23.9429932,14.098999-49.9129639,26.225647-49.9129639,26.225647
			s-98.6203003-56.6153564-85.8361816-96.7940063s32.8734131-47.4838257,20.0892944-78.5310059
			c-12.7841187-31.0471191-9.1315308-45.6575623,12.7841187-67.5731812s23.7419434-40.1786499,23.7419434-63.9205933
			c0-12.4920654,8.5834961-25.4768066,19.3952637-30.9922791c-5.6431885,7.2503662-9.8803711,16.9298401-8.4375,29.1659851
			c3.6525879,31.0471497-9.1314697,60.2679749-21.9155273,71.2257996c-12.7841797,10.9578247-12.7841797,34.6997375,0,58.4416809
			c12.7840576,23.7419434-5.4790039,52.9627686-9.1315918,76.7047119
			C1023.3405762,610.0089111,1063.9210205,667.2997437,1125.668335,665.8388672z"/>
		<path fill="#EB5A62" d="M1069.2366943,1008.3353271c0,0,16.2628174-45.7769165,40.958252-68.6653442
			s40.355957-7.2279053,30.7186279,16.2628784c-9.637207,23.4907227-59.6303711,52.4024658-59.6303711,52.4024658H1069.2366943z"/>
		
			<rect x="1063.0906982" y="983.6400757" transform="matrix(0.6094905 -0.7927934 0.7927934 0.6094905 -353.6720276 1251.0791016)" fill="#20437F" width="60.0262909" height="1.8066403"/>
		<path fill="#EB5A62" d="M1084.7631836,1008.3353271c0,0-24.1051025-67.8513184-60.7091064-101.7770386
			c-36.6040039-33.9256592-59.8162842-10.7133789-45.5317993,24.1051025s88.3853149,77.671936,88.3853149,77.671936H1084.7631836z"
			/>
		
			<rect x="1048.4835205" y="928.5841675" transform="matrix(0.7927179 -0.6095887 0.6095887 0.7927179 -375.6535339 841.3944092)" fill="#20437F" width="1.8066403" height="88.9723434"/>
	</g>
	<g>
		<path fill="#20437F" d="M913.5231934,731.3179932c-5.5980835,4.7409058-13.4766846,9.8690796-21.6593018,14.7068481
			c-18.1210327,10.6706543-37.776123,19.8486328-37.776123,19.8486328s-74.6398315-42.8487549-64.9642944-73.2575684
			c9.6755371-30.4088745,24.8799438-35.9377441,15.2044067-59.4354248
			c-9.6755371-23.4977417-6.9110718-34.555481,9.6755371-51.1421509
			c16.5866089-16.5866089,17.9688721-30.4088135,17.9688721-48.3776245c0-9.4545288,6.4963379-19.2819214,14.6791382-23.4562378
			c7.3671265-3.773407,16.0890503-2.9579468,22.6407471,6.8696289
			c13.8222046,20.7332764,4.1466675,51.1420898,24.8799438,64.9642334
			c20.7332764,13.8222046,29.0266113,22.1155396,23.4976807,42.8488159
			c-5.5288696,20.7332764-12.4399414,33.1732788,1.3822632,46.9954224
			C932.8742065,685.7047729,931.4920044,716.1135864,913.5231934,731.3179932z"/>
		<polygon fill="#CEE0F2" points="872.9127197,710.147644 856.4976807,729.9046021 857.3391724,678.5070801 
			873.9489746,659.8980713 872.9286499,658.9872437 857.3734131,676.4147339 858.1846924,626.8599854 858.7787476,627.3118896 
			873.9830322,607.3323364 872.8945312,606.5043335 858.2018433,625.8115845 858.9182739,582.0494385 857.5505981,582.0271606 
			856.3548584,655.0715942 836.5826416,636.8245239 835.6553345,637.8297729 856.3248291,656.9049683 855.6165161,700.1700439 
			835.1849976,682.4242554 834.2883911,683.456604 855.5872803,701.9558105 850.6394653,1004.1913452 852.0068359,1004.213562 
			856.4619751,732.0876465 873.9647217,711.0215454 		"/>
		<path opacity="0.4" d="M891.8638916,746.0248413c-18.1210327,10.6706543-37.776123,19.8486328-37.776123,19.8486328
			s-74.6398315-42.8487549-64.9642944-73.2575684c9.6755371-30.4088745,24.8799438-35.9377441,15.2044067-59.4354248
			c-9.6755371-23.4977417-6.9110718-34.555481,9.6755371-51.1421509
			c16.5866089-16.5866089,17.9688721-30.4088135,17.9688721-48.3776245c0-9.4545288,6.4963379-19.2819214,14.6791382-23.4562378
			c-4.2709961,5.4873657-7.4778442,12.8132324-6.3858643,22.0740356
			c2.7644653,23.4976807-6.9110718,45.6132202-16.5866089,53.9064941c-9.6755371,8.293335-9.6755371,26.262207,0,44.2310181
			c9.6755371,17.9688721-4.1466675,40.0843506-6.9110718,58.0532227
			C814.4181519,703.7704468,845.1309814,747.1304932,891.8638916,746.0248413z"/>
		<path fill="#EB5A62" d="M849.1541138,1005.2399292c0,0,12.3083496-34.645813,30.9988403-51.968689
			c18.6904907-17.322937,30.5430298-5.4703979,23.2492065,12.3083496
			c-7.2938843,17.7787476-45.1307373,39.6603394-45.1307373,39.6603394H849.1541138z"/>
		
			<rect x="844.5026245" y="986.5495605" transform="matrix(0.6094905 -0.7927934 0.7927934 0.6094905 -444.0151672 1073.0484619)" fill="#20437F" width="45.4303055" height="1.3673378"/>
		<path fill="#EB5A62" d="M860.9052734,1005.2399292c0,0-18.2437134-51.3526611-45.9470825-77.0289307
			c-27.7034302-25.6763306-45.2714233-8.1083374-34.4603271,18.2436523
			c10.8110962,26.3520508,66.8935547,58.7852783,66.8935547,58.7852783H860.9052734z"/>
		
			<rect x="833.4473877" y="944.8810425" transform="matrix(0.7927179 -0.6095887 0.6095887 0.7927179 -423.6125183 711.3127441)" fill="#20437F" width="1.3673378" height="67.3378372"/>
	</g>
</g>
<g id="Layer_x5F_Graph">
	<g>
		<g>
			<path fill="#FFC763" d="M510.004364,794.1744385v196.4866333c0,6.2531738-6.8708496,11.3220825-15.3470764,11.3220825h-69.950592
				c-8.4762573,0-15.3470764-5.0689087-15.3470764-11.3220825V794.1744385c0-6.2531738,6.8708191-11.3220215,15.3470764-11.3220215
				h69.950592C503.1335144,782.852417,510.004364,787.9212646,510.004364,794.1744385z"/>
			<path opacity="0.2" fill="#563112" d="M510.004364,919.1754761v71.4855957
				c0,6.2531738-6.8708496,11.3220825-15.3470764,11.3220825h-69.950592c-8.4762573,0-15.3470764-5.0689087-15.3470764-11.3220825
				v-15.7987671L510.004364,919.1754761z"/>
			<polygon opacity="0.2" fill="#563112" points="510.004364,841.1335449 510.004364,890.4050293 409.3596191,947.6709595 
				409.3596191,893.7960205 			"/>
			<path fill="#FFD694" d="M493.4563904,985.1369019h-5.8355103c-1.8190613,0-3.2937012-1.4746704-3.2937012-3.2937012V801.1481934
				c0-1.8190918,1.4746399-3.2937012,3.2937012-3.2937012h5.8355103c1.8190613,0,3.2937012,1.4746094,3.2937012,3.2937012
				v180.6950073C496.7500916,983.6622314,495.2754517,985.1369019,493.4563904,985.1369019z"/>
		</g>
		<path fill="#FFC763" d="M1051.0032959,1007.7153931H299.5427856c-4.7499084,0-8.6004639-3.8505249-8.6004639-8.6004639l0,0
			c0-4.749939,3.8505554-8.6004639,8.6004639-8.6004639h734.2595825c4.7498779,0,8.6004639-3.8505859,8.6004639-8.6004639
			V296.0158081c0-4.7499084,3.8505859-8.6004944,8.6004639-8.6004944l0,0c4.7498779,0,8.6004639,3.8505859,8.6004639,8.6004944
			v703.0991211C1059.6037598,1003.8648682,1055.7531738,1007.7153931,1051.0032959,1007.7153931z"/>
		<g>
			<path fill="#FFC763" d="M995.1288452,305.2963562v681.0147705c0,8.4763184-6.8707886,15.3470459-15.3471069,15.3470459
				h-69.960144c-8.4666748,0-15.3374634-6.8707275-15.3374634-15.3470459V305.2963562
				c0-8.4667358,6.8707886-15.3375549,15.3374634-15.3375549h69.960144
				C988.2580566,289.9588013,995.1288452,296.8296204,995.1288452,305.2963562z"/>
			<path opacity="0.2" fill="#563112" d="M995.1288452,658.680542v327.6305542
				c0,8.4763184-6.8707886,15.3470459-15.3471069,15.3470459h-69.960144c-8.4666748,0-15.3374634-6.8707275-15.3374634-15.3470459
				V742.0001221L995.1288452,658.680542z"/>
			<polygon opacity="0.2" fill="#563112" points="995.1288452,511.2683105 995.1288452,590.6889648 894.4841309,667.9786377 
				894.4841309,589.6664429 			"/>
			<path fill="#FFD694" d="M977.8991699,973.9741821L977.8991699,973.9741821c-3.430481,0-6.2114258-2.7809448-6.2114258-6.2114258
				V314.1261902c0-3.4305115,2.7809448-6.2114563,6.2114258-6.2114563l0,0c3.430542,0,6.2114868,2.7809448,6.2114868,6.2114563
				v653.6365967C984.1106567,971.1932373,981.3297119,973.9741821,977.8991699,973.9741821z"/>
		</g>
		<g>
			<path fill="#CEE0F2" d="M833.4207153,503.6520691v482.9839172c0,8.4762573-6.8708496,15.347168-15.3471069,15.347168h-69.9505615
				c-8.4762573,0-15.3471069-6.8709106-15.3471069-15.347168V503.6520691c0-8.4762268,6.8708496-15.3470764,15.3471069-15.3470764
				h69.9505615C826.5498657,488.3049927,833.4207153,495.1758423,833.4207153,503.6520691z"/>
			<path opacity="0.5" fill="#9AB0C1" d="M833.4207153,736.2664795v250.3695068
				c0,8.4762573-6.8708496,15.347168-15.3471069,15.347168h-69.9505615c-8.4762573,0-15.3471069-6.8709106-15.3471069-15.347168
				v-186.362854L833.4207153,736.2664795z"/>
			<path fill="#FFFFFF" d="M818.9093018,978.7521973h-2.0153198c-2.8740234,0-5.2037964-2.3297729-5.2037964-5.2037354v-457.076355
				c0-2.8739624,2.3297729-5.2037964,5.2037964-5.2037964h2.0153198c2.8739624,0,5.2037964,2.329834,5.2037964,5.2037964v457.076355
				C824.1130981,976.4224243,821.7832642,978.7521973,818.9093018,978.7521973z"/>
		</g>
		<g>
			<path fill="#20437F" d="M671.7125244,720.2982178v266.3377686c0,8.4762573-6.8708496,15.347168-15.3471069,15.347168H586.414856
				c-8.4762573,0-15.3471069-6.8709106-15.3471069-15.347168V720.2982178c0-8.4762573,6.8708496-15.3471069,15.3471069-15.3471069
				h69.9505615C664.8416748,704.9511108,671.7125244,711.8219604,671.7125244,720.2982178z"/>
			<path opacity="0.4" d="M671.7125244,889.7372437v96.8987427c0,8.4762573-6.8708496,15.347168-15.3471069,15.347168H586.414856
				c-8.4762573,0-15.3471069-6.8709106-15.3471069-15.347168v-21.4152222L671.7125244,889.7372437z"/>
			<polygon opacity="0.4" points="671.7125244,783.9512939 671.7125244,850.7388306 571.067749,928.362915 571.067749,855.3353271 
							"/>
			<path fill="#CEE0F2" d="M654.6235352,979.1480103h-4.753479c-2.1178589,0-3.8347168-1.7168579-3.8347168-3.8347168V729.1212158
				c0-2.1178589,1.7168579-3.8347168,3.8347168-3.8347168h4.753479c2.1178589,0,3.8347168,1.7168579,3.8347168,3.8347168
				v246.1920776C658.458252,977.4311523,656.741394,979.1480103,654.6235352,979.1480103z"/>
		</g>
		<path fill="#FFC763" d="M845.0695801,257.7452698h-91.7385254c-7.3887329,0-13.378479-5.9897766-13.378479-13.3785248v-0.0000305
			c0-7.3887482,5.9897461-13.3785095,13.378479-13.3785095h91.7385254c7.3887329,0,13.378479,5.9897614,13.378479,13.3785095
			v0.0000305C858.4480591,251.7554932,852.458313,257.7452698,845.0695801,257.7452698z"/>
		<path fill="#EB5A62" d="M677.8380127,548.2504272h-63.5791016c-7.3887939,0-13.37854-5.9898071-13.37854-13.37854l0,0
			c0-7.3887939,5.9897461-13.37854,13.37854-13.37854h63.5791016c7.3887329,0,13.378479,5.9897461,13.378479,13.37854l0,0
			C691.2164917,542.2606201,685.2267456,548.2504272,677.8380127,548.2504272z"/>
		<path fill="#FFC763" d="M1177.62146,467.0236206h-91.7384033c-7.3887939,0-13.37854-5.9897461-13.37854-13.3785095v-0.0000305
			c0-7.3887329,5.9897461-13.3785095,13.37854-13.3785095h91.7384033c7.3887939,0,13.37854,5.9897766,13.37854,13.3785095v0.0000305
			C1191,461.0338745,1185.0102539,467.0236206,1177.62146,467.0236206z"/>
		<g>
			<polygon fill="#3F3C80" points="858.9259033,245.3223419 947.3421021,245.3223419 947.3421021,289.9588013 
				950.2089233,289.9588013 950.2089233,242.4555054 858.9259033,242.4555054 			"/>
			<rect x="958.7869873" y="452.2117004" fill="#CEE0F2" width="113.7174683" height="2.866827"/>
			<rect x="692.1721191" y="533.4384766" fill="#CEE0F2" width="67.8482361" height="2.866827"/>
			<polygon fill="#EB5A62" points="613.3035889,716.3041382 616.1704102,716.3041382 616.1704102,671.6676636 
				704.5866089,671.6676636 704.5866089,668.8008423 613.3035889,668.8008423 			"/>
		</g>
		<path fill="#20437F" d="M718.442627,684.09021h28.1990967c7.3887329,0,13.378479-5.9897461,13.378479-13.37854l0,0
			c0-7.3887329-5.9897461-13.378479-13.378479-13.378479H718.442688c-7.3887939,0-13.37854,5.9897461-13.37854,13.378479v0.000061
			C705.064209,678.1004639,711.0539551,684.0901489,718.442627,684.09021z"/>
		<path opacity="0.2" fill="#563112" d="M1051.0032959,1007.7153931H299.5427856
			c-4.7499084,0-8.6004639-3.8505249-8.6004639-8.6004639l0,0c0-4.749939,3.8505554-8.6004639,8.6004639-8.6004639h734.2595825
			c4.7498779,0,8.6004639-3.8505859,8.6004639-8.6004639V296.0158081c0-4.7499084,3.8505859-8.6004944,8.6004639-8.6004944l0,0
			c4.7498779,0,8.6004639,3.8505859,8.6004639,8.6004944v703.0991211
			C1059.6037598,1003.8648682,1055.7531738,1007.7153931,1051.0032959,1007.7153931z"/>
	</g>
</g>
<g id="Layer_x5F_Character_1">
	<g id="right_leg_1_">
		<path fill="#F69D80" d="M201.8148346,982.1228027v16.3383179c0,0,2.4125214,2.6141357,10.8563232,1.3070679
			c8.4438171-1.3070679,9.6500702-3.2676392,9.6500702-3.2676392v-20.2595825L201.8148346,982.1228027z"/>
		<path fill="#20437F" d="M201.5389099,991.8237915c0,0,6.1040955,2.4499512,10.6404877,1.4240723
			c4.536377-1.0258179,6.9631958-4.4669189,9.614624-3.1122437c2.6514435,1.3546143,30.4973145,14.9127808,35.5408173,16.8208618
			c5.0435181,1.9080811,14.0584106,6.513916,10.276947,12.6064453c-3.7814941,6.0924683-35.2189484,7.4171753-47.4502869,5.1802368
			c-12.2313385-2.2368774-19.9494476-2.8366089-20.9984589-4.7099609c-1.048996-1.8734131,1.4936066-18.6295166,0.456192-21.8344116
			C198.5818024,994.9938965,201.5389099,991.8237915,201.5389099,991.8237915z"/>
		<path fill="#CEE0F2" d="M198.9276123,1016.5872192c0,0,23.0956726,8.4384155,48.9593353,4.9348145
			c0,0-0.4608154-8.2599487,1.1763458-12.7731934c1.6371765-4.5132446,3.4989777-4.2307129,5.6316986-4.4785156
			c2.1327362-0.2478027,11.9372406,5.4301758,14.3061676,8.6466675c2.368927,3.2164307,0.7201843,9.0611572-3.8277893,11.4185791
			c-4.5479431,2.3572998-26.1345825,4.0339355-40.5102234,3.3763428
			c-14.3756409-0.6577148-26.0419617-6.6181641-26.0419617-6.6181641S197.3143463,1018.4556274,198.9276123,1016.5872192z"/>
		<path fill="#20437F" d="M216.0668793,880.0341187c-2.3657837-0.2810059-4.6989136-1.1502686-6.8163605-2.4769287
			c-10.4565582-6.5353394-25.487854-45.7473755-32.0231934-81.038269
			c-6.5353546-35.2908936-6.5353546-96.0696411,2.6141357-105.8726196c4.1368866-4.4310303,9.8814392-6.8621216,15.227356-6.6203613
			c6.4830475,0.2875977,12.3910217,4.4963379,14.1817017,13.8092041c0,0,24.8343201,118.9433594,25.487854,150.3129883
			C235.2612,873.1654663,225.3928375,881.1385498,216.0668793,880.0341187z"/>
		<path opacity="0.4" d="M216.0668793,880.0341187c-2.3657837-0.2810059-4.6989136-1.1502686-6.8163605-2.4769287
			c-10.4565582-6.5353394-25.487854-45.7473755-32.0231934-81.038269
			c-6.5353546-35.2908936-6.5353546-96.0696411,2.6141357-105.8726196c4.1368866-4.4310303,9.8814392-6.8621216,15.227356-6.6203613
			c2.7056427,22.7169189,7.3980103,59.2429199,10.914032,70.666748
			c5.2282715,16.9918823,11.7636261,54.8969116,9.1494904,75.8100586
			C213.5703735,843.0178833,214.8121033,864.6694946,216.0668793,880.0341187z"/>
		<path fill="#20437F" d="M231.4707031,900.4309082c-5.8818054,41.1727295-4.5747375,75.8100586-4.5747375,75.8100586
			s-3.9212189,8.4959717-14.3777618,10.456543c-3.738205,0.6993408-7.3065186,0.0653687-10.3520203-1.0391846
			c-5.4765778-1.9866943-9.2540283-5.4961548-9.2540283-5.4961548s0-96.7231445,1.3070679-109.7938232
			s0.8757629-14.5542603,0.8757629-14.5542603s1.7383728-15.5083618,14.8090668-23.350769
			c1.686142-1.0129395,3.3265076-1.692688,4.8949738-2.0847778c10.5545959-2.6467896,18.1225128,7.6659546,19.8805237,16.0181274
			C234.6795502,846.3966675,237.3525238,859.2582397,231.4707031,900.4309082z"/>
		<path opacity="0.4" d="M212.5182037,948.1389771c-4.078064,17.6781616-8.4763336,28.4418335-10.3520203,37.5193481
			c-5.4765778-1.9866943-9.2540283-5.4961548-9.2540283-5.4961548s0-96.7231445,1.3070679-109.7938232
			s0.8757629-14.5542603,0.8757629-14.5542603s1.7383728-15.5083618,14.8090668-23.350769
			c1.686142-1.0129395,3.3265076-1.692688,4.8949738-2.0847778c0.215683,0.0718994,0.333313,0.1242065,0.333313,0.1242065
			s-1.3070679,33.3302612,0.6535339,49.6686401C215.7858734,880.1713867,218.4000092,922.651123,212.5182037,948.1389771z"/>
	</g>
	<g id="left_leg_1_">
		<path fill="#F69D80" d="M64.8193436,910.8875122L49.13451,921.3440552c0,0-2.6141396,3.9212036,0,10.456543
			s13.070694,5.8818359,13.070694,5.8818359l14.3777657-10.456604L64.8193436,910.8875122z"/>
		<path fill="#20437F" d="M50.4415779,918.7299194c0,0,0.6535378,7.1888428,3.9212112,11.1101074
			c3.2676735,3.9212036,7.8424149,4.574707,7.8424149,7.8424072c0,3.2676392,0.6535339,37.2514648,1.3070717,43.1333008
			c0.6535339,5.8817749,0.6535339,16.9918823-7.1888847,16.3383179
			c-7.8424149-0.6535034-24.8343201-30.7161255-28.7555275-43.7868042s-7.1888828-20.9130859-5.881813-22.8737183
			c1.3070698-1.9605713,18.952507-7.8424072,21.5666466-10.456543S50.4415779,918.7299194,50.4415779,918.7299194z"/>
		<path fill="#CEE0F2" d="M24.9362717,928.5427856c0,0,3.2851257,26.7850952,19.6234932,50.3123169
			c0,0,7.8424187-4.5747681,13.0706978-5.2282715c5.2282753-0.6535645,5.881813,1.3070679,7.1888809,3.2677002
			c1.3070679,1.9605713,0.6535339,14.3777466-1.3070679,18.2989502c-1.9606056,3.9212036-8.4959526,5.2282715-13.0706978,1.9605713
			c-4.5747414-3.2676392-16.9919014-23.5272217-23.5272503-37.9049683
			c-6.535347-14.3778076-6.535347-28.7555542-6.535347-28.7555542S22.3046799,927.8991089,24.9362717,928.5427856z"/>
		<path fill="#20437F" d="M205.9828491,699.1422119c0,0-16.3383636,120.9039307-18.9524994,138.5493774
			c-2.614151,17.6454468-13.7242432,28.1019897-28.7555389,25.487854c-4.0061646-0.6992798-6.9405365-2.4572754-9.1233521-5.1824951
			c-5.9994507-7.4829712-6.2543335-22.2202148-7.2150116-41.8720093
			c-1.3070679-26.7949219-6.5353546-64.6999512-8.4959564-78.4241333
			c-1.9606018-13.7242432-4.2087708-40.1662598,3.7774506-56.6810913c2.862442-5.9210815,11.9204712-8.2084351,22.5730743-7.6528931
			C178.8611603,674.3601685,203.0484924,684.4638062,205.9828491,699.1422119z"/>
		<path opacity="0.4" d="M164.8101654,752.0785522c-7.6202087,44.7474976-13.8484039,83.2537842-15.6587067,105.918396
			c-5.9994507-7.4829712-6.2543335-22.2202148-7.2150116-41.8720093
			c-1.3070679-26.7949219-6.5353546-64.6999512-8.4959564-78.4241333
			c-1.9606018-13.7242432-4.2087708-40.1662598,3.7774506-56.6810913c2.862442-5.9210815,11.9204712-8.2084351,22.5730743-7.6528931
			C165.1434631,686.548584,171.6134338,712.1279907,164.8101654,752.0785522z"/>
		<path fill="#20437F" d="M183.9195099,848.6644287c0,0-1.463913,21.050354-20.4164124,38.6958008
			s-86.9201279,46.401001-86.9201279,46.401001s-14.3777657-3.2677002-16.9919052-11.7636719
			c-2.3984604-7.7901611-0.3986435-14.475769-0.0522537-15.5410767c0.0326691-0.0914917,0.0522537-0.1437378,0.0522537-0.1437378
			l83.7047424-67.7715454c0,0,3.8297119-2.9017334,9.7507324-4.7446899c3.5225525-1.0979004,7.7835846-1.8233643,12.41716-1.3331909
			C177.8808594,833.7703857,185.3834229,841.3448486,183.9195099,848.6644287z"/>
		<path opacity="0.4" d="M149.8441925,850.5270386c-6.4699707,17.416687-32.0885315,18.5342407-62.8046646,39.4473267
			c-12.750473,8.6789551-21.5601044,13.645813-27.5007172,16.4821167c0.0326691-0.0914917,0.0522537-0.1437378,0.0522537-0.1437378
			l83.7047424-67.7715454c0,0,3.8297119-2.9017334,9.7507324-4.7446899
			C153.3733063,837.9399414,153.837326,839.7894287,149.8441925,850.5270386z"/>
	</g>
	<g id="head_1_">
		<path fill="#F69D80" d="M230.1636353,499.1605835c-1.3070679,5.228302-9.8030243,30.0626221-13.7242279,31.3696899
			c-3.0650787,1.0195312-7.3261414,0.444397-9.0449371,0.1437378c-0.477066-0.0784302-0.7580872-0.1437378-0.7580872-0.1437378
			l-3.2676697,6.5353394c0,0-0.901886-0.222229-2.3200378-0.6143188c-4.5159454-1.2286377-14.3058929-4.0911255-17.2860107-6.574585
			c-3.9212036-3.2676392-4.5747375-5.8817749-4.5747375-5.8817749l3.9212036-11.1101074
			c0,0-9.1494904-16.9919128-5.2282715-27.4484558c3.9212036-10.4565735,13.070694-31.3696594,35.2908783-31.3696594
			s15.6848297,9.1494751,15.6848297,9.1494751S231.4707031,493.932312,230.1636353,499.1605835z"/>
		<path fill="#CE7962" d="M207.3944702,530.6740112c-0.477066-0.0784302-0.7580872-0.1437378-0.7580872-0.1437378
			l-3.2676697,6.5353394c0,0-0.901886-0.222229-2.3200378-0.6143188l-2.9082489-12.4563599L207.3944702,530.6740112z"/>
		<path d="M196.1798248,497.8535156c0,0,6.5353546-4.5747375,4.5747528-9.803009
			c-1.9606171-5.2282715-5.8818207-9.1494751,4.5747375-11.1100769c10.4565582-1.9606323,6.5353546-12.4171753,9.1494904-15.031311
			s14.3777618,1.3070679,14.3777618,1.3070679l0.8847351,11.8755798c0,0,14.1465607-10.568512,14.8000946-21.0250549
			c0.6535339-10.4565735-9.8030243-6.5353699-10.4565582-13.0707092s-13.7242279-24.8343201-40.5191498-18.9525146
			c0,0-6.5353394,2.6141357-6.5353394,11.7636414c0,9.1494751,3.2676697,15.6848145-9.8030243,18.9525146
			c-13.070694,3.2676697-27.4484711,15.6848145-21.5666504,25.487854
			c5.8818054,9.803009,10.4565582,15.6848145,7.1888885,23.5272522
			c-3.2676849,7.8424072,2.6141357,13.7242126,11.7636108,13.7242126c9.1494904,0,15.684845-3.2676392,15.684845-3.2676392
			s-7.1888885-4.5747681-7.8424225-12.4171753C181.802063,491.9717102,190.2980194,488.7040405,196.1798248,497.8535156z"/>
		<path fill="#CE7962" d="M193.5656891,503.7353516c0,0-1.3070679-6.5353699-3.9212036-7.8424377
			s-3.2676849,3.2676697-3.2676849,3.2676697S188.9909515,495.2393799,193.5656891,503.7353516z"/>
	</g>
	<g id="right_hand_1_">
		<path fill="#FFC763" d="M255.1582031,691.0272827c0,0,4.4209595,9.4970093,9.7792358,10.3278198
			c5.3582458,0.8308105,11.6053467-5.7631836,14.619873-6.2671509c3.0144958-0.5039062,4.6148071,4.5315552,5.1159363,7.0376587
			c0.5011292,2.5060425,3.5640869,0.7607422,3.1841125-4.8486938c-0.3799744-5.6094971-4.3240356-11.9797363-4.8978577-12.6237793
			s-18.4427795-3.2064819-19.5177307-6.3566284C262.3668213,675.1464233,252.5798645,680.3590088,255.1582031,691.0272827z"/>
		<path fill="#FFC763" d="M218.8911133,642.69104c-0.9756165,0.5959473-2.0485535,1.0762329-3.2297821,1.4155273
			c-11.5084381,3.2805176-17.2224426-3.7804565-25.5874634-19.6477051
			c-6.7759399-12.8462524-9.8350525-20.2511597-10.7493896-22.6055298c-0.217926-0.555542-0.3151398-0.8266602-0.3151398-0.8266602
			s-13.6186371-34.7211304-14.4270477-44.6986694c-0.8083954-9.9776001,24.6326447-32.6062012,33.4988098-14.2329102
			c8.8661652,18.3733521,25.992691,70.6369629,28.1668243,76.3164673
			C228.199173,623.510437,227.3893585,637.5028076,218.8911133,642.69104z"/>
		<path fill="#FFC763" d="M220.2034149,642.7423096c-0.9972534,0.5951538-2.094162,1.0744629-3.3019562,1.4127197
			c-11.7671509,3.2703857-17.6173248-3.7958984-26.186615-19.6711426
			c-6.941391-12.8527222-10.0766144-20.2605591-11.0138397-22.6158447
			c4.3301544,5.9874878,9.3828278,12.1399536,13.751297,15.2632446
			C200.2169037,621.9580688,212.6674042,634.7647705,220.2034149,642.7423096z"/>
		<path fill="#FFC763" d="M262.3591003,690.6867676c-0.2116089,0.203125-0.4226685,0.3937988-0.6273193,0.5722656
			c-4.6439514,4.0395508-7.8666077,2.2042847-7.8666077,2.2042847s-45.598587-44.0507812-48.5161743-46.029541
			c-2.917572-1.9788208-6.018158-8.3223267-6.018158-8.3223267s-2.2589722-5.8071899,1.476181-14.1838989
			c0.5314178-1.1851196,1.1786652-2.421814,1.9713745-3.7024536c6.3924866-10.3181152,19.0527191-7.6605835,24.0726318-0.4650879
			l40.2517853,55.8145752C267.1028137,676.574585,267.3374023,685.9081421,262.3591003,690.6867676z"/>
		<path fill="#FFC763" d="M264.0611877,691.3500366c-4.7459717,4.0355835-8.0435181,2.1973877-8.0435181,2.1973877
			s-46.6743469-44.0928345-49.6600189-46.0742188c-2.985672-1.9814453-6.1623688-8.3280029-6.1623688-8.3280029
			s-2.3154907-5.8093262,1.4971466-14.1830444c7.7888794,5.109314,18.3158569,18.0709229,18.3158569,18.0709229
			s20.5361938,23.1802979,28.2213745,30.3182373C253.2664185,678.0298462,260.0090637,686.2437134,264.0611877,691.3500366z"/>
		<g id="right_hand_2_" opacity="0.2">
			<path fill="#563112" d="M255.1582031,691.0272827c0,0,4.4209595,9.4970093,9.7792358,10.3278198
				c5.3582458,0.8308105,11.6053467-5.7631836,14.619873-6.2671509c3.0144958-0.5039062,4.6148071,4.5315552,5.1159363,7.0376587
				c0.5011292,2.5060425,3.5640869,0.7607422,3.1841125-4.8486938c-0.3799744-5.6094971-4.3240356-11.9797363-4.8978577-12.6237793
				s-18.4427795-3.2064819-19.5177307-6.3566284C262.3668213,675.1464233,252.5798645,680.3590088,255.1582031,691.0272827z"/>
			<path fill="#563112" d="M218.8911133,642.69104c-0.9756165,0.5959473-2.0485535,1.0762329-3.2297821,1.4155273
				c-11.5084381,3.2805176-17.2224426-3.7804565-25.5874634-19.6477051
				c-6.7759399-12.8462524-9.8350525-20.2511597-10.7493896-22.6055298c-0.217926-0.555542-0.3151398-0.8266602-0.3151398-0.8266602
				s-13.6186371-34.7211304-14.4270477-44.6986694c-0.8083954-9.9776001,24.6326447-32.6062012,33.4988098-14.2329102
				c8.8661652,18.3733521,25.992691,70.6369629,28.1668243,76.3164673
				C228.199173,623.510437,227.3893585,637.5028076,218.8911133,642.69104z"/>
			<path fill="#563112" d="M220.2034149,642.7423096c-0.9972534,0.5951538-2.094162,1.0744629-3.3019562,1.4127197
				c-11.7671509,3.2703857-17.6173248-3.7958984-26.186615-19.6711426
				c-6.941391-12.8527222-10.0766144-20.2605591-11.0138397-22.6158447
				c4.3301544,5.9874878,9.3828278,12.1399536,13.751297,15.2632446
				C200.2169037,621.9580688,212.6674042,634.7647705,220.2034149,642.7423096z"/>
			<path fill="#563112" d="M262.3591003,690.6867676c-0.2116089,0.203125-0.4226685,0.3937988-0.6273193,0.5722656
				c-4.6439514,4.0395508-7.8666077,2.2042847-7.8666077,2.2042847s-45.598587-44.0507812-48.5161743-46.029541
				c-2.917572-1.9788208-6.018158-8.3223267-6.018158-8.3223267s-2.2589722-5.8071899,1.476181-14.1838989
				c0.5314178-1.1851196,1.1786652-2.421814,1.9713745-3.7024536c6.3924866-10.3181152,19.0527191-7.6605835,24.0726318-0.4650879
				l40.2517853,55.8145752C267.1028137,676.574585,267.3374023,685.9081421,262.3591003,690.6867676z"/>
			<path fill="#563112" d="M264.0611877,691.3500366c-4.7459717,4.0355835-8.0435181,2.1973877-8.0435181,2.1973877
				s-46.6743469-44.0928345-49.6600189-46.0742188c-2.985672-1.9814453-6.1623688-8.3280029-6.1623688-8.3280029
				s-2.3154907-5.8093262,1.4971466-14.1830444c7.7888794,5.109314,18.3158569,18.0709229,18.3158569,18.0709229
				s20.5361938,23.1802979,28.2213745,30.3182373C253.2664185,678.0298462,260.0090637,686.2437134,264.0611877,691.3500366z"/>
		</g>
	</g>
	<g id="body_1_">
		<path fill="#EB5A62" d="M211.2111206,690.6463013l1.9606171,13.0706787c0,0-3.9212189,5.2282715-42.4797668,4.5747681
			c-38.558548-0.6535645-41.1726837-9.1495361-41.1726837-9.1495361l1.2284088-17.8118286l0.0786591-1.140686
			L211.2111206,690.6463013z"/>
		<path fill="#FFC763" d="M195.5262909,695.8745728c-7.4829712,0-16.4821167-0.359436-25.1218719-0.9411011
			c-14.7502899-0.9934082-28.4418488-2.6403198-31.7356415-4.2871704
			c-5.2282867-2.6141357-11.1100998-7.1889038-11.1100998-11.1101074s5.881813-51.6292725,5.881813-67.9675903
			c0-16.3383789,0.6535339-54.8969727,9.8030243-66.6605835c7.7966614-10.0317993,16.5475006-15.7763062,20.1680756-19.2727051
			c0.1568451-0.1569214,0.3006439-0.3006592,0.4378967-0.444458c0.4182281-0.4378662,0.7449951-0.8299561,0.9606781-1.1959229
			c1.9606018-3.2677002,5.8818054-12.4171753,5.8818054-12.4171753l3.2676697-0.6535339l5.8818207,1.9606018l5.4962158,4.326416
			l25.2199097,19.8543701l-6.5353394,9.8030396c0,0,4.5355377,22.6906738,6.0517426,44.623291
			c0.3005981,4.3852539,0.4835968,8.7443237,0.4835968,12.8877563c0,24.8342896,3.2676849,66.6605225,2.614151,73.8494263
			c-0.0457611,0.5293579-0.0849609,1.0587158-0.124176,1.581543c-0.4378662,6.6268311,0.124176,12.7962036,0.124176,12.7962036
			S215.7858734,695.8745728,195.5262909,695.8745728z"/>
		<path opacity="0.42" fill="#D18529" d="M185.337677,517.2112427c-8.3652496,1.9998169-15.926651,5.2151489-21.4881897,7.9796143
			c0.4182281-0.4378662,0.7449951-0.8299561,0.9606781-1.1959229c1.9606018-3.2677002,5.8818054-12.4171753,5.8818054-12.4171753
			l3.2676697-0.6535339l5.8818207,1.9606018L185.337677,517.2112427z"/>
		<path opacity="0.2" fill="#563112" d="M170.4044189,694.9334717c-14.7502899-0.9934082-28.4418488-2.6403198-31.7356415-4.2871704
			c-5.2282867-2.6141357-11.1100998-7.1889038-11.1100998-11.1101074s5.881813-51.6292725,5.881813-67.9675903
			c0-16.3383789,0.6535339-54.8969727,9.8030243-66.6605835c7.7966614-10.0317993,16.5475006-15.7763062,20.1680756-19.2727051
			c0.4836121-0.222229,0.7450409-0.333313,0.7450409-0.333313s-9.8030243,29.4090576-5.2282867,41.8262329
			c0,0-0.104538,0.4574585-0.2810059,1.3200684c-1.235199,6.1497803-5.7903137,32.755249,2.2416077,56.8444824
			C167.6203461,645.4805298,169.750885,678.7454224,170.4044189,694.9334717z"/>
		<path opacity="0.2" fill="#563112" d="M213.1717377,678.229126c-0.0457611,0.5293579-0.0849609,1.0587158-0.124176,1.581543
			c-12.6066742-10.1428833-47.0348816-40.0878296-58.6939545-73.4703979
			c-14.3777618-41.1726685,22.8737183-60.7786865,22.8737183-60.7786865s18.6910706,14.4561768,32.2192535,44.4795532
			c0.2156677,0.4770508,0.4248047,0.9606934,0.6274109,1.4508057c0.3005981,4.3852539,0.4835968,8.7443237,0.4835968,12.8877563
			C210.5575867,629.2139893,213.8252716,671.0402222,213.1717377,678.229126z"/>
	</g>
	<g id="left_hand">
		<path fill="#F69D80" d="M251.0767517,700.4492798c0,0,5.2282715,9.8030396,11.1100769,10.456604
			c5.8818359,0.6535034,12.4171753-6.5354004,15.684845-7.1889038c3.2676697-0.6535645,5.2282715,4.5747681,5.8818054,7.1889038
			s3.9212036,0.6535034,3.2676697-5.2283325c-0.6535339-5.8817749-5.2282715-12.4171143-5.8818054-13.0706787
			c-0.6535339-0.6535034-20.2595825-2.6141357-21.5666504-5.8817749
			C258.265625,683.4573975,247.8090668,689.3392334,251.0767517,700.4492798z"/>
		<path fill="#FFC763" d="M209.446579,651.1204834c-1.0391083,0.666626-2.1893311,1.2155762-3.4637299,1.6207886
			c-12.41716,3.9212036-18.9524994-3.2677002-28.7555237-19.6060791
			c-7.9404602-13.227478-11.5937042-20.8869629-12.6916351-23.324646c-0.2614288-0.5750732-0.3790588-0.8561401-0.3790588-0.8561401
			s-16.3383789-35.944397-17.6454468-46.4009399s25.487854-35.2908936,35.9444122-16.3383789
			s31.3696747,73.1959229,33.9838104,79.0776978C218.785614,630.5733643,218.4980621,645.3171387,209.446579,651.1204834z"/>
		<path fill="#20437F" d="M209.446579,651.1204834c-1.0391083,0.666626-2.1893311,1.2155762-3.4637299,1.6207886
			c-12.41716,3.9212036-18.9524994-3.2677002-28.7555237-19.6060791
			c-7.9404602-13.227478-11.5937042-20.8869629-12.6916351-23.324646
			c4.8688354,6.1170654,10.5153503,12.3779907,15.3057709,15.4822388
			C187.2590637,630.0897217,201.0747986,643.0427856,209.446579,651.1204834z"/>
		<path fill="#FFC763" d="M258.9191589,699.7957764c-0.2221985,0.222168-0.444397,0.4313354-0.6600647,0.6273804
			c-4.8949738,4.4375-8.4894104,2.6402588-8.4894104,2.6402588s-51.6292572-44.4403076-54.8969269-46.4009399
			s-6.9209442-8.5025024-6.9209442-8.5025024s-2.7121429-6.0125122,1.0064697-14.9724731
			c0.5293579-1.2678223,1.1828918-2.5945435,1.9932709-3.9735107c6.5353394-11.1100464,20.4621735-8.8357544,26.2459412-1.4769897
			l46.296402,57.0274658C263.4938965,684.7644653,264.1474304,694.5675049,258.9191589,699.7957764z"/>
		<path fill="#20437F" d="M258.2590942,700.4231567c-4.8949738,4.4375-8.4894104,2.6402588-8.4894104,2.6402588
			s-51.6292572-44.4403076-54.8969269-46.4009399s-6.9209442-8.5025024-6.9209442-8.5025024s-3.65979-7.045105,0.0588379-16.0050659
			c8.5220795,5.0518799,21.2398682,19.2792969,21.2398682,19.2792969s22.8737183,23.5272217,31.3696747,30.7161255
			C246.188324,686.8623047,253.7235565,695.2210083,258.2590942,700.4231567z"/>
	</g>
</g>
<g id="Layer_x5F_Cart">
	<g>
		<circle fill="#CEE0F2" cx="276.5646057" cy="708.291748" r="10.7833233"/>
		<g id="XMLID_47_">
			<g id="XMLID_48_">
				
					<ellipse id="XMLID_49_" transform="matrix(0.965192 -0.2615424 0.2615424 0.965192 -242.5417175 175.4007416)" fill="#1F184B" cx="537.6970215" cy="998.9121094" rx="25.1113586" ry="25.1114197"/>
			</g>
		</g>
		<g id="XMLID_44_">
			<g id="XMLID_45_">
				
					<ellipse id="XMLID_46_" transform="matrix(0.625126 -0.7805238 0.7805238 0.625126 -578.1060791 794.1515503)" fill="#FFFFFF" cx="537.6970825" cy="998.9121094" rx="18.0643597" ry="18.0643921"/>
			</g>
		</g>
		<path fill="#FFC763" d="M436.0307007,547.6578979v355.2476807c0,4.7684326-3.8702698,8.6386719-8.6387634,8.6386719h-50.6950378
			c-4.7684631,0-8.6386719-3.8702393-8.6386719-8.6386719V547.6578979c0-4.7684326,3.8702087-8.6291504,8.6386719-8.6291504
			h50.6950378C432.1604309,539.0287476,436.0307007,542.8894653,436.0307007,547.6578979z"/>
		<path fill="#EB5A62" d="M532.0980225,439.1771545v461.1195374c0,4.7685547-3.8701782,8.6292114-8.6386719,8.6292114h-50.6950378
			c-4.7685547,0-8.6387634-3.8606567-8.6387634-8.6292114V439.1771545c0-4.7684631,3.8702087-8.6386719,8.6387634-8.6386719
			h50.6950378C528.2278442,430.5384827,532.0980225,434.4086914,532.0980225,439.1771545z"/>
		<g id="XMLID_41_">
			<g id="XMLID_42_">
				
					<ellipse id="XMLID_43_" transform="matrix(0.231758 -0.9727735 0.9727735 0.231758 -672.8907471 1145.7875977)" fill="#1F184B" cx="388.9717407" cy="998.9121094" rx="25.111412" ry="25.1114807"/>
			</g>
		</g>
		<g id="XMLID_38_">
			<g id="XMLID_39_">
				
					<ellipse id="XMLID_40_" transform="matrix(0.2311924 -0.972908 0.972908 0.2311924 -672.8052368 1146.4049072)" fill="#FFFFFF" cx="388.9717407" cy="998.9121094" rx="18.0643692" ry="18.0644379"/>
			</g>
		</g>
		<path opacity="0.2" fill="#563112" d="M436.0307007,712.0131226v190.8924561c0,4.7684326-3.8702698,8.6386719-8.6387634,8.6386719
			h-50.6950378c-4.7684631,0-8.6386719-3.8702393-8.6386719-8.6386719V769.2254028L436.0307007,712.0131226z"/>
		<g id="XMLID_35_">
			<g id="XMLID_36_">
				<path id="XMLID_37_" fill="#EBF2FA" d="M537.6811523,1005.8983154L537.6811523,1005.8983154
					c-4.3867798,0-8.0307007-2.3505859-8.3548584-5.3895874l-3.5797729-33.5531006h23.901001l-3.6118774,33.5569458
					C545.7086792,1003.5498657,542.0657959,1005.8983154,537.6811523,1005.8983154z"/>
			</g>
		</g>
		<path fill="#A1364B" d="M532.0980225,785.0311279v115.265564c0,4.7685547-3.8701782,8.6292114-8.6386719,8.6292114h-50.6950378
			c-4.7685547,0-8.6387634-3.8606567-8.6387634-8.6292114v-57.9480591L532.0980225,785.0311279z"/>
		<g id="XMLID_32_">
			<g id="XMLID_33_">
				<path id="XMLID_34_" fill="#EBF2FA" d="M388.9558716,1005.8983154L388.9558716,1005.8983154
					c-4.3867493,0-8.0306702-2.3505859-8.3549194-5.3895874l-3.579834-33.5531006h23.9011536l-3.6118774,33.5569458
					C396.983429,1003.5498657,393.3405151,1005.8983154,388.9558716,1005.8983154z"/>
			</g>
		</g>
		<g id="XMLID_29_">
			<g id="XMLID_30_">
				<circle id="XMLID_31_" fill="#FFC763" cx="537.6970215" cy="998.9121094" r="4.2957292"/>
			</g>
		</g>
		<g id="XMLID_26_">
			<g id="XMLID_27_">
				<circle id="XMLID_28_" fill="#FFC763" cx="388.9717712" cy="998.9121094" r="4.2957292"/>
			</g>
		</g>
		<polygon opacity="0.4" fill="#662131" points="532.0980225,580.6359863 532.0980225,715.8737183 464.1255493,776.8511353 
			464.1255493,636.3861694 		"/>
		<path fill="#F47A86" d="M517.4592896,901.7265015h-2.2384033c-2.8123779,0-5.0922546-2.2798462-5.0922546-5.0922241V459.1589661
			c0-2.8123779,2.2798767-5.0922546,5.0922546-5.0922546h2.2384033c2.8123779,0,5.0922241,2.2798767,5.0922241,5.0922546
			v437.4753113C522.5515137,899.4466553,520.2716675,901.7265015,517.4592896,901.7265015z"/>
		<path fill="#FFD694" d="M420.6550293,902.2133179h-3.5741577c-2.443512,0-4.4243774-1.980835-4.4243774-4.4243774V568.7057495
			c0-2.4435425,1.9808655-4.4243774,4.4243774-4.4243774h3.5741577c2.443512,0,4.4243774,1.980835,4.4243774,4.4243774v329.0831909
			C425.0794067,900.2324829,423.0985413,902.2133179,420.6550293,902.2133179z"/>
		<path fill="#CEE0F2" d="M371.1014404,916.9282837l188.4182129-7.7501221h0.0004883
			c3.5950928-0.1486206,6.6500854-2.5802002,7.6013794-6.050293l29.3740845-107.2018433
			c0.6586914-2.4049683,0.2039185-4.946167-1.2485962-6.9719238c-1.4522095-2.0266113-3.7125854-3.274231-6.2010498-3.421875
			l-210.3371277-12.5661621c-0.0255432-0.0026855-0.0514526-0.0026245-0.0772095-0.0045776l-22.9053345-1.3684692
			l-2.2852783-20.4200439c-1.8359985-16.4050903-13.2282104-30.1069946-29.0224304-34.9076538l-45.9098816-13.9530029
			c-2.7750549-0.8457642-5.70578,0.7227173-6.5484619,3.4956665c-0.8427124,2.7739868,0.7221985,5.7047729,3.495636,6.5484619
			l45.9098816,13.953125c11.7782593,3.5797119,20.2740173,13.7971802,21.6435547,26.0310669l18.0556641,161.34198
			l-11.6983032,26.836853c-3.0610046,7.0232544-2.3823853,15.041626,1.8150024,21.4498291
			c4.1974182,6.4089966,11.2774658,10.2348633,18.9382324,10.2348633H543.383667
			c10.1635742,0,19.4277344,5.987854,23.6005249,15.2548828l3.9384766,8.74646
			c0.8754883,1.9437256,2.7872925,3.0949097,4.7889404,3.0949097c0.7201538,0,1.4525146-0.1486206,2.1522827-0.4634399
			c2.6428223-1.1911621,3.8206177-4.2983398,2.6304932-6.9411011l-3.9385986-8.74646
			c-5.8652344-13.0262451-18.8865356-21.4425659-33.1721191-21.4425659H370.1199036
			c-4.1702271,0-7.8720093-2.0010376-10.1570129-5.4885254c-2.2845154-3.4885864-2.6396484-7.6813354-0.9733276-11.5040283
			L371.1014404,916.9282837z M539.1154785,787.8064575l-3.5596313,17.5327148l-26.3139954-0.8428345l2.489624-18.3258057
			L539.1154785,787.8064575z M571.7633057,789.7568359l-4.5474854,16.5964355l-26.338562-0.843689l3.5300293-17.3869629
			L571.7633057,789.7568359z M581.1270752,832.1517334l-15.4835815-0.1975098l5.5408936-20.2219238l15.4025879,0.4933472
			L581.1270752,832.1517334z M567.3516235,882.4259644l-15.6730347,0.4940186l5.5463867-20.2417603l15.5731812-0.1298218
			L567.3516235,882.4259644z M520.5706787,905.5269165l3.3459473-16.4800415l20.8206177-0.65625l-4.4735107,16.3262939
			L520.5706787,905.5269165z M495.3755188,906.5632935l2.2672119-16.6882324l20.8833923-0.6582642l-3.3565063,16.5323486
			L495.3755188,906.5632935z M470.1827393,907.5995483l1.2198181-16.8973999l20.9208069-0.6594238l-2.2741699,16.739624
			L470.1827393,907.5995483z M524.925293,857.6983643l-22.9371948,0.1911621l2.9155884-21.4608154l24.2770996,0.3098145
			L524.925293,857.6983643z M534.5230103,836.8066406l24.2635498,0.3096313l-5.5749512,20.3463135l-22.9212036,0.19104
			L534.5230103,836.8066406z M389.9284058,864.0726929l22.5249939-0.1877441l1.0679016,23.3898315l-21.1987915,0.6682129
			L389.9284058,864.0726929z M387.0646667,888.1086426l-18.2345581,0.5748291l-2.7319946-24.4121704l18.5602417-0.1547241
			L387.0646667,888.1086426z M417.7059021,863.8411255l22.5643311-0.1880493l-0.268158,22.7869873L418.76828,887.109375
			L417.7059021,863.8411255z M445.5201416,863.609314l22.5892334-0.1882935l-1.6014709,22.1835327l-21.2545166,0.6699829
			L445.5201416,863.609314z M468.4885559,858.1688232l-22.9066772,0.190918l0.2669678-22.6845093l24.2411804,0.3092651
			L468.4885559,858.1688232z M475.3477478,836.0516357l24.2685242,0.3096313l-2.9307251,21.5724487l-22.9312744,0.1911621
			L475.3477478,836.0516357z M473.3751221,863.3770752l22.5964966-0.1883545l-2.9317017,21.5795288l-21.2573853,0.670105
			L473.3751221,863.3770752z M501.2741699,863.1445312l22.5836792-0.1882324l-4.2585449,20.9748535l-21.2400208,0.6694946
			L501.2741699,863.1445312z M505.6156006,831.1882935l2.9158325-21.4627686l25.9649658,0.831665l-4.2525635,20.9453125
			L505.6156006,831.1882935z M500.3282166,831.1208496l-24.6018372-0.3139038l1.5940247-22.0811157l25.937439,0.8308105
			L500.3282166,831.1208496z M470.4686584,830.7398682l-24.5580139-0.3133545l0.2670898-22.6981812l25.8922729,0.8292847
			L470.4686584,830.7398682z M440.6620178,830.3595581l-24.499054-0.312561l-1.0644836-23.3141479l25.8318787,0.8274536
			L440.6620178,830.3595581z M440.6002808,835.6082764l-0.2683105,22.7952271l-22.8656006,0.1906128l-1.0635986-23.2946167
			L440.6002808,835.6082764z M412.2138672,858.6378784l-22.8114929,0.1901855l-2.3974609-23.9036865l24.1403503,0.3080444
			L412.2138672,858.6378784z M384.1323242,858.8719482l-18.6210938,0.1552124l-2.7320251-24.4118652l18.9445496,0.2417603
			L384.1323242,858.8719482z M369.415802,893.916748l18.1739502-0.5728149l1.7632446,17.5803223l-17.9512329,0.7384033
			L369.415802,893.916748z M392.8475647,893.1781616l20.9131775-0.6591187l0.7929993,17.3686523l-19.9479675,0.8205566
			L392.8475647,893.1781616z M419.0077209,892.3536377l20.9325256-0.65979l-0.2019653,17.157959l-19.9398193,0.8201294
			L419.0077209,892.3536377z M445.1915588,891.5283203l20.9363708-0.6599121l-1.2235413,16.9482422l-19.9141846,0.8191528
			L445.1915588,891.5283203z M524.9898071,883.7612305l4.2330933-20.8496094l22.5471802-0.1879883l-5.5812988,20.3693848
			L524.9898071,883.7612305z M574.2397461,857.2872925l-15.5732422,0.1298218l5.5436401-20.2316895l15.4835205,0.1975708
			L574.2397461,857.2872925z M560.2199707,831.8850098l-24.6339722-0.3143311l4.2318115-20.8430786l25.9714355,0.8318481
			L560.2199707,831.8850098z M503.9682617,804.3273926l-26.2695923-0.8414307l1.3907471-19.2654419l27.3881531,1.6361694
			L503.9682617,804.3273926z M472.4482727,803.3178101l-26.2087402-0.8394775l0.237793-20.2060547l27.3721924,1.6351929
			L472.4482727,803.3178101z M440.9921265,802.3102417l-26.1337585-0.8370361l-0.9655457-21.147522l27.3388062,1.6332397
			L440.9921265,802.3102417z M409.5962219,801.3046875l-26.0469055-0.8342896l-2.2155151-22.0897827l27.2902527,1.6303101
			L409.5962219,801.3046875z M409.8363953,806.5643311l1.0690613,23.4155884l-24.4277039-0.3116455l-2.3999939-23.9290161
			L409.8363953,806.5643311z M381.1965637,829.6008301l-19.0056763-0.2424927l-2.7314758-24.4075928l19.3269348,0.6190186
			L381.1965637,829.6008301z M562.0595093,901.7398682c-0.3449707,1.2589111-1.4521484,2.1404419-2.7556763,2.1938477h0.0006104
			l-13.5363159,0.5568237l4.4588623-16.2729492l15.6730347-0.4940186L562.0595093,901.7398682z M590.980957,792.0110474
			c0.5263672,0.7349854,0.6914062,1.6556396,0.4525146,2.5270386l-3.4199829,12.4813232l-15.4025269-0.4933472l4.5072021-16.4493408
			l11.6151733,0.6939087C589.635498,790.8249512,590.4545288,791.2770996,590.980957,792.0110474z M376.0275879,778.0635986
			l2.2303162,22.2373047l-19.3883667-0.6210327l-2.5508728-22.7936401L376.0275879,778.0635986z"/>
	</g>
</g>
</svg>
