<?xml version="1.0" encoding="iso-8859-1"?>
<!-- Generator: Adobe Illustrator 23.1.0, SVG Export Plug-In . SVG Version: 6.00 Build 0)  -->
<svg version="1.1" xmlns="http://www.w3.org/2000/svg" xmlns:xlink="http://www.w3.org/1999/xlink" x="0px" y="0px"
	 viewBox="0 0 1200 1200" enable-background="new 0 0 1200 1200" xml:space="preserve">
<g id="Layer_x5F_Trees_2">
	<g>
		<path fill="#20437F" d="M430.4508667,781.3353271c-6.7431641,5.7106934-16.2333679,11.8878784-26.0898132,17.71521
			c-21.8277893,12.8534546-45.503479,23.9088135-45.503479,23.9088135s-89.9078979-51.6137695-78.2531738-88.2429199
			c11.6547241-36.6290894,29.9692993-43.2889404,18.3145752-71.5933228
			c-11.6547241-28.3043213-8.3247986-41.6239624,11.6547241-61.6035156s21.6445007-36.6291504,21.6445007-58.2736206
			c0-11.3884888,7.8252258-23.2261353,17.6818542-28.2543335c8.874176-4.5453186,19.380188-3.5630493,27.2720642,8.2747803
			c16.6496277,24.9744263,4.9949036,61.6035767,29.9692993,78.2531738
			c24.9744263,16.6495972,34.9641724,26.6393433,28.3043213,51.6137695
			c-6.6598206,24.9744263-14.9846191,39.9590454,1.664978,56.6087036
			C453.7603149,726.3916626,452.0953674,763.020752,430.4508667,781.3353271z"/>
		<polygon fill="#1F184B" points="364.6729126,601.5352173 363.8121643,654.2547607 363.7938538,655.5093384 
			362.8140259,715.2068481 362.7683105,717.7160034 361.7608948,779.6296387 361.7150879,782.2669678 361.5961304,789.2541504 
			361.0649414,821.9096069 359.2426147,933.2553101 358.7388916,963.9786377 357.7133789,1026.9454346 356.0650024,1026.9545898 
			357.0906067,964.2716675 357.5942078,933.5117188 359.4073792,822.7063599 359.966095,788.4116821 360.6620483,745.9667358 
			360.6987305,743.8147583 361.550293,691.6904907 361.5869751,689.4835205 363.0246277,601.5076904 		"/>
		
			<rect x="357.8884583" y="642.6984863" transform="matrix(0.6054546 -0.7958798 0.7958798 0.6054546 -364.9970703 550.7696533)" fill="#1F184B" width="30.2425499" height="1.6473863"/>
		
			<rect x="348.9775696" y="662.6057129" transform="matrix(0.6781952 -0.7348818 0.7348818 0.6781952 -386.9572754 475.8045654)" fill="#1F184B" width="1.6473713" height="34.2588654"/>
		
			<rect x="347.7033386" y="717.1437988" transform="matrix(0.6557419 -0.7549852 0.7549852 0.6557419 -434.4284668 515.9332275)" fill="#1F184B" width="1.6470661" height="34.3815041"/>
		
			<rect x="354.9120178" y="768.3270264" transform="matrix(0.6389989 -0.7692076 0.7692076 0.6389989 -457.5101013 563.4559326)" fill="#1F184B" width="33.2567978" height="1.6473438"/>
		
			<rect x="356.8972168" y="705.2503052" transform="matrix(0.6659381 -0.746007 0.746007 0.6659381 -402.4431152 513.4362793)" fill="#1F184B" width="30.3377266" height="1.6475394"/>
		<path opacity="0.4" d="M404.3610535,799.0505371c-21.8277893,12.8534546-45.503479,23.9088135-45.503479,23.9088135
			s-89.9078979-51.6137695-78.2531738-88.2429199c11.6547241-36.6290894,29.9692993-43.2889404,18.3145752-71.5933228
			c-11.6547241-28.3043213-8.3247986-41.6239624,11.6547241-61.6035156s21.6445007-36.6291504,21.6445007-58.2736206
			c0-11.3884888,7.8252258-23.2261353,17.6818542-28.2543335c-5.1446533,6.6098633-9.0074768,15.4342041-7.6921082,26.5893555
			c3.3299255,28.3043213-8.3247986,54.9437256-19.9795227,64.9334717s-11.6547241,31.6342773,0,53.2787476
			s-4.994873,48.2838745-8.3247986,69.9283447C311.0732727,748.152771,348.068634,800.3823853,404.3610535,799.0505371z"/>
	</g>
</g>
<g id="Layer_x5F_Trees_1">
	<g>
		<path fill="#EB5A62" d="M212.9112549,718.8619385c-9.2645569,7.8460083-22.3032684,16.3328857-35.8451843,24.3391724
			c-29.989563,17.6595459-62.517952,32.8486938-62.517952,32.8486938S-8.9776821,705.1368408,7.0349216,654.8115234
			s41.1752625-59.4754028,25.1626606-98.3630981c-16.0126019-38.8877563-11.4375725-57.1878967,16.0126038-84.6380615
			c27.4501762-27.4501953,29.73769-50.3253479,29.73769-80.0630188c0-15.6468201,10.7512131-31.9107361,24.293396-38.8190613
			c12.1923523-6.244873,26.626709-4.8953247,37.4695129,11.368866
			c22.8751373,34.3127441,6.8625336,84.6380615,41.1752625,107.5132141s48.0378113,36.6002197,38.8877411,70.9129639
			c-9.1500549,34.3126831-20.5876312,54.9003296,2.2875214,77.7755127
			C244.9364624,643.3739624,242.648941,693.6992798,212.9112549,718.8619385z"/>
		<polygon fill="#A1364B" points="122.5464783,471.8287964 121.3651886,544.2460938 121.3285751,545.9859619 
			119.9915619,628.0002441 119.9366226,631.461792 118.5446701,716.5163574 118.4806137,720.133606 118.3248978,729.7489014 
			117.5923157,774.6021729 115.5684891,898.1272583 114.19487,981.7715454 113.4531174,1027.5039062 111.1820831,1027.5039062 
			111.9055023,982.8155518 113.2882919,898.5026855 115.302948,775.6918945 116.072197,728.5858765 117.0245514,670.2619629 
			117.0703278,667.3041382 118.2425156,595.7110596 118.2974548,592.6798706 120.275444,471.7922058 		"/>
		
			<rect x="113.2166443" y="528.3867188" transform="matrix(0.6054546 -0.7958798 0.7958798 0.6054546 -368.5670776 315.5605774)" fill="#A1364B" width="41.5506973" height="2.2633688"/>
		
			<rect x="100.9738617" y="555.7375488" transform="matrix(0.6781952 -0.7348818 0.7348818 0.6781952 -392.8383179 261.447937)" fill="#A1364B" width="2.2633483" height="47.0687752"/>
		
			<rect x="99.223175" y="630.6681519" transform="matrix(0.6557419 -0.7549852 0.7549852 0.6557419 -459.4289246 301.0098267)" fill="#A1364B" width="2.2629292" height="47.2372704"/>
		
			<rect x="109.1272736" y="700.989624" transform="matrix(0.6389989 -0.7692076 0.7692076 0.6389989 -492.4345398 354.9813538)" fill="#A1364B" width="45.6920204" height="2.2633107"/>
		
			<rect x="111.8547516" y="614.3275757" transform="matrix(0.6659381 -0.746007 0.746007 0.6659381 -414.8084717 304.5932617)" fill="#A1364B" width="41.6814651" height="2.2635794"/>
		<path opacity="0.4" fill="#662131" d="M177.0660706,743.2011108c-29.989563,17.6595459-62.517952,32.8486938-62.517952,32.8486938
			S-8.9776821,705.1368408,7.0349216,654.8115234s41.1752625-59.4754028,25.1626606-98.3630981
			c-16.0126019-38.8877563-11.4375725-57.1878967,16.0126038-84.6380615
			c27.4501762-27.4501953,29.73769-50.3253479,29.73769-80.0630188c0-15.6468201,10.7512131-31.9107361,24.293396-38.8190613
			c-7.0683365,9.0813599-12.3755341,21.2052917-10.568306,36.5315247
			c4.5750275,38.8877563-11.4375687,75.4880066-27.4501724,89.2131042c-16.0126076,13.7250671-16.0126076,43.4627686,0,73.2004395
			c16.0126038,29.7377319-6.8625488,66.3379517-11.4375763,96.0756226
			C48.896553,673.2719116,99.7250671,745.0310059,177.0660706,743.2011108z"/>
	</g>
</g>
<g id="Backgroud_x5F_Simple">
	<polygon fill="#EBF2FA" points="546.7531128,1003.3216553 546.7531128,859.8432617 200.0137177,859.8432617 
		200.0137177,1003.3216553 26.2454643,1003.3216553 26.2454643,1080.6405029 713.3474731,1080.6405029 713.3474731,1003.3216553 	
		"/>
</g>
<g id="Layer_x5F_Character_2">
	<g id="rightleg">
		<path fill="#CE7962" d="M287.1568909,1030.4558105l-3.6865845,35.854248c0,0-1.4746399,7.9676514-11.7971191,7.9676514
			s-11.0597839-7.9676514-11.0597839-7.9676514v-32.6672363L287.1568909,1030.4558105z"/>
		<path fill="#20437F" d="M354.2529602,674.3032227l-33.1793823,208.7515869c0,0-12.5344238,35.8543091-33.916687,32.6672363
			c-7.0413818-1.0516968-12.5639038-2.8762817-16.7223816-6.0234985c-8.479187-6.4060059-11.3031311-18.27771-9.821106-40.1886597
			c2.2119446-32.6672363-10.3224792-150.5880127-5.1612396-162.5394287
			c3.6718292-8.5094604-3.4875031-39.6230469,31.7047272-43.9175415
			C301.4093018,661.315979,322.5924683,663.9691772,354.2529602,674.3032227z"/>
		<path d="M270.7304382,910.421875l-0.5359192-0.4055176c-8.5960999-6.4943848-11.4871521-18.2376099-9.9789734-40.5339355
			c1.0154419-14.993103-1.1010742-48.2869263-3.147522-80.4846802c-2.4726715-38.899231-4.8079224-75.640625-1.9818726-82.1856079
			c0.795929-1.8448486,1.0769348-4.8955078,1.4023132-8.4271851c1.1867065-12.8843994,2.9797974-32.3546143,30.6203308-35.7275391
			l0.5588989-0.0684814l-0.1214294,0.5499268c-4.6845398,21.1885986-14.7090149,73.7654419-6.6399231,104.2833862
			c10.3374329,39.0985107,16.1872559,64.03125,6.606842,83.1437988v0.0007935
			c-7.2941895,14.5424805-14.0403748,41.3504639-16.6842651,59.1903076L270.7304382,910.421875z M286.6460266,663.5195312
			c-26.4666748,3.4892578-28.2087708,22.3974609-29.3639526,34.9385986
			c-0.331604,3.5994263-0.6176758,6.7084351-1.4642029,8.6700439c-2.7501678,6.3690186-0.312149,44.7249146,2.0456848,81.8189697
			c2.0480347,32.2234497,4.1661072,65.5437012,3.1475525,80.5897827
			c-1.455658,21.5147705,1.1936951,33.0307007,9.1308594,39.4277954
			c2.7209473-17.8966675,9.4192505-44.3209229,16.6589661-58.7559204l0,0
			c9.4511719-18.8557129,3.6246948-43.6655273-6.6652222-82.5825806
			C272.0915222,737.2016602,281.9003906,685.112915,286.6460266,663.5195312z"/>
		<path fill="#20437F" d="M321.0735779,883.0548096l-28.7554321,154.5717773c0,0-13.3897095,4.4538574-22.0901184,5.9119873
			c-1.7105713,0.2868652-3.2441711,0.4621582-4.4533997,0.4621582c-7.3731995,0-11.7971039-6.3741455-11.7971039-6.3741455
			s-0.7373199-113.9368896,2.949295-130.6689453c3.6865845-16.7319946,3.4653931-33.5834961,3.4653931-33.5834961
			s0.9584961-22.1898193,26.764679-29.3606567c0.8921814-0.2470093,1.7695923-0.4541626,2.6174927-0.621521
			C313.5603027,838.7070312,321.7887573,864.593811,321.0735779,883.0548096z"/>
		<path d="M265.7746277,1044.3996582c-7.4953918,0-11.9390106-6.2786865-12.1242676-6.5457764l-0.0704498-0.1011963
			l-0.0007782-0.1237793c-0.0074005-1.1395264-0.6955261-114.1739502,2.958374-130.7565918
			c3.6344604-16.4962769,3.4585266-33.3249512,3.4562073-33.493103c0.0101013-0.2474976,1.2695923-22.5842896,27.0567017-29.7496338
			c0.8858337-0.2452393,1.7763367-0.4569702,2.6470032-0.6281738l0.8157959-0.1611328l-0.3857117,0.7363892
			c-2.4430542,4.6689453-14.8666382,29.7854614-19.5336609,65.8223877
			c-0.0984802,0.3845215-8.766571,33.7974243-2.9525452,65.2113647l0,0
			c3.3526611,18.121582,8.1967468,51.1889038,2.9692688,69.0403442l-0.0704346,0.2398682l-0.2463684,0.0411377
			C268.4138794,1044.2463379,266.9356384,1044.3996582,265.7746277,1044.3996582z M254.3754578,1037.4951172
			c0.5892639,0.7877197,4.8184204,6.1074219,11.3991699,6.1074219c1.0504761,0,2.4422913-0.1401367,4.1404114-0.4165039
			c5.0679321-17.7495117,0.2669983-50.4602661-3.0576172-68.4308472l0,0
			c-5.8471069-31.5929565,2.8669128-65.1740112,2.955658-65.5094604
			c4.4665833-34.5128174,16.0592041-59.0812988,19.2226868-65.2907715
			c-0.5877075,0.1307373-1.1812439,0.2786865-1.7724609,0.4421387
			c-25.2348022,7.0127563-26.463562,28.7750854-26.4729004,28.9937744c0.0027466,0.1463623,0.1798096,17.067688-3.4744568,33.65271
			C253.7363739,923.289978,254.3489838,1033.0744629,254.3754578,1037.4951172z"/>
		<path fill="#20437F" d="M343.1931763,1099.7740479c0,0-22.8569031,11.1546631-56.0362854,5.5773926
			c-33.1793671-5.5773926-36.1286469-9.5611572-36.1286469-9.5611572s0.1695709-2.987915,0.5013733-7.3381348
			c0.8479309-11.2344971,2.7428589-31.5758057,5.3972015-33.2967529c3.6865845-2.3902588,3.6865845-0.0478516,3.6865845-0.0478516
			s1.4746399,3.2348633,8.1105042,4.0316162c6.6358948,0.7967529,15.8966064-4.0316162,15.8966064-4.0316162
			s18.7574158,14.3895264,29.8171997,17.5766602c0.8774109,0.2550049,1.7843018,0.5257568,2.7133484,0.8206787
			c10.8164368,3.3862305,24.6854248,9.369873,26.0421143,16.7080078
			C344.6678162,1098.180542,343.1931763,1099.7740479,343.1931763,1099.7740479z"/>
		<path fill="#20437F" d="M305.5900269,1107.2967529c-5.7034607,0-11.903595-0.4437256-18.4991455-1.552124
			c-32.9590759-5.5400391-36.2587891-9.5496826-36.3829498-9.717041l-0.0856323-0.1159668l0.0081787-0.144043
			c0.0015564-0.029541,0.173584-3.0412598,0.5016937-7.3459473l0.0439758-0.5776367l0.52388,0.2475586
			c25.7392426,12.1893311,53.2435455,8.6257324,56.4622955,8.1508789c0.6017151-8.7883301,3.5204163-16.5212402,8.677063-22.9859619
			l0.1704712-0.2132568l0.260376,0.0809326c9.1841736,2.8754883,24.81604,8.9090576,26.3148804,17.0162354
			c1.4684753,7.9351807,0.0653687,9.7263184-0.0992432,9.9046631l-0.1179504,0.0871582
			C343.1842346,1100.2216797,328.3588257,1107.2967529,305.5900269,1107.2967529z M251.436142,1095.6398926
			c0.6873474,0.6157227,5.876297,4.2906494,35.7870941,9.3184814c31.6271973,5.3157959,54.0904541-4.748291,55.7037048-5.4995117
			c0.1996765-0.3393555,1.1322327-2.3773193-0.1257019-9.1737061c-1.458374-7.8885498-18.1122742-13.9827881-25.5080566-16.3179932
			c-5.0095215,6.3706055-7.8207703,13.9874268-8.3563232,22.6450195l-0.0194702,0.3153076l-0.3117371,0.0528564
			c-0.2922974,0.0498047-29.3985901,4.7818604-56.7223053-7.9219971
			C251.6268463,1092.4771729,251.4750671,1094.9782715,251.436142,1095.6398926z"/>
		<g id="rightleg_1_" opacity="0.4">
			<path d="M287.1568909,1030.4558105l-3.6865845,35.854248c0,0-1.4746399,7.9676514-11.7971191,7.9676514
				s-11.0597839-7.9676514-11.0597839-7.9676514v-32.6672363L287.1568909,1030.4558105z"/>
			<path d="M354.2529602,674.3032227l-33.1793823,208.7515869c0,0-12.5344238,35.8543091-33.916687,32.6672363
				c-7.0413818-1.0516968-12.5639038-2.8762817-16.7223816-6.0234985c-8.479187-6.4060059-11.3031311-18.27771-9.821106-40.1886597
				c2.2119446-32.6672363-10.3224792-150.5880127-5.1612396-162.5394287
				c3.6718292-8.5094604-3.4875031-39.6230469,31.7047272-43.9175415
				C301.4093018,661.315979,322.5924683,663.9691772,354.2529602,674.3032227z"/>
			<path d="M270.7304382,910.421875l-0.5359192-0.4055176c-8.5960999-6.4943848-11.4871521-18.2376099-9.9789734-40.5339355
				c1.0154419-14.993103-1.1010742-48.2869263-3.147522-80.4846802c-2.4726715-38.899231-4.8079224-75.640625-1.9818726-82.1856079
				c0.795929-1.8448486,1.0769348-4.8955078,1.4023132-8.4271851c1.1867065-12.8843994,2.9797974-32.3546143,30.6203308-35.7275391
				l0.5588989-0.0684814l-0.1214294,0.5499268c-4.6845398,21.1885986-14.7090149,73.7654419-6.6399231,104.2833862
				c10.3374329,39.0985107,16.1872559,64.03125,6.606842,83.1437988v0.0007935
				c-7.2941895,14.5424805-14.0403748,41.3504639-16.6842651,59.1903076L270.7304382,910.421875z M286.6460266,663.5195312
				c-26.4666748,3.4892578-28.2087708,22.3974609-29.3639526,34.9385986
				c-0.331604,3.5994263-0.6176758,6.7084351-1.4642029,8.6700439c-2.7501678,6.3690186-0.312149,44.7249146,2.0456848,81.8189697
				c2.0480347,32.2234497,4.1661072,65.5437012,3.1475525,80.5897827
				c-1.455658,21.5147705,1.1936951,33.0307007,9.1308594,39.4277954
				c2.7209473-17.8966675,9.4192505-44.3209229,16.6589661-58.7559204l0,0
				c9.4511719-18.8557129,3.6246948-43.6655273-6.6652222-82.5825806
				C272.0915222,737.2016602,281.9003906,685.112915,286.6460266,663.5195312z"/>
			<path d="M321.0735779,883.0548096l-28.7554321,154.5717773c0,0-13.3897095,4.4538574-22.0901184,5.9119873
				c-1.7105713,0.2868652-3.2441711,0.4621582-4.4533997,0.4621582c-7.3731995,0-11.7971039-6.3741455-11.7971039-6.3741455
				s-0.7373199-113.9368896,2.949295-130.6689453c3.6865845-16.7319946,3.4653931-33.5834961,3.4653931-33.5834961
				s0.9584961-22.1898193,26.764679-29.3606567c0.8921814-0.2470093,1.7695923-0.4541626,2.6174927-0.621521
				C313.5603027,838.7070312,321.7887573,864.593811,321.0735779,883.0548096z"/>
			<path d="M265.7746277,1044.3996582c-7.4953918,0-11.9390106-6.2786865-12.1242676-6.5457764l-0.0704498-0.1011963
				l-0.0007782-0.1237793c-0.0074005-1.1395264-0.6955261-114.1739502,2.958374-130.7565918
				c3.6344604-16.4962769,3.4585266-33.3249512,3.4562073-33.493103
				c0.0101013-0.2474976,1.2695923-22.5842896,27.0567017-29.7496338c0.8858337-0.2452393,1.7763367-0.4569702,2.6470032-0.6281738
				l0.8157959-0.1611328l-0.3857117,0.7363892c-2.4430542,4.6689453-14.8666382,29.7854614-19.5336609,65.8223877
				c-0.0984802,0.3845215-8.766571,33.7974243-2.9525452,65.2113647l0,0
				c3.3526611,18.121582,8.1967468,51.1889038,2.9692688,69.0403442l-0.0704346,0.2398682l-0.2463684,0.0411377
				C268.4138794,1044.2463379,266.9356384,1044.3996582,265.7746277,1044.3996582z M254.3754578,1037.4951172
				c0.5892639,0.7877197,4.8184204,6.1074219,11.3991699,6.1074219c1.0504761,0,2.4422913-0.1401367,4.1404114-0.4165039
				c5.0679321-17.7495117,0.2669983-50.4602661-3.0576172-68.4308472l0,0
				c-5.8471069-31.5929565,2.8669128-65.1740112,2.955658-65.5094604
				c4.4665833-34.5128174,16.0592041-59.0812988,19.2226868-65.2907715
				c-0.5877075,0.1307373-1.1812439,0.2786865-1.7724609,0.4421387
				c-25.2348022,7.0127563-26.463562,28.7750854-26.4729004,28.9937744c0.0027466,0.1463623,0.1798096,17.067688-3.4744568,33.65271
				C253.7363739,923.289978,254.3489838,1033.0744629,254.3754578,1037.4951172z"/>
			<path d="M343.1931763,1099.7740479c0,0-22.8569031,11.1546631-56.0362854,5.5773926
				c-33.1793671-5.5773926-36.1286469-9.5611572-36.1286469-9.5611572s0.1695709-2.987915,0.5013733-7.3381348
				c0.8479309-11.2344971,2.7428589-31.5758057,5.3972015-33.2967529c3.6865845-2.3902588,3.6865845-0.0478516,3.6865845-0.0478516
				s1.4746399,3.2348633,8.1105042,4.0316162c6.6358948,0.7967529,15.8966064-4.0316162,15.8966064-4.0316162
				s18.7574158,14.3895264,29.8171997,17.5766602c0.8774109,0.2550049,1.7843018,0.5257568,2.7133484,0.8206787
				c10.8164368,3.3862305,24.6854248,9.369873,26.0421143,16.7080078
				C344.6678162,1098.180542,343.1931763,1099.7740479,343.1931763,1099.7740479z"/>
			<path d="M305.5900269,1107.2967529c-5.7034607,0-11.903595-0.4437256-18.4991455-1.552124
				c-32.9590759-5.5400391-36.2587891-9.5496826-36.3829498-9.717041l-0.0856323-0.1159668l0.0081787-0.144043
				c0.0015564-0.029541,0.173584-3.0412598,0.5016937-7.3459473l0.0439758-0.5776367l0.52388,0.2475586
				c25.7392426,12.1893311,53.2435455,8.6257324,56.4622955,8.1508789
				c0.6017151-8.7883301,3.5204163-16.5212402,8.677063-22.9859619l0.1704712-0.2132568l0.260376,0.0809326
				c9.1841736,2.8754883,24.81604,8.9090576,26.3148804,17.0162354c1.4684753,7.9351807,0.0653687,9.7263184-0.0992432,9.9046631
				l-0.1179504,0.0871582C343.1842346,1100.2216797,328.3588257,1107.2967529,305.5900269,1107.2967529z M251.436142,1095.6398926
				c0.6873474,0.6157227,5.876297,4.2906494,35.7870941,9.3184814c31.6271973,5.3157959,54.0904541-4.748291,55.7037048-5.4995117
				c0.1996765-0.3393555,1.1322327-2.3773193-0.1257019-9.1737061c-1.458374-7.8885498-18.1122742-13.9827881-25.5080566-16.3179932
				c-5.0095215,6.3706055-7.8207703,13.9874268-8.3563232,22.6450195l-0.0194702,0.3153076l-0.3117371,0.0528564
				c-0.2922974,0.0498047-29.3985901,4.7818604-56.7223053-7.9219971
				C251.6268463,1092.4771729,251.4750671,1094.9782715,251.436142,1095.6398926z"/>
		</g>
	</g>
	<g id="left_leg">
		<path fill="#20437F" d="M335.5210571,679.6981812l-35.8695679,208.8407593c0,0-13.5507507,35.8696289-36.6667175,32.6812134
			c-7.6123047-1.0521851-13.5825958-2.8775635-18.0782623-6.026123
			c-9.1666718-6.4086914-12.2195892-18.2855225-10.6174011-40.2058105
			c2.3912964-32.6812134-11.1594391-150.6522827-5.5797119-162.6088257
			c3.9695435-8.5130615-3.7702789-39.6398926,34.2753754-43.9362793
			C278.3927612,666.7054443,301.2935181,669.3597412,335.5210571,679.6981812z"/>
		<path fill="#F69D80" d="M262.9847717,1036.0028076l-3.9855042,35.8696289c0,0-1.5942078,7.9710693-12.7536316,7.9710693
			s-11.9565277-7.9710693-11.9565277-7.9710693v-32.6811523L262.9847717,1036.0028076z"/>
		<path opacity="0.4" d="M262.9847717,855.8577881c-8.2340698,15.192749-15.4558105,42.9637451-18.0782623,59.3362427
			c-9.1666718-6.4086914-12.2195892-18.2855225-10.6174011-40.2058105
			c2.3912964-32.6812134-11.1594391-150.6522827-5.5797119-162.6088257
			c3.9695435-8.5130615-3.7702789-39.6398926,34.2753754-43.9362793
			c-5.1094055,21.3862305-15.9101715,73.939209-7.1739044,104.5160522
			C266.9702759,812.0171509,273.3471069,836.7272949,262.9847717,855.8577881z"/>
		<path fill="#20437F" d="M299.6514893,888.5389404l-31.0870056,154.6378174c0,0-14.4753418,4.4558105-23.8811798,5.9144287
			c-1.8492889,0.2869873-3.5072327,0.4624023-4.8144836,0.4624023c-7.9710236,0-12.7536316-6.3768311-12.7536316-6.3768311
			s-0.7971039-113.9855957,3.1884003-130.7247314c3.9855194-16.7391357,3.7463989-33.5979004,3.7463989-33.5979004
			s1.0362244-22.1992798,28.9347839-29.3731689c0.9645081-0.2471313,1.9130859-0.4543457,2.8297119-0.6217651
			C291.5289917,844.1722412,300.4246521,870.0700684,299.6514893,888.5389404z"/>
		<path opacity="0.4" d="M241.463028,980.2056885c5.0456696,25.2362061,8.098526,53.4696045,3.2202759,68.885498
			c-1.8492889,0.2869873-3.5072327,0.4624023-4.8144836,0.4624023c-7.9710236,0-12.7536316-6.3768311-12.7536316-6.3768311
			s-0.7971039-113.9855957,3.1884003-130.7247314c3.9855194-16.7391357,3.7463989-33.5979004,3.7463989-33.5979004
			s1.0362244-22.1992798,28.9347839-29.3731689c0.9645081-0.2471313,1.9130859-0.4543457,2.8297119-0.6217651
			c-2.2717285,4.017395-16.0536499,29.4768677-21.1630554,65.9841309
			C244.6514282,914.8433228,235.0862122,948.3215942,241.463028,980.2056885z"/>
		<path fill="#20437F" d="M323.5645447,1105.350708c0,0-24.7101746,11.1594238-60.5797729,5.5797119
			s-39.0579987-9.5651855-39.0579987-9.5651855s0.1833191-2.9891357,0.5420227-7.3413086
			c0.916687-11.2392578,2.9652557-31.5892334,5.8347931-33.3109131c3.9855194-2.3913574,3.9855194-0.0478516,3.9855194-0.0478516
			s1.5942078,3.2362061,8.7681122,4.0333252c7.1739197,0.7971191,17.1855164-4.0333252,17.1855164-4.0333252
			s20.2782898,14.3956299,32.2348328,17.5841064c0.9485474,0.255127,1.9289551,0.526001,2.9333191,0.8210449
			c11.6934814,3.3876953,26.6869507,9.3739014,28.153656,16.71521
			C325.1587524,1103.7564697,323.5645447,1105.350708,323.5645447,1105.350708z"/>
		<path fill="#CEE0F2" d="M323.5645447,1105.350708c0,0-24.7101746,11.1594238-60.5797729,5.5797119
			s-39.0579987-9.5651855-39.0579987-9.5651855s0.1833191-2.9891357,0.5420227-7.3413086
			c29.9232025,13.1123047,61.6319427,8.1384277,61.6319427,8.1384277
			c0.6934814-10.3703613,4.8304443-17.8948975,9.3101501-23.092041c11.6934814,3.3876953,26.6869507,9.3739014,28.153656,16.71521
			C325.1587524,1103.7564697,323.5645447,1105.350708,323.5645447,1105.350708z"/>
	</g>
	<g id="right_hand_1_">
		<path fill="#FFC763" d="M319.8847046,457.2705688c0,0,29.1871033,55.833313,44.3320312,86.9202881
			c15.1449585,31.0869751,16.7391357,53.4058228,10.3623352,63.7681885
			c-6.3768311,10.3623047-12.8903809,18.4730225-29.9597168-10.2924805
			c-17.0693054-28.765564-33.0113525-114.8525696-33.8084412-122.8235779
			C310.0137939,466.8719482,312.2193604,455.6402283,319.8847046,457.2705688"/>
		<path fill="#FFC763" d="M434.5848999,585.225647c-0.526062,0.3587036-1.0681152,0.7174072-1.618103,1.0841064
			c-12.3710327,8.2659302-28.6398926,18.7318726-39.2572632,24.0405884
			c-19.1304626,9.5651855-33.605835,9.0869751-39.9188843,0.5579834s-6.4007263-40.6602173,16.3565369-41.7283325
			c0,0,1.530426,0.1674194,4.0891418,0.2391357c6.5840454,0.21521,19.9514465-0.135498,31.429718-5.3007202
			c6.2891541-2.8297119,13.0724792-5.4123535,18.9790039-7.5007324c9.0789795-3.2043457,16.0935059-5.2529297,16.0935059-5.2529297
			l9.5652161,23.1159668C450.303772,574.4807129,443.6798401,579.1278687,434.5848999,585.225647"/>
		<path opacity="0.2" fill="#563112" d="M432.9667969,586.3096924
			c-12.3710327,8.2659302-28.6398621,18.7319336-39.2572632,24.0406494
			c-19.1304626,9.5651855-33.6058044,9.0869141-39.9189148,0.5579834
			c-6.3130188-8.5289917-6.4006958-40.6602173,16.3565674-41.7283325c0,0,1.530426,0.1674194,4.0891418,0.2391357
			c1.9289551,6.105835,4.0572205,13.614502,3.8739014,16.5319214c0,0,5.236969,13.2398682,29.1500244,4.4717407
			C415.8051758,587.2901611,424.8602905,586.2938232,432.9667969,586.3096924z"/>
		<path fill="#EB5A62" d="M450.303772,574.4807129c0,0-6.6239319,4.6470947-15.7188416,10.7449341
			c-3.2123413-3.3637695-7.548584-8.6485596-8.991333-13.9333496c-1.1239014-4.1050415-1.1876831-9.7963867-0.9485474-14.6746216
			c9.07901-3.2043457,16.0935059-5.2529297,16.0935059-5.2529297L450.303772,574.4807129z"/>
		<path fill="#F69D80" d="M512.3469849,562.7001343l0.8831177,2.1079102c0,0-15.1595459,4.8980713-16.5048828,5.7372437
			s-20.8415527,4.644165-25.7607117,5.053772s-22.7882385-1.7380981-22.7882385-1.7380981
			s-10.3795166-5.6799927-10.6389465-17.2927246c0,0,5.1408081-6.2452393,8.5342407-7.9821167
			c3.3934021-1.7368774,16.2041931-9.3479614,19.0151367-9.5820923c2.8109436-0.2340698,18.2110291-2.2435913,20.9618225-3.1998291
			c2.750824-0.9561768,3.3934326-1.7368774,3.3934326-1.7368774s1.1236572,4.99646-4.3178101,7.6310425
			c-5.4414978,2.6345825-9.5977783,3.7078247-9.5977783,3.7078247s15.7196045,10.3253174,18.5305481,10.0912476
			s17.5684204-1.4629517,21.2023621-0.3112793c3.6339722,1.1516724,5.3400879,4.6453247,5.3400879,4.6453247l-7.9152832,2.7532959
			L512.3469849,562.7001343z"/>
		<path fill="#CE7962" d="M520.5993652,559.8314819l-7.9152832,2.7532959
			c-2.8911743-0.559082-7.9730225-1.168457-13.8093872-0.217041c-9.0754395,1.4828491-22.9497681,4.8196411-30.2176819,2.5162964
			c-7.2679138-2.3034058-15.7608643-2.3233032-15.7608643-2.3233032s3.7765808-14.130249,22.6302185-17.154541
			c0,0,15.7196045,10.3253174,18.5305481,10.0912476s17.5684204-1.4629517,21.2023621-0.3112793
			C518.8932495,556.3378296,520.5993652,559.8314819,520.5993652,559.8314819z"/>
	</g>
	<g id="body_1_">
		<path fill="#EB5A62" d="M353.8544006,707.5968018c-0.7970886,17.5362549-11.9565125,27.8985596-11.9565125,27.8985596v-55.7971802
			c0,0-2.3912964,3.9855347-8.7681274,7.1739502c-6.3768005,3.1884155-14.3478394,1.5941772-14.3478394,1.5941772v55.000061
			c0,0-1.4188538,5.675354-29.6681213,6.982605c-1.6978149,0.0797119-3.4992676,0.1434937-5.4043579,0.1913452
			c-33.478302,0.7970581-76.5218048-16.7391968-76.5218048-16.7391968s1.5942078-31.8840332,3.9855042-43.8405762
			c2.3913116-11.956543,6.3768158-129.9276733,11.9565277-178.5508728
			c2.3673706-20.6210327,9.3181305-36.6507874,16.5398712-48.2804871
			c9.8123322-15.7905884,20.1268158-23.4587097,20.1268158-23.4587097l5.7232056-6.3210144l9.4217529-10.4181213
			l28.6956787,13.5507202l5.1014709,4.7985229l0.3825989,0.3587036l8.0666504,7.5964355
			c0,0,3.1884155,10.3623047,6.3768311,16.7391357c3.1884155,6.3768005,19.9275513,29.4927673,25.5072632,52.6087341
			S354.6515198,690.0605469,353.8544006,707.5968018z"/>
		<path fill="#FFC763" d="M318.7819214,688.4663086v55.000061c0,0-1.4188538,5.675354-29.6681213,6.982605
			c-1.6978149,0.0797119-3.4992676,0.1434937-5.4043579,0.1913452
			c-33.478302,0.7970581-76.5218048-16.7391968-76.5218048-16.7391968s1.5942078-31.8840332,3.9855042-43.8405762
			c2.3913116-11.956543,6.3768158-129.9276733,11.9565277-178.5508728
			c2.3673706-20.6210327,9.3181305-36.6507874,16.5398712-48.2804871
			c9.8123322-15.7905884,20.1268158-23.4587097,20.1268158-23.4587097l5.7232056-6.3210144
			c9.6608582,6.8710327,26.8463745,22.8210449,28.5521851,50.1616211
			C296.4630737,521.8720093,318.7819214,688.4663086,318.7819214,688.4663086z"/>
		<path opacity="0.4" fill="#662131" d="M353.8544006,707.5968018
			c-0.7970886,17.5362549-11.9565125,27.8985596-11.9565125,27.8985596v-55.7971802
			c0-21.5217285-7.9710388-41.4492798-10.3623352-51.8115845c-2.3912964-10.3623657-10.3623352-112.3914185-10.3623352-120.3624268
			c0-7.9710388-12.7536316-46.2319336-12.7536316-46.2319336l0.7014771-19.552948l8.0666504,7.5964355
			c0,0,3.1884155,10.3623047,6.3768311,16.7391357c3.1884155,6.3768005,19.9275513,29.4927673,25.5072632,52.6087341
			S354.6515198,690.0605469,353.8544006,707.5968018z"/>
		<path opacity="0.2" fill="#563112" d="M250.2311401,694.0460205
			c22.5739441,26.0413208,33.5579834,44.7572632,38.8826599,56.4029541
			c-1.6978149,0.0797119-3.4992676,0.1434937-5.4043579,0.1913452
			c-33.478302,0.7970581-76.5218048-16.7391968-76.5218048-16.7391968s1.5942078-31.8840332,3.9855042-43.8405762
			c2.3913116-11.956543,6.3768158-129.9276733,11.9565277-178.5508728
			c2.3673706-20.6210327,9.3181305-36.6507874,16.5398712-48.2804871
			c9.3499908,8.3217468,19.6884308,22.526123,23.3152313,45.8891907
			c7.1739197,46.2319031,37.1449585,37.1608582,40.4927979,62.0224915
			c3.3478088,24.8616333-14.1884155,31.2384644-40.4927979,39.2094727S208.7818451,646.2199097,250.2311401,694.0460205z"/>
	</g>
	<g id="left_hand_1_">
		<path fill="#CEE0F2" d="M331.3740845,653.6578979l-78.3573456-16.9954834
			c-4.7524872-1.0308228-7.2796021-5.6599121-5.6444702-10.3394165l39.9045868-114.2015991
			c1.6351013-4.6795044,6.8132935-7.6373596,11.5657654-6.6065674l78.3573608,16.9954834
			c4.7524719,1.0307617,7.2795715,5.6599121,5.6444702,10.3394165l-39.9046021,114.2015991
			C341.304718,651.730835,336.1265564,654.6886597,331.3740845,653.6578979z"/>
		
			<ellipse transform="matrix(0.8322819 -0.5543526 0.5543526 0.8322819 -248.857193 274.5738525)" fill="#FFFFFF" cx="329.3409424" cy="548.5562744" rx="4.1208496" ry="3.6389337"/>
		<path fill="#FFC763" d="M253.4195557,600.7850952c-5.6195679,9.5492554-24.2956543,16.7232056-37.6312103,10.3623047
			c-5.5876465-2.6622925-10.2347565-7.7000122-12.5862274-15.9420166
			c-7.9710083-27.8985596,0.7971039-102.8261719,5.5797272-111.5942993
			c4.782608-8.7680969,46.3115997-39.7036438,46.3115997-39.7036438s-0.8767853,17.3847961,0.7174225,29.3413391
			c1.5941925,11.9565125,0.7971039,43.8405762,0,74.1304932c-0.0717621,2.8137207-0.087677,5.4441528-0.0558167,7.9152222
			C256.0739136,579.4785156,260.6492615,588.4937744,253.4195557,600.7850952z"/>
		<path opacity="0.2" fill="#563112" d="M253.4195557,600.7850952
			c-5.6195679,9.5492554-24.2956543,16.7232056-37.6312103,10.3623047
			c11.2072601-43.649292,29.2536621-53.8681641,39.9667053-55.8529053
			C256.0739136,579.4785156,260.6492615,588.4937744,253.4195557,600.7850952z"/>
		<path fill="#FFC763" d="M323.5645447,622.3068848c0,0-3.0209961,0.9405518-8.9115906,1.793457
			c-2.2797241,0.3347778-4.9819031,0.6536255-8.114502,0.9007568c-11.1594238,0.8927002-27.6674194,0.8847656-49.1333923-2.6942139
			c-15.3123474-2.5507812-25.339859-4.8942261-31.90802-6.8551025c-11.9007263-3.5550537-12.442749-5.8587036-12.442749-5.8587036
			c0.2869415-10.3225098,12.4666901-21.5615845,25.2203217-27.1412964s22.3188629-3.9855347,35.8695831,1.5941772
			c7.6442566,3.1485596,20.8601685,5.2767944,30.9355469,6.5362549c7.7876892,0.9804077,13.702179,1.4347534,13.702179,1.4347534
			C328.3471375,596.0025024,323.5645447,622.3068848,323.5645447,622.3068848z"/>
		<path opacity="0.42" fill="#CB8029" d="M314.6529541,624.1003418c-10.4021912,1.5144653-29.7638245,2.789856-57.2478943-1.793457
			c-15.3123474-2.5507812-25.339859-4.8942261-31.90802-6.8551025c7.9152679-0.5899048,16.6434937-1.8094482,22.342804-4.3043823
			C258.9594116,606.2850952,302.1702881,609.8959961,314.6529541,624.1003418z"/>
		<path fill="#F69D80" d="M367.4051514,588.0314941c-0.4224854,0.8449097-3.5151978,10.0593872-6.6398621,18.8355103
			c-2.789856,7.8434448-5.6036072,15.3362427-6.5362549,16.1333008c-1.968811,1.697876-33.8529053-2.2876587-33.8529053-2.2876587
			l-1.2196045-13.4152222l-1.1716919-12.8891602c0,0,16.7391357-8.7681274,19.9275513-12.7536011
			c3.188385-3.9855347,4.7825928-4.7825928,4.7825928-4.7825928s21.521759-2.3913574,23.9130859-2.3913574
			c1.2434692,0,0.7652283,1.9369507,0.0159302,3.7942505c-0.6855164,1.7216797-1.6101379,3.3796997-1.6101379,3.3796997
			s0.047821,0.0717163,0.1275024,0.1992798C365.7312622,582.7705688,368.1065979,586.62854,367.4051514,588.0314941z"/>
		<path fill="#CE7962" d="M360.7652893,606.8670044c-2.789856,7.8434448-5.6036072,15.3362427-6.5362549,16.1333008
			c-1.968811,1.697876-33.8529053-2.2876587-33.8529053-2.2876587l-1.2196045-13.4152222
			c9.0391846-3.0768433,29.5326843-10.3623657,36.2920837-15.2804565
			C361.1080322,587.9039307,362.4472046,596.0662231,360.7652893,606.8670044z"/>
		<path fill="#CE7962" d="M365.013855,581.6546631c0,0,0.047821,0.0717163,0.1275024,0.1992798
			c-5.3644714,1.2036133-15.2724609,2.1920166-15.2724609,2.1920166s7.9710388-2.3912964,11.956543-3.1884155
			c1.5942078-0.3188477,3.3079834-1.3948975,4.7985535-2.5825806
			C365.9384766,579.9966431,365.013855,581.6546631,365.013855,581.6546631z"/>
		<path fill="#EB5A62" d="M323.5645447,622.3068848c0,0-3.0209961,0.9405518-8.9115906,1.793457
			c-2.2797241,0.3347778-4.9819031,0.6536255-8.114502,0.9007568c3.9775391-13.2558594,0.6695251-27.5558472-1.4587097-34.4188843
			c7.7876892,0.9804077,13.702179,1.4347534,13.702179,1.4347534
			C328.3471375,596.0025024,323.5645447,622.3068848,323.5645447,622.3068848z"/>
	</g>
	<g id="head_1_">
		<path fill="#F69D80" d="M336.7167358,368.4298401c-0.7971191,3.1884155-1.9927673,12.3551025-1.1956787,17.1376953
			c0.7971191,4.7826233,3.1884155,24.7101746-6.3768005,37.4638062l-6.3768311,8.7681274h-12.7536316l-1.5942078,11.9565125
			c0,0-2.271698,0.3507385-5.8347778-0.0159302c-4.0492859-0.4145203-9.7565308-1.7536621-15.6869812-5.5637817
			c-11.1594238-7.1739197-15.144928-11.9565125-15.144928-11.9565125v-9.5652466c0,0-5.5797119-20.7246399,3.9855042-40.6521912
			c9.5652466-19.9275513,47.8261414-60.5797729,57.789917-30.6884155
			C333.5283203,345.3139038,337.5138245,365.2414551,336.7167358,368.4298401z"/>
		<path fill="#CE7962" d="M314.5094604,431.799469h-4.4956665l-1.5942078,11.9565125c0,0-2.271698,0.3507385-5.8347778-0.0159302
			c-5.2528687-10.2746582-8.5130615-23.8971252-8.5130615-23.8971252
			C302.0427856,429.4081726,314.5094604,431.799469,314.5094604,431.799469z"/>
		<path d="M328.3471375,345.7124329c0,0-15.9420166,5.5797119-13.5507202,11.1594238s7.9710083,10.3623352-3.1884155,15.9420471
			s-15.9420471,2.3913269-15.9420471,8.7681274c0,6.3768311,0,10.3623352-2.3912964,8.7681274
			s-10.3623352-9.5652161-15.144928-8.7681274c-4.7826233,0.7971191-3.9855347,16.7391357,0,20.7246704
			c3.9855042,3.9855042,9.5652161,3.188385,9.5652161,3.188385s-7.9710083,10.3623352-11.1594238,12.7536316
			c-3.1884155,2.3913269-34.2753906,8.7681274-40.6522064-19.1304321
			c-6.3768311-27.8985901,23.9130402-32.6811829,18.3333435-49.4203491
			c-5.5797119-16.7391357,14.3478241-40.6521912,35.8695831-32.6811829
			c21.521759,7.9710388,17.5362549-6.3768005,17.5362549-9.5652161s11.1594238-14.3478394,27.8985596,12.7536316
			c16.7391663,27.1014709,4.7826233,28.6956787,7.1739197,35.8695984
			c2.3913269,7.1739197,1.5942078,14.3478394-1.5942078,17.5362549c-3.188385,3.188385-5.7496338,5.0820312-5.7496338,5.0820312
			s1.7641296-9.0675659,1.7641296-10.6617432C337.1152649,366.4371033,334.7239685,344.9153442,328.3471375,345.7124329z"/>
		<path fill="#CE7962" d="M289.2891541,397.5240784c0,0-3.9855042-7.9710388-6.3768311-9.5652161
			c-2.3912964-1.5942078-3.9855042,3.9855042-3.9855042,3.9855042S281.3181152,385.5675354,289.2891541,397.5240784z"/>
	</g>
</g>
<g id="Layer_x5F_Bubbles">
	<path fill="#EBF2FA" d="M1017.4418945,486.0024109c0,1.3231506-0.0079956,2.6463928-0.039917,3.9615784
		c-0.6217651,36.2282715-9.8361816,70.3681641-25.6905518,100.4588013c-1.1238403,2.144165-2.2877197,4.2724609-3.4912109,6.3768311
		c-0.1514893,0.2709351-0.3030396,0.5339966-0.4544067,0.7970581c-1.5463257,2.6942139-3.1484985,5.3485107-4.8065796,7.9710083
		c-0.1593628,0.2630615-0.3267212,0.5340576-0.5021362,0.7971191
		c-28.2014771,44.2869873-71.5079956,78.0203857-122.6740723,93.930481
		c-21.0753174,6.5601807-43.4898071,10.0913696-66.7253418,10.0913696c-24.2797852,0-47.6587524-3.8580322-69.5551758-10.9841309
		c-89.87323-29.2775269-154.8291016-113.7543945-154.8291016-213.400116
		c0-123.9254761,100.4588013-224.3842468,224.3842773-224.3842468c120.5776367,0,218.947937,95.1102295,224.1610107,214.4045105
		C1017.3700562,479.330658,1017.4418945,482.6545715,1017.4418945,486.0024109z"/>
</g>
<g id="Layer_x5F_Plant_3">
	<g>
		<path fill="#20437F" d="M659.7489624,626.4211426c18.5594482,16.744751,51.9116211,27.3694458,64.8571777,42.6063843
			c12.9456177,15.2369385,33.1809082,38.5635986,33.1809082,38.5635986s29.2131958,1.3051758,41.0368652-14.1359863
			c2.9986572-3.9106445,4.8793335-8.899353,4.8866577-15.2598267c0,0-11.2261353-51.5882568,0.5240479-63.6184082
			c11.7501221-12.0301514,36.5993652-84.897583,8.4330444-115.5195618
			c-28.1663818-30.6219788-57.651123-37.7596436-62.4536743-60.3674011
			c-4.8025513-22.6078186-4.9075317-31.5253906-33.413147-46.4042664
			c-28.5056152-14.8788452-33.7802734-32.1297607-34.4695435-46.111969
			c-0.68927-13.9822388-8.2147827-73.8771667-39.1355591-100.7942505s-27.8863525-6.8416901-19.7872925,12.6494141
			c1.7440186,4.2010498,3.9874268,10.5594788,6.3500977,18.1388855
			c8.5787964,27.5649109,18.6993408,71.2511902,12.0127563,85.8728943
			c-8.5245361,18.6375427-42.0652466,81.1145935-26.7125854,122.5550537
			c15.3527222,41.4404907,26.432373,46.7312622,21.3946533,64.4533691S641.1894531,609.6763916,659.7489624,626.4211426z"/>
		<path opacity="0.4" d="M659.7489624,626.4211426c18.5594482,16.744751,51.9116211,27.3694458,64.8571777,42.6063843
			c12.9456177,15.2369385,33.1809082,38.5635986,33.1809082,38.5635986s29.2131958,1.3051758,41.0368652-14.1359863
			c-6.0437622-13.9628906-16.9591675-29.9564819-36.6652832-43.2321167
			c-46.1846313-31.109314-34.2783203-59.5799561-22.8862305-87.170105
			c11.3920288-27.5901489-29.3673096,15.9100342-19.9111328-27.5713501s-34.3052368-76.7177734-47.5820312-90.3768921
			c-13.2767334-13.6591187-5.8964844-84.9218445-18.4247437-124.1221619
			c-7.8491821-24.5585632-17.4907227-38.1135559-23.5959473-44.8147583
			c8.5787964,27.5649109,18.6993408,71.2511902,12.0127563,85.8728943
			c-8.5245361,18.6375427-42.0652466,81.1145935-26.7125854,122.5550537
			c15.3527222,41.4404907,26.432373,46.7312622,21.3946533,64.4533691S641.1894531,609.6763916,659.7489624,626.4211426z"/>
		<path fill="#20437F" d="M771.3131714,685.0910645c0,0-44.0844727-45.8239136-101.9223633-41.8201904
			s-47.4286499,26.6154785-64.6795654,31.8900757c-17.2509766,5.2746582-17.9295044,36.7608643-17.9295044,36.7608643
			s73.9907837-24.644104,94.611145-12.9130249S771.3131714,685.0910645,771.3131714,685.0910645z"/>
		<path fill="#20437F" d="M848.755249,667.7406006c0,0,33.177124-4.2379761,42.2159424-23.7560425
			c9.0387573-19.5180054,41.9709473-44.5637207,66.2573853-31.5588379
			c24.286438,13.0048218,22.3343506,25.4442139,40.8319092,22.0786133
			c18.4976196-3.3656616,38.5999146,10.7377319,49.1571655,31.0743408
			c10.557373,20.3365479,12.6413574,33.9525757,23.3898926,40.821167s20.8265381,31.0581665,8.7883301,33.4733276
			s-35.2449951-37.7086792-65.8858032-40.845459c-30.6407471-3.1367798-38.2767334,1.8497314-46.8551025-13.7883911
			c-8.5783081-15.6381226-20.9046021-22.8378906-50.3068848-9.9003906S848.755249,667.7406006,848.755249,667.7406006z"/>
	</g>
</g>
<g id="Layer_x5F_Plant_2">
	<g>
		<path fill="#FFC763" d="M765.5647583,597.894043c18.4382935,36.1577759,30.2610474,89.7064819,30.2610474,89.7064819
			l19.6578369-10.2747803l3.2850952-1.7122803c0,0,61.2601318-84.6633301,44.3807983-151.7930298
			c-16.8792725-67.1297607,11.5106201-106.6369629,3.7858276-138.8986511s-59.3671265-81.3193054-59.7871094-116.9897156
			c-0.4200439-35.6703949-23.2067871-40.1238403-32.883606-59.9461212
			c-9.4331055-19.3197479-38.2330933-74.6429138-48.1173096-64.8470001
			c-0.2541504,0.2530823-0.4973145,0.5480042-0.7275391,0.8917236c-9.1087646,13.572937,10.0457153,80.850769-3.8746338,101.6504059
			c-13.9202881,20.7996674-32.1028442,50.9180756-13.8476562,86.3784943s57.0838623,95.3365173,38.152771,150.9961243
			C726.9191284,538.715271,747.1264648,561.7362671,765.5647583,597.894043z"/>
		<path opacity="0.2" fill="#563112" d="M765.5647583,597.894043
			c18.4382935,36.1577759,30.2610474,89.7064819,30.2610474,89.7064819l19.6578369-10.2747803
			c11.180481-24.7616577,36.921875-89.887146,22.3347168-136.4186401
			c-18.3521118-58.543335-26.8092651-93.5944519-15.3822021-118.2120972s11.9924927-50.8561707-8.9471436-76.6665955
			c-20.9396362-25.8104553-39.5690918-48.5002747-41.1307373-77.1620789s-6.9143677-37.6924744-16.5212402-51.5696869
			c-7.1820068-10.3767242-18.0581055-52.2843475-29.6896973-74.1576996
			c-0.2541504,0.2530823-0.4973145,0.5480042-0.7275391,0.8917236c-9.1087646,13.572937,10.0457153,80.850769-3.8746338,101.6504059
			c-13.9202881,20.7996674-32.1028442,50.9180756-13.8476562,86.3784943s57.0838623,95.3365173,38.152771,150.9961243
			C726.9191284,538.715271,747.1264648,561.7362671,765.5647583,597.894043z"/>
		<path fill="#FFC763" d="M827.8344116,673.2332764c0,0,0.5891724,0.2850952,1.6619263,0.7936401
			c13.5004883,6.3622437,104.3262329,47.994812,94.6627197,11.1881104
			c-10.4361572-39.7495728,57.0247803-58.206665,71.4243774-82.859314
			c9.9973755-17.1159668,31.9572144-28.3901978,47.6508179-34.769165c6.909668-2.8129883,12.6010742-4.6724854,15.5290527-5.6723022
			c9.5799561-3.2606201,1.9870605-9.4668579-20.50354-18.4706421c-22.4904785-9.0037842-52.7301025-7.7733154-69.3617554,5.5384521
			c-16.6317139,13.3117676-16.7366943,4.394165-32.0786133,8.4221191
			c-15.34198,4.0280151-24.7550049,36.3165894-48.6134033,44.8168335
			C864.3476562,610.7212524,827.8344116,673.2332764,827.8344116,673.2332764z"/>
		<path opacity="0.2" fill="#563112" d="M829.4963379,674.0269165
			c13.5004883,6.3622437,104.3262329,47.994812,94.6627197,11.1881104
			c-10.4361572-39.7495728,57.0247803-58.206665,71.4243774-82.859314
			c9.9973755-17.1159668,31.9572144-28.3901978,47.6508179-34.769165
			c-12.0068359-3.541626-29.1395874-7.2431641-42.343811-4.6411133
			c-22.6817627,4.4641724-43.0183105,15.0214844-57.487915,33.7290649
			c-14.4696045,18.7075195-45.1884766,23.7910156-70.7727051,34.2352295
			C856.9694214,637.3023071,840.1702881,658.5223389,829.4963379,674.0269165z"/>
	</g>
</g>
<g id="Layer_x5F_Plant_1">
	<g>
		<path fill="#EB5A62" d="M812.8505249,692.8212891c0,0,5.2272339,0.0066528,12.3279419-0.6872559
			c15.6495361-1.5220947,40.4052734-6.4338989,38.2913818-22.2932739c0,0-16.6505127-17.991394,7.1378784-32.4367065
			c23.7883301-14.4453125,52.4932251-27.199707,48.6914673-53.0370483
			c-3.8018188-25.8373413,8.5756836-43.9956665,19.4803467-53.5675049
			c10.9047241-9.5718994,19.9785156-26.1173706,14.4157715-52.9832764
			c-5.5626831-26.8659058-12.302063-49.6957092-1.6154175-62.9374695
			c10.6865845-13.2417908,14.0333862-26.0473633,12.7948608-42.1216736
			c-1.2385864-16.0742798-4.8653564-27.0489807,9.1599731-38.9310303c3.8474121-3.2613525,3.5875854-5.2728577,1.026001-5.8302917
			c-6.7870483-1.4904785-29.7655029,7.1812439-35.7190552,29.8474731
			c-8.2014771,31.2250671-7.9914551,49.0602722-24.5800171,51.1792603s-68.2202148-1.4701538-75.0969238,23.4436646
			s3.680603,45.2503662-9.9785156,58.5271301s-53.0856323,36.300415-39.9381104,83.5378418
			c13.1474609,47.2374878,16.085022,44.2299194,8.4059448,60.4092407S812.8505249,692.8212891,812.8505249,692.8212891z"/>
		<path opacity="0.4" fill="#662131" d="M812.8505249,692.8212891c0,0,5.2272339,0.0066528,12.3279419-0.6872559
			c0.4916382-1.7615967,0.8013306-3.6766968,0.8869629-5.7639771c0.8185425-19.5961304,33.7587891-58.8071289,46.5024414-75.5706787
			c12.7437134-16.7636108,26.637085-54.7011108,22.2160034-88.5756226
			c-4.4210205-33.8744812,13.9096069-66.2680664,31.3867188-82.0381165
			c17.4771118-15.7700195,10.3635254-25.8292542,19.8196411-69.3106384
			c5.1228638-23.5588074,17.914917-36.2203369,28.5704956-42.8792419
			c-6.7870483-1.4904785-29.7655029,7.1812439-35.7190552,29.8474731
			c-8.2014771,31.2250671-7.9914551,49.0602722-24.5800171,51.1792603s-68.2202148-1.4701538-75.0969238,23.4436646
			s3.680603,45.2503662-9.9785156,58.5271301s-53.0856323,36.300415-39.9381104,83.5378418
			c13.1474609,47.2374878,16.085022,44.2299194,8.4059448,60.4092407S812.8505249,692.8212891,812.8505249,692.8212891z"/>
	</g>
</g>
<g id="Layer_x5F_Chart_2">
	<g>
		<path fill="#CEE0F2" d="M698.3164062,439.4620056H393.2896118c-9.0973816,0-16.4722595-7.3748779-16.4722595-16.4722595
			V274.9920654c0-9.0973511,7.3748779-16.472229,16.4722595-16.472229h305.0267944
			c9.0973511,0,16.472229,7.3748779,16.472229,16.472229v147.9976807
			C714.7886353,432.0871277,707.4137573,439.4620056,698.3164062,439.4620056z"/>
		<polygon fill="#FFFFFF" points="674.1364136,419.9329834 408.302887,419.9329834 408.302887,287.2155151 412.2884216,287.2155151 
			412.2884216,415.9474792 674.1364136,415.9474792 		"/>
		<path fill="#FFC763" d="M639.8610229,340.6213379c-9.5817871,9.5818176-12.7536011,47.0290222-18.333313,50.2174377
			s-6.3768311-7.9710388-12.7536621-16.7391357c-6.37677-8.7681274-16.7391357-0.7971191-20.7246094,7.9710083
			c-3.9855347,8.7681274-6.3768311,8.7681274-9.5652466,5.5797119s-9.5652466-90.8696289-32.6812134-90.8696289
			c-23.1159058,0-27.8985596,78.1159973-32.6811523,90.8696289c-4.7826233,12.7536316-11.956543-8.7681274-19.9275513-9.5652161
			c-7.9710388-0.7971191-9.5652466,8.7681274-20.7246704,12.7536316s-17.5362244-46.2319336-27.8985596-48.62323
			s-17.5362549,19.1304626-21.521759,43.0435181s-9.5652161,29.4927673-9.5652161,29.4927673h250.2900391
			c0,0,1.5941772-60.5797424-3.1884155-70.144989C655.8031006,335.041626,644.6436768,335.8387146,639.8610229,340.6213379z"/>
		<rect x="468.4841003" y="330.2590027" fill="#FFFFFF" width="25.507267" height="7.9710207"/>
		<rect x="592.0349121" y="276.0560608" fill="#FFFFFF" width="43.0435104" height="11.1594286"/>
		<rect x="663.7741089" y="327.8677063" fill="#FFFFFF" width="29.4927769" height="10.3623266"/>
		<polygon fill="#FFFFFF" points="551.78125,306.3459473 550.9841919,306.3459473 550.9841919,281.2372437 592.0349121,281.2372437 
			592.0349121,282.0343323 551.78125,282.0343323 		"/>
		<polygon fill="#FFFFFF" points="443.3753967,352.5778809 442.5782776,352.5778809 442.5782776,333.8459778 
			468.4841003,333.8459778 468.4841003,334.6430664 443.3753967,334.6430664 		"/>
		<polygon fill="#FFFFFF" points="678.9190674,370.5126648 649.4262695,370.5126648 649.4262695,369.7155762 
			678.1219482,369.7155762 678.1219482,338.2300415 678.9190674,338.2300415 		"/>
	</g>
</g>
<g id="Layer_x5F_Character_1">
	<g id="lower_part">
		<path d="M859.78302,700.2952881c-21.0753174,6.5601807-43.4898071,10.0913696-66.7253418,10.0913696
			c-24.2797852,0-47.6587524-3.8580322-69.5551758-10.9841309c0.9963989-10.9760132,3.0210571-32.4021606,4.1928101-38.8347778
			c0.6934204-3.8021851,1.3869019-10.3145142,1.9448853-16.4522095c0.3029175-3.315918,0.565979-6.5202637,0.7731934-9.1427002
			c0.2949829-3.7304688,0.4702759-6.2891846,0.4702759-6.2891846l30.1384277-5.7949219l32.0355835-6.1615601l53.8840332-10.3623657
			l8.289917-1.5941772l0.0797119,1.5941772l0.7174072,15.1210327l0.4144897,8.6884155L859.78302,700.2952881z"/>
		<path fill="#1F184B" d="M856.4432373,630.1742554c-46.8377075,20.5811768-100.4906616,17.3449707-126.8030396,13.9412842
			c0.7333374-8.0267944,1.2434692-15.4318848,1.2434692-15.4318848l124.3479614-23.9130249L856.4432373,630.1742554z"/>
	</g>
	<g id="hair">
		<path d="M863.9997559,489.1908264c-3.706543,27.7789612-40.8833618,38.3485413-67.4587402,36.8818665
			c-7.7319336-0.4224243-14.5710449-1.8572388-19.425415-4.2006836c-4.2724609-2.0565186-8.640564-3.1087036-13.0645142-3.7225342
			c-17.8311768-2.4789429-36.4833374,2.1761475-53.0949707-23.3789368
			c-20.7246094-31.8840942-0.7970581-50.2174377,14.3478394-66.1594849c15.1449585-15.9420471,0-33.4782715-11.9564819-51.8116455
			c-11.956543-18.3333435,21.5217285-31.0869751,24.710144-47.8261108s8.7681274-19.1304626,15.1449585-22.3188477
			c6.37677-3.1884155,23.9130249-4.7826233,23.9130249-4.7826233c10.8485718-1.8094482,13.9492798,6.8710022,19.6486206,12.5862122
			c1.833313,1.8413086,3.9376831,3.3797302,6.6557617,4.1529236c11.1594238,3.1884155,19.9275513,22.3188782,19.9275513,32.6811829
			c0,10.3623352,3.1884155,31.0870056,15.9420166,42.2464294
			C852.0432129,404.697998,868.7823486,453.321228,863.9997559,489.1908264z"/>
		<path d="M883.130188,463.6835327c-3.1884155,5.5797424-7.1738892,40.6522217-45.4348145,26.3043823
			c-3.1565552-1.1876831-6.0819092-2.6463928-8.776123-4.3282471
			c-29.9550781-18.7160034-32.2108765-65.5377808-27.0934448-80.1645813
			c5.5797119-15.9420471,1.5941772-19.1304321-2.3913574-23.1159363c-2.4869385-2.486969-4.9579468-5.5797424-5.1253052-9.6848145
			c-0.1116333-2.486969,0.6296387-5.3406067,2.7340088-8.6485596c5.5797119-8.7680969-1.5941772-23.1159363-7.9710083-27.1014709
			c-6.3768311-3.9855042-12.7536011-10.3623047-11.956543-15.144928c0.7971191-4.7826233-5.3884277-9.6927795-8.2739258-10.0275574
			c0,0,5.8826294-11.4942017,17.8391724-12.2912903c11.956543-0.7971191,31.0869751,19.9275513,39.0579834,19.9275513
			s33.4782715,6.3768005,26.3043823,35.0724792c-7.1739502,28.6956787,4.7825928,49.4203186,15.1449585,59.7826538
			c10.3623047,10.3623352,8.7681274,13.5507507,7.1738892,21.521759
			C872.7678833,443.7559814,886.3186035,458.1038208,883.130188,463.6835327z"/>
	</g>
	<g id="right_hand">
		<path fill="#FFC763" d="M847.8026123,466.4813843l2.6464233-25.9137878c0,0,29.4927368,8.7681274,35.8695679,51.0145264
			s14.3478394,78.1159973,9.5652466,89.2754211c-0.4464111,1.0282593-0.956543,2.0166626-1.5304565,2.9333496
			c-5.6195679,8.9992676-17.2572632,11.5181274-29.5565796-10.9043579
			c-13.5507202-24.710144-18.333313-93.2609558-18.333313-93.2609558L847.8026123,466.4813843"/>
		<path opacity="0.2" fill="#563112" d="M894.3534546,583.7908936
			c-5.6196289,8.9992676-17.2573853,11.5181274-29.5566406-10.9043579
			c-13.5507202-24.710144-18.333313-93.2609558-18.333313-93.2609558l1.3391113-13.1441956
			c4.8543701,30.1702881,12.1477661,68.008728,20.1826172,84.0863037
			C877.3352661,569.2597046,888.0324097,579.159729,894.3534546,583.7908936z"/>
		<path fill="#FFC763" d="M955.4273071,588.5894775l-30.6804199,6.7593994c0,0-4.8225098,0.8209839-11.5181274,1.4028931
			c-10.5615845,0.916626-25.7863159,1.2514648-34.0841064-3.140564
			c-13.5507202-7.1739502-15.9420166-23.1159668-5.3644409-32.7449951c0.0159302-0.0159302,0.039856-0.0318604,0.0558472-0.0477905
			c10.569458-9.5652466,22.7412109-2.5826416,22.7412109-2.5826416s8.074707,6.6797485,20.8283081,14.6507568
			C930.1592407,580.8575439,955.4273071,588.5894775,955.4273071,588.5894775z"/>
		<path opacity="0.2" fill="#563112" d="M913.2287598,596.75177c-10.5615845,0.916626-25.7863159,1.2514648-34.0841064-3.140564
			c-13.5507202-7.1739502-15.9420166-23.1159668-5.3644409-32.7449951c0.0159302-0.0159302,0.039856-0.0318604,0.0558472-0.0477905
			C878.7780151,568.2633667,892.9903564,587.4814453,913.2287598,596.75177z"/>
		<path fill="#F69D80" d="M922.1881714,590.4227905c0,0,6.3768311-5.5797119,9.5652466-5.5797119s15.1449585-0.7971191,18.333374,0
			c3.1883545,0.7970581,11.1594238,9.5651855,11.1594238,9.5651855s-4.7826538,3.1884155-8.7681274,2.3913574
			c-3.9855347-0.7971191-19.1304932,0.7970581-23.9130859,0
			C923.7824097,596.0025024,920.5939941,592.0169678,922.1881714,590.4227905z"/>
	</g>
	<g id="body">
		<path fill="#EB5A62" d="M860.0142212,616.7271729c-0.7971191,4.7825928-13.5507202,12.7536011-55.000061,19.1304321
			c-16.6115723,2.5586548-32.7130127,2.9333496-46.2000122,2.319519
			c-20.1586914-0.9246216-34.4666748-4.0731812-35.9014893-5.5079346
			c-2.3912964-2.3912964,0.7971191-31.0869751,1.5942383-51.8116455
			c0.7492676-19.505127-11.916687-83.5123901-10.7449341-106.2457581c0.0717163-1.4188232,0.1992798-2.6782532,0.3825684-3.7543335
			c3.1884155-18.3333435,22.3189087-23.9130554,51.0145264-36.666687
			c28.6956787-12.7536316,51.0145874-5.5797119,51.0145874-5.5797119s27.1014404,7.9710083,34.2753906,11.956543
			c7.1738892,3.9855042,7.9710083,50.2174072,5.5797119,74.9275818
			C853.6373901,540.2053223,860.8113403,611.944519,860.0142212,616.7271729z"/>
		<path opacity="0.4" fill="#662131" d="M765.1590576,588.0314941c-1.5702515,17.2651978-4.5115356,37.9579468-6.3449097,50.1456299
			c-20.1586914-0.9246216-34.4666748-4.0731812-35.9014893-5.5079346
			c-2.3912964-2.3912964,0.7971191-31.0869751,1.5942383-51.8116455
			c0.7492676-19.505127-11.916687-83.5123901-10.7449341-106.2457581
			c4.5513916,20.0152588,12.4268188,47.8340759,22.7014771,57.6225281
			C753.2025757,548.1763916,767.550415,561.7271118,765.1590576,588.0314941z"/>
	</g>
	<g id="left_hand">
		<path fill="#FFC763" d="M734.0720825,501.944458c0,0-10.3304443,24.885498-20.5413208,49.7949219
			c-3.0927734,7.5405884-6.1695557,15.0891724-8.951416,21.9442749
			c-11.956543,29.4927368-21.5217896,36.666687-32.6812134,36.666687c-2.7180786,0-5.2529297-0.7094727-7.4290161-2.1681519
			c-6.767334-4.5115967-10.1470947-16.1971436-5.324585-36.0927734c6.37677-26.3043823,27.8985596-66.1594543,40.6521606-90.8696289
			C712.550354,456.509613,731.625,449.5349731,731.625,449.5349731
			C753.0909424,463.2770081,734.0720825,501.944458,734.0720825,501.944458z"/>
		<path opacity="0.2" fill="#563112" d="M713.5307617,551.7393799c-3.0927734,7.5405884-6.1695557,15.0891724-8.951416,21.9442749
			c-11.956543,29.4927368-21.5217896,36.666687-32.6812134,36.666687c-2.7180786,0-5.2529297-0.7094727-7.4290161-2.1681519
			C674.7119141,568.9249268,703.2003784,555.4299927,713.5307617,551.7393799z"/>
		<path fill="#FFC763" d="M793.0576782,588.0314941c0,0-34.2753906,9.5651855-57.3913574,4.7825928
			s-34.2293701-11.7692261-34.2293701-11.7692261s-5.6257324-4.9699097-16.7851562-0.1873169
			s-25.4000854,12.7889404-26.2507935,18.7495728c-0.850708,5.9605713,14.2942505,21.9026489,42.1928101,23.4968262
			c27.8985596,1.5942383,70.1449585,7.1739502,102.0290527-19.1304321
			C802.6228638,603.9735107,793.8547363,592.8140869,793.0576782,588.0314941z"/>
		<path fill="#F69D80" d="M856.8258057,583.2488403c0,1.5942383-9.5651855,0-11.1594238,0
			c-1.5941772,0-12.7536011,3.1884155-15.1448975,4.7826538c-2.1602173,1.4347534-17.281189,11.9485474-21.3942871,14.5869141
			c-0.4463501,0.2869873-0.7651978,0.4782715-0.9246216,0.5579834c-1.5941772,0.7971191-10.3623047,1.5942383-10.3623047,1.5942383
			s-7.1738892-7.1739502-6.3768311-15.1449585c0,0,14.5949707-18.0703125,17.8231812-20.4695435
			c0.2312012-0.1674194,0.4065552-0.255127,0.5101929-0.255127c1.5941772,0,19.9275513-1.5941772,20.7246704,0
			c0.0956421,0.1913452,0.1912842,0.3587036,0.2789307,0.5021973c0.6934814,1.092041,1.3152466,1.092041,1.3152466,1.092041
			s1.6898804,0.2630005,3.8101807,0.6217041c3.1246338,0.5341187,7.1978149,1.2913208,8.1463623,1.7695923
			c0.1594238,0.0797119,0.3108521,0.1594238,0.4383545,0.2470703c1.1558228,0.7014771,1.1558228,1.3471069,1.1558228,1.3471069
			s0.2471313,0.0717163,0.6376953,0.1913452h0.0079956c1.5144653,0.4383545,5.2687378,1.5702515,6.5282593,2.2000122
			c0.390564,0.1992188,0.6934814,0.4463501,0.916687,0.701416c0,0,0,0,0.0078735,0
			c0.6696167,0.7891235,0.6696167,1.6898804,0.6696167,1.6898804s0.4862061,0.4862061,1.0123291,1.1636963
			C856.1005249,581.2561035,856.8258057,582.3720093,856.8258057,583.2488403z"/>
		<path fill="#CE7962" d="M809.1271973,602.6184082c-0.4463501,0.2869873-0.7651978,0.4782715-0.9246216,0.5579834
			c-1.5941772,0.7971191-10.3623047,1.5942383-10.3623047,1.5942383s-7.1738892-7.1739502-6.3768311-15.1449585
			c0,0,14.5949707-18.0703125,17.8231812-20.4695435c-0.0637207,5.4441528,0.175415,11.5021362,1.307312,14.8898315
			C812.1801147,588.7966309,815.1612549,595.2930298,809.1271973,602.6184082z"/>
		<path fill="#CE7962" d="M855.4468384,580.427063c-2.1680908-0.6296997-4.7825928-1.1636963-7.3891602-1.1636963
			c-6.0579224,0-14.276062,1.442749-15.0811157,1.5861816c0.916626-0.1992798,11.9884033-2.5267944,20.7804565-3.276062
			c0,0,0,0,0.0078735,0c0.6696167,0.7891235,0.6696167,1.6898804,0.6696167,1.6898804
			S854.9207153,579.7495728,855.4468384,580.427063z"/>
		<path fill="#CE7962" d="M846.3040771,574.6720581c-3.8181152,0.1912842-14.1246338,1.3948975-17.3768311,2.2000122
			c0.4623413-0.1594849,11.0956421-2.614563,15.583313-3.7384644c1.1558228,0.7014771,1.1558228,1.3471069,1.1558228,1.3471069
			S845.9135132,574.5524292,846.3040771,574.6720581z"/>
		<path fill="#CE7962" d="M835.9258423,571.1169434c-2.9971313,0.2789917-6.065979,0.6297607-7.7957153,0.9724731
			c-3.2362061,0.6456909-3.842041,0.7651978-3.9615479,0.7891235c0.2949219-0.1832886,3.1484985-1.8652344,6.6318359-3.4753418
			c0.6934814,1.092041,1.3152466,1.092041,1.3152466,1.092041S833.805542,570.7582397,835.9258423,571.1169434z"/>
	</g>
	<g id="head">
		<path fill="#F69D80" d="M812.9772339,468.2030945c-0.7731934,17.4884338-8.3934326,19.1942444-19.9195557,9.8282776
			c-6.5123291-5.2927551-11.9884033-14.3239441-15.7826538-21.8963928
			c-3.6427612-7.2615967-5.7391357-13.1760864-5.7391357-13.1760864v-30.2898865c0,0-6.3768311-1.5942078-7.9710083-1.5942078
			c-0.2630615,0-0.7094116-0.5499878-1.2992554-1.5144958c-3.0130615-4.9181213-9.5811768-20.5094299-12.2514648-27.1811523
			c-3.1884155-7.9710388-2.3912964-18.333374-1.5942383-21.521759c0.7971191-3.1884155,0.7971191-16.7391663,1.5942383-25.5072632
			c0.7970581-8.7681274,15.9420166-21.521759,15.9420166-21.521759c0.9406128-0.8449402,1.8970947-1.5304871,2.885498-2.0565491
			c2.885498,0.3347778,9.0710449,5.2449341,8.2739258,10.0275574c-0.7970581,4.7826233,5.5797119,11.1594238,11.956543,15.144928
			c6.3768311,3.9855347,13.5507202,18.333374,7.9710083,27.1014709c-5.5797119,8.7681274-1.5941772,14.3478394,2.3912964,18.333374
			c1.4667358,1.4666138,4.017395,3.5869446,6.3768311,6.4724426v39.7594604c0,0.5021667,0.1594238,1.1079712,0.4304199,1.8572083
			c1.1717529,3.2442322,4.4558105,9.2464294,6.0021973,21.8246765c0.350769,2.9014587,0.6137695,6.153656,0.741333,9.7964172
			C813.0648804,464.3052673,813.0569458,466.3458557,812.9772339,468.2030945z"/>
		<path fill="#CE7962" d="M799.4265137,393.5544739c-0.215271,0.7254028-7.2536011,23.9927979-12.7456665,30.2739563
			c-2.7180786,3.1007385-9.1985474,4.3123169-15.1449585,4.7427673v-15.9021912c0,0-6.3768311-1.5942078-7.9710083-1.5942078
			c-0.2630615,0-0.7094116-0.5499878-1.2992554-1.5144958c6.0180664-1.6260681,20.5651855-5.7311707,26.8065186-8.8478088
			C796.7322998,396.8864136,799.2351685,393.785675,799.4265137,393.5544739z"/>
		<path fill="#CEE0F2" d="M793.0576782,478.0313721c-6.5123291-5.2927551-11.9884033-14.3239441-15.7826538-21.8963928
			c8.6326294,2.2876587,22.7014771,3.9855042,34.9688721-3.842041c0.350769,2.9014587,0.6137695,6.153656,0.741333,9.7964172
			C813.7822876,485.2052917,805.8112793,488.3937073,793.0576782,478.0313721z"/>
	</g>
</g>
<g id="Layer_x5F_Table">
	<g>
		<path fill="#CEE0F2" d="M987.7658081,597.5966797c-1.5463257,2.6942139-3.1484985,5.3485107-4.8065796,7.9710083h-206.640686
			v-7.9710083H987.7658081z"/>
		<path fill="#EBF2FA" d="M982.4570923,606.3648071c-28.2014771,44.2869873-71.5079956,78.0203857-122.6740723,93.930481
			c-21.0753174,6.5601807-43.4898071,10.0913696-66.7253418,10.0913696V606.3648071H982.4570923z"/>
	</g>
</g>
<g id="Layer_x5F_Laptop">
	<g>
		<path fill="#EBF2FA" d="M1017.4418945,486.0024109c0,1.3231506-0.0079956,2.6463928-0.039917,3.9615784
			c-0.6217651,36.2282715-9.8361816,70.3681641-25.6905518,100.4588013H862.4055176V482.8458557
			c0-2.2478333,0.9245605-4.280426,2.4232178-5.7311707c1.442749-1.4108887,3.4036865-2.271698,5.5797119-2.271698h142.6174927
			c1.5384521,0,2.9731445,0.4304199,4.192749,1.1796875C1017.3700562,479.330658,1017.4418945,482.6545715,1017.4418945,486.0024109
			z"/>
		<path fill="#CEE0F2" d="M1017.4019775,489.9639893c-0.6217651,36.2282715-9.8361816,70.3681641-25.6905518,100.4588013
			H862.4055176v-16.675415c0.6934814-0.4702759,1.4029541-0.9246216,2.1282349-1.3550415
			c1.0442505-0.6297607,2.1283569-1.2196045,3.2362671-1.7695923c3.1246948-1.5623169,6.4884033-2.8297119,10.0435791-3.8340454
			c0.0715942-0.0239258,0.1513672-0.0478516,0.2230835-0.0637817c5.930481-1.6659546,12.3710327-2.5985107,19.03479-2.9094238
			c2.2080078-0.1115723,4.4399414-0.1434326,6.6877441-0.1115723c27.7949219,0.3825684,52.7043457-13.9333496,75.0232544-48.2087402
			C989.8143921,498.5567627,1004.9354248,492.1321106,1017.4019775,489.9639893z"/>
		<path fill="#FFFFFF" d="M1013.0259399,478.8284912c0.1053467,0,0.2103271,0.0040283,0.3146362,0.0120239
			c0.0769653,2.3485107,0.1157837,4.7473145,0.1157837,7.1618958c0,1.5695801-0.0119629,2.7615662-0.0393066,3.8931885
			c-0.2997437,17.467926-2.6569214,34.8283386-7.0059814,51.5989685
			c-4.0285034,15.5341187-9.7838135,30.6413574-17.1194458,44.942688H866.3910522V482.8458557
			c0-1.0939941,0.4295654-2.1123962,1.2242432-2.8817139c0.7488403-0.7323608,1.7408447-1.1356506,2.7931519-1.1356506H1013.0259399
			 M1013.0259399,474.8429871H870.4084473c-2.1760254,0-4.1369629,0.8608093-5.5797119,2.271698
			c-1.4986572,1.4507751-2.4232178,3.4833374-2.4232178,5.7311707v107.5769348h129.3059082
			c15.8543701-30.0906372,25.0687866-64.2304688,25.6905518-100.4588013c0.0319214-1.3151855,0.039917-2.6384277,0.039917-3.9615784
			c0-3.3478394-0.0718384-6.6717529-0.2232056-9.9797668
			C1015.9990845,475.273407,1014.5643921,474.8429871,1013.0259399,474.8429871L1013.0259399,474.8429871z"/>
		<path fill="#1F184B" d="M991.7114258,590.4227905c-1.1238403,2.144165-2.2877197,4.2724609-3.4912109,6.3768311H842.4779663
			v-6.3768311H991.7114258z"/>
		<circle fill="#FFFFFF" cx="947.6954346" cy="521.0748901" r="5.5797143"/>
	</g>
</g>
<g id="Layer_x5F_Chart_1">
	<g>
		<path fill="#EB5A62" d="M589.1099243,831.147583H387.22229c-7.8630981,0-14.2374268-6.3742676-14.2374268-14.2374268V681.979126
			c0-7.8631592,6.3743286-14.2374268,14.2374268-14.2374268h201.8876343c7.8630981,0,14.2374268,6.3742676,14.2374268,14.2374268
			v134.9310303C603.3473511,824.7733154,596.9730225,831.147583,589.1099243,831.147583z"/>
		<polygon fill="#FFFFFF" points="586.6082153,809.6258545 390.5211182,809.6258545 390.5211182,697.234436 392.1153259,697.234436 
			392.1153259,808.0316162 586.6082153,808.0316162 		"/>
		<g>
			<rect x="411.2457581" y="717.1619873" fill="#FFFFFF" width="16.7391434" height="91.6667404"/>
			<rect x="449.5066528" y="749.4445801" fill="#FFFFFF" width="16.7391434" height="59.3841515"/>
			<rect x="526.0284424" y="725.1924438" fill="#FFFFFF" width="16.7391434" height="83.6363144"/>
			<rect x="487.7675781" y="769.1234131" fill="#FFFFFF" width="16.7391434" height="39.705307"/>
			<rect x="564.2893677" y="779.1367188" fill="#FFFFFF" width="16.7391434" height="29.6920528"/>
		</g>
	</g>
</g>
<g id="Layer_x5F_Pie_2">
	<g>
		<path fill="#FFC763" d="M828.9272461,843.104126c0,1.8731689-0.0477905,3.7304688-0.1514282,5.5797119
			c-2.8934937,52.4333496-46.3275757,94.0580444-99.4863281,94.0580444c-55.0319214,0-99.6377563-44.605835-99.6377563-99.6377563
			s44.605835-99.6377563,99.6377563-99.6377563S828.9272461,788.0722046,828.9272461,843.104126z"/>
		<path fill="#EB5A62" d="M828.9272461,843.104126c0,1.8731689-0.0477905,3.7304688-0.1514282,5.5797119h-99.4863281V743.4663696
			C784.3214111,743.4663696,828.9272461,788.0722046,828.9272461,843.104126z"/>
		<rect x="828.9272461" y="743.4663696" fill="#EBF2FA" width="50.2174301" height="11.9565315"/>
		<rect x="813.7822876" y="949.9158325" fill="#EBF2FA" width="50.2174301" height="11.9565315"/>
		<polygon fill="#EBF2FA" points="791.8619995,788.9011841 791.0648804,788.9011841 791.0648804,749.0460815 
			828.9272461,749.0460815 828.9272461,749.8432007 791.8619995,749.8432007 		"/>
		<polygon fill="#EBF2FA" points="813.7822876,956.2926025 725.7025146,956.2926025 725.7025146,918.0317383 
			726.4996338,918.0317383 726.4996338,955.4955444 813.7822876,955.4955444 		"/>
	</g>
</g>
<g id="Layer_x5F_Pie_1">
	<g>
		<path fill="#FFC763" d="M987.5505371,662.9590454c-49.7470703,0-90.0725098,40.3253784-90.0725098,90.0725708
			c0,2.7260742,0.1195679,5.4282227,0.3666382,8.0985107c2.359375,26.5514526,16.2450562,49.7870483,36.6188965,64.6609497
			c14.881958,10.8884277,33.2391357,17.3130493,53.0869751,17.3130493c49.7470703,0,90.0725098-40.3253784,90.0725098-90.0725098
			C1077.6230469,703.2844238,1037.2976074,662.9590454,987.5505371,662.9590454z M987.5505371,807.2903442
			c-10.0355835,0-19.4333496-2.7261353-27.4920044-7.4768066c-16.013855-9.4297485-26.7587891-26.838501-26.7667847-46.7580566
			v-0.0238647c0-29.9631348,24.2956543-54.2587891,54.2587891-54.2587891s54.2587891,24.2956543,54.2587891,54.2587891
			C1041.8093262,782.9946289,1017.5136719,807.2903442,987.5505371,807.2903442z"/>
		<path fill="#20437F" d="M960.0585327,799.8135376l-25.5949707,25.9775391
			c-20.3738403-14.8739014-34.2595215-38.1094971-36.6188965-64.6609497l35.4470825-8.074646
			C933.2997437,772.9750366,944.0446777,790.3837891,960.0585327,799.8135376z"/>
		<rect x="1077.6230469" y="630.2778931" fill="#CEE0F2" width="116.3768997" height="16.7391434"/>
		<rect x="939.7244263" y="873.3939819" fill="#CEE0F2" width="129.9276428" height="18.3333473"/>
		<polygon fill="#CEE0F2" points="1027.0070801,687.6692505 1026.2099609,687.6692505 1026.2099609,638.2489014 
			1077.6230469,638.2489014 1077.6230469,639.0460205 1027.0070801,639.0460205 		"/>
		<rect x="1004.2897339" y="831.147583" fill="#CEE0F2" width="0.7971021" height="42.2464104"/>
	</g>
</g>
<g id="Layer_x5F_Conversation">
	<g>
		<polygon fill="#EB5A62" points="1016.046936,178.3209991 840.6845093,178.3209991 840.6845093,281.9442749 
			868.6177368,281.9442749 855.8294678,314.6254578 893.4838867,281.9442749 1016.046936,281.9442749 		"/>
		<g>
			<rect x="857.0250854" y="192.6688385" fill="#FFFFFF" width="142.6812744" height="4.7826123"/>
			<rect x="857.0250854" y="213.3934937" fill="#FFFFFF" width="142.6812744" height="4.7826123"/>
			<rect x="857.0250854" y="234.1181488" fill="#FFFFFF" width="142.6812744" height="4.7826123"/>
			<rect x="857.0250854" y="254.842804" fill="#FFFFFF" width="142.6812744" height="4.7826123"/>
		</g>
	</g>
</g>
</svg>
