<svg xmlns="http://www.w3.org/2000/svg" xmlns:xlink="http://www.w3.org/1999/xlink" viewBox="0 0 720 504"><defs><style>.cls-1{isolation:isolate;}.cls-2,.cls-25{fill:#fff;}.cls-3{fill:#403880;}.cls-4{fill:#e0e6ee;}.cls-5{fill:#403882;}.cls-6{fill:#232059;}.cls-7{fill:#ffc861;}.cls-8{fill:#d17e2c;}.cls-9{fill:#1e194f;}.cls-10{fill:#f49c80;}.cls-11{fill:#cf7a62;}.cls-12{fill:#fd835a;}.cls-13{fill:#201851;}.cls-14{fill:#413b89;}.cls-15{fill:url(#linear-gradient);}.cls-16{fill:url(#linear-gradient-2);}.cls-17{fill:#e3e3e3;}.cls-18{fill:#f5f5f5;}.cls-19{fill:#bdc2c6;}.cls-20{fill:url(#linear-gradient-3);}.cls-21{fill:#f45662;}.cls-22{fill:url(#linear-gradient-4);}.cls-23{fill:url(#linear-gradient-5);}.cls-24{fill:url(#linear-gradient-6);}.cls-25{opacity:0.15;}.cls-26,.cls-27{opacity:0.2;mix-blend-mode:multiply;}.cls-28{fill:url(#linear-gradient-7);}.cls-29{fill:#dfe5ed;}.cls-30{fill:#094080;}.cls-31{fill:#1150be;}.cls-32{fill:url(#linear-gradient-8);}.cls-33{fill:url(#linear-gradient-9);}.cls-34{fill:#231f20;}.cls-35{fill:url(#linear-gradient-10);}.cls-36{fill:url(#linear-gradient-11);}</style><linearGradient id="linear-gradient" x1="178.13" y1="476.51" x2="211.68" y2="321.54" gradientTransform="translate(327.1)" gradientUnits="userSpaceOnUse"><stop offset="0" stop-color="#1252c3"/><stop offset="1" stop-color="#3f86fd"/></linearGradient><linearGradient id="linear-gradient-2" x1="102.2" y1="456.52" x2="239.31" y2="456.52" gradientTransform="translate(327.1)" gradientUnits="userSpaceOnUse"><stop offset="0" stop-color="#ff9c5c"/><stop offset="1" stop-color="#ffc861"/></linearGradient><linearGradient id="linear-gradient-3" x1="533.6" y1="368.9" x2="385.69" y2="164.64" gradientUnits="userSpaceOnUse"><stop offset="0" stop-color="#f5995e"/><stop offset="0.29" stop-color="#f9ab60"/><stop offset="0.71" stop-color="#fdbf62"/><stop offset="1" stop-color="#ffc663"/></linearGradient><linearGradient id="linear-gradient-4" x1="510.77" y1="385.43" x2="362.86" y2="181.17" xlink:href="#linear-gradient-3"/><linearGradient id="linear-gradient-5" x1="526.86" y1="478.76" x2="450.56" y2="377.8" gradientTransform="matrix(1, 0, 0, 1, 0, 0)" xlink:href="#linear-gradient"/><linearGradient id="linear-gradient-6" x1="427.26" y1="445.9" x2="279.35" y2="241.64" xlink:href="#linear-gradient-3"/><linearGradient id="linear-gradient-7" x1="575.55" y1="284.9" x2="494.55" y2="190.99" gradientTransform="matrix(1, 0, 0, 1, 0, 0)" xlink:href="#linear-gradient"/><linearGradient id="linear-gradient-8" x1="215.18" y1="344.6" x2="264.48" y2="209.6" gradientTransform="matrix(1, 0, 0, 1, 0, 0)" xlink:href="#linear-gradient"/><linearGradient id="linear-gradient-9" x1="-45.8" y1="470.97" x2="-36.21" y2="436.84" gradientTransform="matrix(-1, 0, 0, 1, 252, 0)" gradientUnits="userSpaceOnUse"><stop offset="0" stop-color="#f79f34"/><stop offset="1" stop-color="#ffc446"/></linearGradient><linearGradient id="linear-gradient-10" x1="-47.72" y1="472.22" x2="-59.63" y2="447.54" gradientTransform="matrix(-1, 0, 0, 1, 252, 0)" gradientUnits="userSpaceOnUse"><stop offset="0" stop-color="#fbb62c"/><stop offset="1" stop-color="#ffce44"/></linearGradient><linearGradient id="linear-gradient-11" x1="-32.55" y1="473.77" x2="-28.31" y2="457.93" xlink:href="#linear-gradient-10"/></defs><g class="cls-1"><g id="Layer_2" data-name="Layer 2"><g id="Layer_1-2" data-name="Layer 1"><rect class="cls-2" width="720" height="504"/><g id="man_2" data-name="man 2"><g id="shoe"><path class="cls-3" d="M249.8,448.4s1.1,23.6,0,24.6-32.3,1-32.3,0,11.2-24.6,11.2-24.6Z"/><path class="cls-4" d="M249.8,473c.3-.2.4-2.1.4-4.7s-4.3-10.2-13.7-10c-11.6.2-16.3,11.1-16.3,11.1H219a31.2,31.2,0,0,0-1.5,3.6C217.5,474,248.7,474,249.8,473Z"/></g><g id="pants"><path class="cls-5" d="M241.2,255.8s-3.4,79.7-5.7,92-5.3,20.8-6.3,36.2-.5,64.4-.5,64.4,12.7,5.4,21.1,0c0,0,11.7-83.6,13.5-95.2s10-43.6,10-43.6V253.2Z"/><path class="cls-6" d="M249.8,448.4s11.7-83.6,13.5-95.2,10-43.6,10-43.6V253.2l-32.1,2.6s-.1,2.9-.4,7.6c5.2,13.6,20.7,56,19.2,68.6-1.9,15.2-1.6,34.5-6.6,36.3s-6.9,3.6-2.5,10.4-5.6,71.8-22.2,69.7C228.7,448.4,241.4,453.8,249.8,448.4Z"/></g><g id="body"><path class="cls-7" d="M227.3,153.5s-21.7,22.5-18.8,34.3,20.7,48.9,30.1,52.1l2.6,15.9s26.1,7.1,46.1-2.6-16.9-104.6-16.9-104.6l-22.5-1.1Z"/><path class="cls-8" d="M265.6,159.2c5.9,4.9-3.1,29.1-9.2,33.7s-19.7-4.1-19.7-4.1l9,34.4L289.6,210c-6.5-28.9-19.2-61.4-19.2-61.4l-22.5-1.1-1.4.4,1.7,2.6S259.8,154.3,265.6,159.2Z"/><path class="cls-8" d="M238.6,239.9l2.6,15.9s19.6,5.3,37.9.4V199.9Z"/></g><g id="head"><path class="cls-9" d="M250.6,112.1s4.3-3.9,1.7-4.5S249.6,109.6,250.6,112.1Z"/><path class="cls-10" d="M250.2,107.6s4.5,22,4.5,30.7c.1,4.1-7.7,4.3-7.7,4.3s.7,3.7,1.1,6,.4,8-6,9-14.8-4.1-14.8-4.1-1.4-17.1-2-19-6.8-17.8,1.1-22S250.2,107.6,250.2,107.6Z"/><path class="cls-11" d="M230.4,129.1a1.9,1.9,0,0,0,2.1.4,2.1,2.1,0,0,1-2.3.9c-1.4-.6,0-1.3,0-1.3"/><path class="cls-11" d="M236.8,134.7s1.3,10.6,1.8,11.3,6.2,4.1,9.6,4.5a10.9,10.9,0,0,0-.1-1.9c-.4-2.3-1.1-6-1.1-6h.8C245.3,138.4,241.1,134.2,236.8,134.7Z"/><path class="cls-3" d="M235.9,119.7s4.4,13.8,6.6,13,7-6.3,11.1-5.4c1.9.4,5.5,13.5,4.4,15.1s-12.2,5.4-19,.9l-5.4-21.2s-3-3.6-5.6-1.9.4,7.4,2.4,8.9c0,0,.2,6.3-4.7,7.7,0,0-8.8-14.7-9-17.8,0,0-1.3,1.2-1.5-1a6.3,6.3,0,0,1,1-4.1s.5-5,1.3-5.1,1,.9,1,.9,8.5-9.6,13.3-10.4,1.3,1.5,1.3,1.5,9.8-5.9,20.1-4.2c5.9,1-.6,12.6-3.7,13.5s-12.5,3.1-12.5,3.1S240,114.6,235.9,119.7Z"/><path class="cls-9" d="M223.2,122c-4.5,3.9-6.5-3-6.5-3,.2,3.1,9,17.8,9,17.8,4.9-1.4,4.7-7.7,4.7-7.7s-3.5-4.4-3.4-6.8h0C224.1,125.4,223.2,122,223.2,122Z"/></g></g><g id="plants"><g id="plant"><path class="cls-12" d="M572.5,368.1c-1.5,37.9-25.3,98.7-48.3,91.6-6.1-1.9,1.7-30.1,23.9-54.9C564.2,386.8,568.5,373.6,572.5,368.1Z"/><path class="cls-13" d="M504.5,455c.2,2.4-32.9,5.4-48.2-19.6-12-19.5-19.4-21.2-25.8-24.7C474,410,504.2,448.7,504.5,455Z"/><path class="cls-14" d="M492.7,403.5c.2-2-1.9-16.6.4-28.1,4.5,4.4,21.3,61.7,20.8,71-.2,3.4,1.8,12.8-5.4,14.5S487,444.4,482,431.8c-16.4-41.7-4.6-39.9-18.2-63.6C469.2,372.1,489.9,396.1,492.7,403.5Z"/><path class="cls-12" d="M484,387.4c2.7,4,4,8.7,6.7,12.6s1.9,7.1,3.5,10.1,4.5,5,4.7,9.5c.1,2.2-.5,3.9-.3,5.9s1.3,4.6,1.3,7.1-.5,3.6-.6,5.3c-.1,4.8,7.5,12.6,1.4,17,.3,4-.4,5.5-2.5,5.5-4.5.2-4.3-4.4-5.2-6.9s-4.3-4.8-4.6-8.7c-.1-2.1,1.1-4.5.8-6.3s-1.4-2.2-2.2-3.4c-1.9-3-2-6.5-1.8-10,.2-2,1.8-5.2,1.5-7.1-.5-3.5-4-4.4-3-9.4.4-1.6,1.7-3.4,1.7-5s-1.1-2.6-1.7-4C482.3,395.6,483.9,391.5,484,387.4Z"/><path class="cls-15" d="M500.9,445.4c4.3-.1,9.7,3.9,12.5,8.4,0-2.8-.2-5.6-.4-8.4-3-2.8-8.2-2-11.2-5.6s0-8,4.5-5.7c2.2,1.1,4.8,4.7,6.5,7.8-.2-2-.4-4.8-.6-6.8l-.3-5.2c-3.5-2.1-10.9-2-11.7-7.7-.5-4,3.5-6.8,6.7-3.5a27.3,27.3,0,0,1,4.8,7.2c-.1-3.2-.1-6.4.1-9.6-3.8-3-12.5-2.1-14.2-7.7s4.5-5.7,7.8-3.4,4.9,6.2,6.4,9.9l.6-7.2c-2.8-2.9-8.8-4.8-10-9.6s2.6-9.7,7-4.9c2.3,2.4,3.3,6.3,3.7,10,.4-2.6,1-5.2,1.6-7.8a45.2,45.2,0,0,0-2.8-5c-1.4-2.1-3.5-4.1-3.3-6.7.4-4.4,3.9-2.1,5.4.8a17.8,17.8,0,0,1,1.6,7.4c.8-2.9,2-7.2,3-10-1.5-4.6-12.9-13.4-4.6-14,3.9-.3,5.4,7.4,5.5,12l2.2-5.3c-1.3-3.7-8-15.3-2.3-16s4.4,7,4,10.7a14.2,14.2,0,0,1-.1,1.9c1.1-2.3,2.2-4.6,3.4-6.9a21,21,0,0,1-2.5-5.2c-.4-1.3-1.7-7.3,2-5.2,1.4.7,2,5,1.9,8.1.9-1.6,1.8-3.2,2.8-4.7,5.5-11.6.1-26.3,9-24.8,10.5,1.6,7.5,10.3,5,13.6a42.1,42.1,0,0,1-11.7,10c-1,1.6-4.8,9.1-5.3,10.1,4.2-5.2,12.7-15.5,16.1-9.8s-11.8,8.8-16.9,11.5c-1.4,2.9-4.5,10.5-4.8,11.3,1.9-2.2,3.5-5.4,6.1-6.9s7.7-2.5,7.7.9-6.9,5.4-10.3,6.3-3.4,1.8-4.1,1.6a113.3,113.3,0,0,0-3.6,11.7c2.7-4.8,10.3-15,14.1-9.5,4.8,7.1-9.5,7.3-14.3,10.6a106.3,106.3,0,0,0-2.3,12.3v.2c1.6-3.8,2.9-7.6,6.3-10.6s8.5-3.9,8.6,2.3c.1,4.5-7.9,5.4-11.5,7.6-1.7,1-2.8,2.3-3.7,2.8a114.6,114.6,0,0,0-.6,11.7c6.4-5.6,11.1-21.7,16.8-14.4s-10.3,7.9-16.8,15.8c0,3.5.2,7.1.4,10.7a43,43,0,0,1,3.5-8.3c1-2,6.6-7.9,9.2-3.5s-5.5,8-7.9,9.4a11.3,11.3,0,0,0-4.6,4.9c0,.7.8,8.8,1,12.2,1.6-5.9,15-27.8,20.5-15.9,3.6,7.7-12.9,9.6-16.6,12.3a8.6,8.6,0,0,0-3.8,5.2c.1,2,.2,3.9.2,5.9,3.2-5.5,11-16.2,15.2-8.2s-8.3,7-10.8,8.4-4.6,2.1-4.5,5.1a55.6,55.6,0,0,1-.8,7c-.3,1.6-2.9,1-2.7-.6.3-3.2.5-6.5.5-9.7-3.9-2.2-12.3-2.2-14.9-4.2S496.2,445.6,500.9,445.4Z"/><path class="cls-16" d="M566.4,470s-4.8-14.1-15.9-9.6c0,0-5.5-17.9-19.1-3.9s-9.4-16-22.9-13.3-9.5,13-9.5,13-12.9-6.7-10.1,4.8c0,0-30.4-15.1-30.9-2.3,0,0-20.4-3.8-16.9,6.8,0,0-11.8-3-11.8,4.5Z"/></g></g><g id="phone"><g id="phone-2" data-name="phone"><path class="cls-13" d="M495,56.4H291c-11.4,0-20.6,8.4-20.6,18.9V451.6c0,10.4,9.2,18.8,20.6,18.8H495c11.3,0,20.6-8.4,20.6-18.8V75.3C515.6,64.8,506.3,56.4,495,56.4Zm7.7,383.5c0,9.9-8.3,17.9-18.5,17.9H301.8c-10.3,0-18.5-8-18.5-17.9V89.5c0-20.2,8.2-21.1,18.5-21.1h36.5c2.1,0,3.9,2.1,3.9,4.8v1.2c0,6.2,3.8,6.3,8.5,6.3h84.5c4.8,0,8.6-.1,8.6-6.3V73.2c0-2.7,1.7-4.8,3.9-4.8h36.5c10.2,0,18.5,2.6,18.5,21.1Z"/><path class="cls-17" d="M502.7,89.5V439.9c0,9.9-8.3,17.9-18.5,17.9H301.8c-10.3,0-18.5-8-18.5-17.9V89.5c0-20.2,8.2-21.1,18.5-21.1h36.5c2.1,0,3.9,2.1,3.9,4.8v1.2c0,6.2,3.8,6.3,8.5,6.3h84.5c4.8,0,8.6-.1,8.6-6.3V73.2c0-2.7,1.7-4.8,3.9-4.8h36.5C494.4,68.4,502.7,71,502.7,89.5Z"/><path class="cls-2" d="M406.8,72.8H386.2a1.3,1.3,0,0,1-1.3-1.3h0a1.2,1.2,0,0,1,1.3-1.2h20.6a1.2,1.2,0,0,1,1.3,1.2h0A1.3,1.3,0,0,1,406.8,72.8Z"/><path class="cls-18" d="M463,122.1l-132.9-.3a12.1,12.1,0,0,1-12-12.1v-4.5a12.1,12.1,0,0,1,12.1-12l132.9.3a12.2,12.2,0,0,1,12,12.1v4.5A12.1,12.1,0,0,1,463,122.1Z"/><path class="cls-13" d="M463,122.1h.9a11.4,11.4,0,0,0,2.6-.5,12.2,12.2,0,0,0,3.8-1.9,13.2,13.2,0,0,0,3.6-4.6,11.5,11.5,0,0,0,.9-3.3,23.8,23.8,0,0,0,.1-3.8,29.5,29.5,0,0,0-.1-4.2,12.6,12.6,0,0,0-1.6-4.2,11.5,11.5,0,0,0-7.9-5.5,32,32,0,0,0-5.4-.3h-5.8l-123.9-.2a11.6,11.6,0,0,0-8,3.1,12.1,12.1,0,0,0-3.8,7.6c-.1,1.5,0,3,0,4.4a12.4,12.4,0,0,0,.4,4.3,11.6,11.6,0,0,0,4.9,6.6,11.9,11.9,0,0,0,3.8,1.7,18.4,18.4,0,0,0,4.1.3H356l55.7.3H331.6a20.8,20.8,0,0,1-4.3-.3,12.7,12.7,0,0,1-4-1.7,11.9,11.9,0,0,1-5-7,13.2,13.2,0,0,1-.5-4.4c0-1.5,0-2.9.1-4.4a12,12,0,0,1,3.9-8,12.3,12.3,0,0,1,8.4-3.3l123.9.4h5.8a33.8,33.8,0,0,1,5.5.3,12.2,12.2,0,0,1,8.1,5.7,15,15,0,0,1,1.6,4.3,31.2,31.2,0,0,1,.1,4.3,23.8,23.8,0,0,1-.1,3.8,15.2,15.2,0,0,1-1,3.4,11.7,11.7,0,0,1-3.7,4.6,11.6,11.6,0,0,1-3.9,1.9,11.4,11.4,0,0,1-2.6.5Z"/><path class="cls-13" d="M465.5,107.1c-.1,0-.1-.4-.3-1.2a4.5,4.5,0,0,0-1.9-2.7,4.9,4.9,0,0,0-7.9,3.9,5,5,0,0,0,3.2,4.6,5,5,0,0,0,4.7-.6,5.8,5.8,0,0,0,1.9-2.7c.2-.8.2-1.3.3-1.3v.4a3.4,3.4,0,0,1-.1.9,4.5,4.5,0,0,1-1.9,3,5.2,5.2,0,0,1-5.1.8,5.4,5.4,0,0,1,.1-10.2,5.3,5.3,0,0,1,5.1.9,4.4,4.4,0,0,1,1.8,3,3.4,3.4,0,0,1,.1.9Z"/><path class="cls-13" d="M468.3,116.1a11.5,11.5,0,0,1-2.5-2.3c-1.3-1.4-2.2-2.6-2.1-2.8a13.3,13.3,0,0,1,2.5,2.4A9,9,0,0,1,468.3,116.1Z"/><g id="u5Zjqx"><path class="cls-13" d="M332.1,76.1l-.4.4-.2.2a4.5,4.5,0,0,0-3.3-1.4,4.9,4.9,0,0,0-3.3,1.4.2.2,0,0,0-.2-.2l-.3-.4h0l.5-.4,1-.6,1.3-.5h1.7a2.7,2.7,0,0,1,1.2.3,2,2,0,0,1,.8.4l.8.5.4.3Z"/><path class="cls-13" d="M326,77.7l-.5-.5a3.6,3.6,0,0,1,2.2-1.1,3.7,3.7,0,0,1,3.3,1.1l-.6.5a2.9,2.9,0,0,0-2.2-.9A3.1,3.1,0,0,0,326,77.7Z"/><path class="cls-13" d="M329.9,78.3l-.5.5a1.6,1.6,0,0,0-1.2-.4,1.5,1.5,0,0,0-1.1.4c-.2-.2-.4-.3-.5-.5A2.3,2.3,0,0,1,329.9,78.3Z"/><path class="cls-13" d="M328.7,79.3a.5.5,0,0,1-.5.5.5.5,0,0,1,0-1A.5.5,0,0,1,328.7,79.3Z"/></g><path class="cls-13" d="M298.7,77.2a1.4,1.4,0,1,1,2.8,0,1.4,1.4,0,0,1-2.8,0Z"/><path class="cls-13" d="M303.1,77.2a1.4,1.4,0,1,1,2.8,0,1.4,1.4,0,1,1-2.8,0Z"/><path class="cls-13" d="M307.6,77.2a1.4,1.4,0,0,1,1.4-1.4,1.4,1.4,0,0,1,1.4,1.4,1.5,1.5,0,0,1-1.4,1.4A1.4,1.4,0,0,1,307.6,77.2Z"/><path class="cls-13" d="M312,77.2a1.4,1.4,0,0,1,2.8,0,1.4,1.4,0,0,1-2.8,0Z"/><path class="cls-13" d="M316.4,77.2a1.5,1.5,0,0,1,1.5-1.4,1.4,1.4,0,0,1,1.4,1.4,1.5,1.5,0,0,1-1.4,1.4A1.5,1.5,0,0,1,316.4,77.2Z"/><path class="cls-13" d="M487.4,80.2H476V74.9h11.4Zm-10.8-.5h10.3V75.5H476.6Z"/><rect class="cls-13" x="476.9" y="75.8" width="7.4" height="3.51"/><rect class="cls-13" x="487.5" y="76.2" width="1" height="2.85"/></g><polygon class="cls-19" points="502.8 435.7 283 435.7 283.3 137.3 502.8 137.3 502.8 435.7"/><path class="cls-20" d="M418.7,165.4a7.8,7.8,0,0,1,2.2.3h0c2.2.2,4,2.3,6.4,1.9s2.1-3.2,2.2-4.8V137.3H356.3v24.4h0s-.1,5.5,2.2,5.9,4.3-1.7,6.4-1.9h.1a6.6,6.6,0,0,1,2.1-.3,8.6,8.6,0,0,1,8.5,8.7,8.5,8.5,0,0,1-8.5,8.6l-2.1-.2h-.1c-2.1-.3-4-2.4-6.4-2s-2.2,5.9-2.2,5.9h0v25.5h73.2V185.3c-.1-1.6-.5-4.5-2.2-4.8s-4.2,1.7-6.4,2h0l-2.2.2a8.5,8.5,0,0,1-8.5-8.6A8.6,8.6,0,0,1,418.7,165.4Z"/><path class="cls-21" d="M418.8,241.1a7.6,7.6,0,0,1,2.1.3h0c2.2.2,4,2.3,6.4,1.9s2.2-4.5,2.2-5.6V211.9h73.3v74.6H478.6c-1.6-.1-4.4-.5-4.7-2.3s1.7-4.3,2-6.5h0a14.9,14.9,0,0,0,.2-2.1,8.5,8.5,0,1,0-17,0,7.6,7.6,0,0,0,.3,2.1h0c.3,2.2,2.3,4.1,1.9,6.5s-3.1,2.2-4.7,2.3H429.5V261.9c0-1.2-.2-5.3-2.2-5.7s-4.2,1.7-6.4,2h0l-2.1.2a8.7,8.7,0,0,1,0-17.3Z"/><path class="cls-22" d="M440.3,315.4a6.6,6.6,0,0,0-2.1.3h-.1c-2.1.3-4,2.3-6.3,1.9s-2.2-3.1-2.3-4.7V286.5h26.3c1.1,0,5.2-.2,5.5-2.3s-1.6-4.3-1.9-6.5h0a7.8,7.8,0,0,1-.3-2.2,8.6,8.6,0,1,1,17.1,0,7.8,7.8,0,0,1-.3,2.2h0c-.3,2.2-2.4,4.1-1.9,6.5s4.4,2.3,5.5,2.3h23.3v74.6H479.2c-1.6.1-4.4.6-4.7,2.3s1.7,4.3,1.9,6.5h0a7.8,7.8,0,0,1,.3,2.2,8.5,8.5,0,1,1-17,0,7.8,7.8,0,0,1,.3-2.2h0c.2-2.2,2.3-4.1,1.9-6.5s-3.1-2.2-4.7-2.3H429.5V336.5c.1-1.6.6-5.7,2.3-6s4.2,1.7,6.3,2h.1l2.1.2a8.5,8.5,0,0,0,8.5-8.6A8.6,8.6,0,0,0,440.3,315.4Z"/><path class="cls-3" d="M345.5,315.4a6.6,6.6,0,0,1,2.1.3h.1c2.1.3,4,2.3,6.3,1.9s2.2-3.1,2.3-4.7V286.5H330.1c-1.1,0-5.2-.2-5.6-2.3s1.7-4.3,1.9-6.5h0a7.8,7.8,0,0,0,.3-2.2,8.5,8.5,0,1,0-17,0,7.8,7.8,0,0,0,.3,2.2h0c.2,2.2,2.3,4.1,1.9,6.5s-4.5,2.3-5.6,2.3H283v74.6h23.6c1.6.1,4.4.6,4.7,2.3s-1.6,4.3-1.9,6.5h0a7.8,7.8,0,0,0-.3,2.2,8.5,8.5,0,1,0,17,0,15,15,0,0,0-.2-2.2h0c-.3-2.2-2.4-4.1-2-6.5s3.1-2.2,4.8-2.3h27.6V336.5c-.1-1.6-.6-5.7-2.3-6s-4.2,1.7-6.3,2h-.1l-2.1.2a8.5,8.5,0,0,1-8.5-8.6A8.6,8.6,0,0,1,345.5,315.4Z"/><path class="cls-12" d="M345.5,315.4a7.8,7.8,0,0,1,2.2.3h0c2.1.2,4,2.3,6.4,1.9s2.1-3.1,2.2-4.8V286.5h26.3c1.2,0,5.1-.3,5.4-2.3s-1.6-4.3-1.9-6.5h0a7.8,7.8,0,0,1-.3-2.2,8.6,8.6,0,1,1,17.1,0,7.8,7.8,0,0,1-.3,2.2h0c-.3,2.2-2.3,4.1-1.9,6.5s3.4,2.2,5,2.3h23.8v25.9c.1,1.5.5,4.7,2.3,5.1s4.2-1.7,6.3-2h.1a7.6,7.6,0,0,1,2.1-.3,8.7,8.7,0,0,1,0,17.4,7.6,7.6,0,0,1-2.1-.3h-.1c-2.1-.3-3.9-2.4-6.3-2s-2.2,4.8-2.3,6.4v24.4H405.9c-1.6.1-4.4.6-4.7,2.3s1.7,4.3,2,6.5h0a15,15,0,0,1,.2,2.2,8.5,8.5,0,1,1-17,0,7.8,7.8,0,0,1,.3-2.2h0c.3-2.2,2.3-4.1,1.9-6.5s-3.1-2.2-4.7-2.3H356.3V336.5c-.1-1.6-.6-5.7-2.2-6s-4.3,1.7-6.4,2h0l-2.2.2a8.7,8.7,0,0,1,0-17.3Z"/><path class="cls-3" d="M358.5,256.1c2.4-.4,4.2,1.7,6.4,2h0a7.6,7.6,0,0,0,2.1.3,8.7,8.7,0,0,0,0-17.4l-2.1.3h0c-2.2.3-4,2.4-6.4,2s-2.1-3.3-2.2-4.9V211.9h73.2v25.5h0s.1,5.5-2.3,6-4.2-1.7-6.3-2h-.1a6.6,6.6,0,0,0-2.1-.3,8.7,8.7,0,0,0,0,17.4,6.6,6.6,0,0,0,2.1-.3h.1c2.1-.3,4-2.4,6.3-2s2.3,6,2.3,6h0v24.5H405.4c-1.6-.1-4.4-.5-4.7-2.3s1.7-4.3,1.9-6.5h0a7.6,7.6,0,0,0,.3-2.1,8.5,8.5,0,1,0-17,0,7.6,7.6,0,0,0,.3,2.1h0c.2,2.2,2.3,4.1,1.9,6.5s-3.1,2.2-4.7,2.3H356.3V261C356.4,259.4,356.8,256.4,358.5,256.1Z"/><path class="cls-21" d="M367,406.5a7.6,7.6,0,0,1-2.1-.3h0c-2.2-.2-4-2.3-6.4-1.9s-2.2,4.5-2.2,5.6v25.8H283V361.1h23.6c1.6.1,4.4.6,4.7,2.3s-1.7,4.3-2,6.5h0a15,15,0,0,0-.2,2.2,8.5,8.5,0,1,0,17,0,7.8,7.8,0,0,0-.3-2.2h0c-.2-2.2-2.3-4.1-1.9-6.5s3.1-2.2,4.7-2.3h27.7v24.7c0,1.1.2,5.3,2.2,5.6s4.2-1.7,6.4-1.9h0a7.6,7.6,0,0,1,2.1-.3,8.7,8.7,0,0,1,0,17.3Z"/><path class="cls-23" d="M418.8,406.5a7.6,7.6,0,0,0,2.1-.3h0c2.2-.2,4-2.3,6.4-1.9s2.2,4.5,2.2,5.6v25.8h73.3V361.1H479.2c-1.6.1-4.4.6-4.6,2.3s1.6,4.3,1.9,6.5h0a7.8,7.8,0,0,1,.3,2.2,8.6,8.6,0,1,1-17.1,0,7.8,7.8,0,0,1,.3-2.2h0c.3-2.2,2.3-4.1,1.9-6.5s-3.1-2.2-4.7-2.3H429.5v24.7c0,1.1-.2,5.3-2.2,5.6s-4.2-1.7-6.4-1.9h0a7.6,7.6,0,0,0-2.1-.3,8.7,8.7,0,0,0,0,17.3Z"/><path class="cls-24" d="M427.3,391.5c-2.4.4-4.2-1.7-6.4-2h0a7.8,7.8,0,0,0-2.2-.3,8.7,8.7,0,0,0,0,17.4,7.8,7.8,0,0,0,2.2-.3h0c2.2-.3,4-2.4,6.4-2s2.1,3.3,2.2,4.9v26.5H356.3V410.2h0s-.1-5.5,2.2-6,4.3,1.7,6.4,2h.1a6.6,6.6,0,0,0,2.1.3,8.7,8.7,0,0,0,0-17.4,6.6,6.6,0,0,0-2.1.3h-.1c-2.1.3-4,2.4-6.4,2s-2.2-6-2.2-6h0V361.1h27.6c1.6.1,4.4.6,4.7,2.3s-1.6,4.3-1.9,6.5h0a7.8,7.8,0,0,0-.3,2.2,8.5,8.5,0,1,0,17,0,15,15,0,0,0-.2-2.2h0c-.3-2.2-2.4-4.1-2-6.5s3.1-2.2,4.7-2.3h23.6v25.5C429.4,388.3,429,391.2,427.3,391.5Z"/><polygon class="cls-25" points="429.5 137.3 310.6 435.7 335.8 435.8 456.5 137.3 429.5 137.3"/><polygon class="cls-25" points="356.3 435.7 476.2 137.3 502.8 137.3 383.4 435.8 356.3 435.7"/><g class="cls-26"><path d="M475.8,183.3V208c0,1.1-.2,5.2-2.3,5.6s-4.2-1.7-6.3-2h-.1l-2.1-.2a8.5,8.5,0,0,0-8.5,8.6,8.6,8.6,0,0,0,8.5,8.7,7.1,7.1,0,0,0,2.1-.3h.1c2.1-.2,3.9-2.3,6.3-1.9s2.3,4.5,2.3,5.6v25.8h39.8V183.3Z"/><path d="M298.5,197.9l61.9-39.1L346.6,137c-.6-1-2.7-4.6-1.1-6s4.5-.8,6.4-1.8h.1a8.2,8.2,0,0,0,1.9-.9,8.7,8.7,0,0,0-9.3-14.6A6.5,6.5,0,0,0,343,115h-.1c-1.6,1.4-2,4.2-4.3,5.1s-4.3-2.6-4.9-3.6L320.5,95.7l-23.4,14.8-18.6,11.8-8.1,5.1v26l14.8,23.4-14.8,10.6V293.3h15.1V268.7c0-1.2.2-5.3,2.2-5.7s4.3,1.7,6.4,2h0a14.6,14.6,0,0,0,2.2.3,8.7,8.7,0,0,0,0-17.4,7.8,7.8,0,0,0-2.2.3h0c-2.1.3-4,2.4-6.4,1.9s-2.2-4.5-2.2-5.6V218.7H274.2l18.4-30.1Z"/></g></g><g id="man_2_arm" data-name="man 2 arm"><path class="cls-21" d="M346.6,108.7A6.5,6.5,0,0,0,345,110h-.1c-1.6,1.4-2,4.2-4.3,5.1s-4.3-2.6-4.9-3.6L322.5,90.7l-23.4,14.8-18.6,11.8-19.9,12.5,39.9,63.1,61.9-39.1L348.6,132c-.6-1-2.7-4.6-1.1-6s4.5-.8,6.4-1.8h.1a8.2,8.2,0,0,0,1.9-.9,8.7,8.7,0,0,0-9.3-14.6Z"/><path class="cls-7" d="M236.7,188.8l11.5,19.3,26.1-26.5s9.4,5.9,10.9,11.3c0,0-31,52.9-46.6,47S236.7,188.8,236.7,188.8Z"/><path class="cls-27" d="M300.6,166.1a.7.7,0,0,0-.1-.6,2.2,2.2,0,0,0-.9-.8l1-3.4a.4.4,0,0,0-.2-.5,2.7,2.7,0,0,0-1.6-.7l.3-1.2a.4.4,0,0,0-.2-.6c-1.9-1.1-2.8-.1-2.8-.1a4,4,0,0,0-2.8,0c-1.3.7-3.7,8.4-3.7,8.4l-3.8,3.1,7.8,12.3c1.7-2,3.2-3.9,3.7-4.6S300.2,167.8,300.6,166.1Z"/><path class="cls-10" d="M274.3,181.6l3.5-4.1s.9-8.7,1.9-10.1,2.7-3.1,2.7-3.1l2.3,3.7,4.9-4s2.4-7.7,3.7-8.3a3.4,3.4,0,0,1,2.8,0s.9-1.1,2.8,0a.5.5,0,0,1,.2.6l-.3,1.3a2.2,2.2,0,0,1,1.6.6.5.5,0,0,1,.2.6l-1,3.4a2.2,2.2,0,0,1,.9.8.7.7,0,0,1,.1.6c-.4,1.7-2.6,10-3.3,11.2s-6.6,8-7.7,10.1l-4.4,8Z"/></g><g id="man_1" data-name="man 1"><path class="cls-28" d="M475.8,174.4V199c0,1.2-.2,5.3-2.3,5.7s-4.2-1.7-6.3-2h-.1a7.1,7.1,0,0,0-2.1-.3,8.7,8.7,0,0,0,0,17.4,7.1,7.1,0,0,0,2.1-.3h.1c2.1-.3,3.9-2.4,6.3-1.9s2.3,4.5,2.3,5.6V249H549V174.4Z"/><path class="cls-27" d="M508.9,244.8s-1.7,2,5.5,1.9a44.9,44.9,0,0,1,13.9,2.3h4.6L549,238.2V228.1Z"/><g id="head-2" data-name="head"><path class="cls-10" d="M577.7,115s8.4,29.6,11.4,29.9a19.3,19.3,0,0,0,6.9-1.3l2.9,9.6,22.8-2.8-8.2-20.2s.7-24.6-13.8-24.9A28.3,28.3,0,0,0,577.7,115Z"/><path class="cls-11" d="M589.1,144.9a19.3,19.3,0,0,0,6.9-1.3l-.8-3.9C594.7,142.7,589.1,144.9,589.1,144.9Z"/><path class="cls-11" d="M596.5,128s1.7.2,2.5-2.7l.7,2.1S597.6,128.6,596.5,128Z"/><path class="cls-3" d="M593.3,121.1s2-3.2,4-2.8,2.6,3.9,1.7,7-.1,3.3.5,4a51.9,51.9,0,0,0,4.3,3.7s7.3-.1,9.7-2.8c0,0,2.7-17.4,2.3-18.3s-1.7-3.1-1.7-3.1,2-.6,1.3-1.3a17.2,17.2,0,0,0-2.7-1.8s-1.5-3.7-2.1-3.7-1,.7-1,.7a6.9,6.9,0,0,0-5.3-3.1c-3.6-.3-12.5.4-16.3-.3s-7.8-1.3-8.1-.6a4.1,4.1,0,0,0,0,2s-6.5-.8-7,.7.4,5.3.4,5.3-3.4-.5-2.8,3,5.3,7.6,9.9,7.1l5.1-.7s1.8,3.2,4.2,2.9c0,0,1.9,5,2.6,4.5S593.3,121.1,593.3,121.1Z"/><path class="cls-11" d="M595.3,122.1s.6-1.2,1.4-1,.7,2.8-.5,3.4.8-2.4-.1-2.2S595.3,122.1,595.3,122.1Z"/><path class="cls-9" d="M599.5,129.3a51.9,51.9,0,0,0,4.3,3.7s7.3-.1,9.7-2.8c0,0,2.7-17.4,2.3-18.3-.3,11.9-4.8,15.2-8.2,16.3S598.9,128.6,599.5,129.3Z"/></g><g id="shoes"><path class="cls-3" d="M636.8,448.9s-8,.3-9.5,2.1-8.6,1.9-10,.5c-.3,2.5-13.3,9-18,10.6s-5.6,9.9-5.4,10.6,37.5-.6,44.2-.8a.9.9,0,0,0,.9-1,19.3,19.3,0,0,1,.1-2.4C639.1,467,636.8,448.9,636.8,448.9Z"/><path class="cls-10" d="M627.3,451c1.5-1.8,9.5-2.1,9.5-2.1v-6.8l-19.6,3.7v5.7C618.7,452.9,625.9,452.9,627.3,451Z"/><path class="cls-29" d="M593.9,472.7c.2.6,37.5-.6,44.2-.8a.9.9,0,0,0,.9-1,19.3,19.3,0,0,1,.1-2.4l-31.4.9c-.3-8,1.5-11.8,1.5-11.8h0a102,102,0,0,1-9.9,4.5C594.6,463.6,593.7,472,593.9,472.7Z"/><path class="cls-3" d="M537.5,452.1c.2-.7-2.7-1.7-2.7-1.7-2.2,3.4-15.4,8.4-21.9,10.5-5,1.6-6.6,7.8-7.1,10.6a1.1,1.1,0,0,0,1.1,1.4h48.5a1.2,1.2,0,0,0,1.2-1.2V453.1c-7.2,0-5.2,1.9-8.1,2.4S537.4,452.7,537.5,452.1Z"/><path class="cls-10" d="M536.6,445.6l-1.8,4.8s2.9,1,2.7,1.7,8,3.9,11,3.4.9-2.4,8.1-2.4l1.7-6.3Z"/><path class="cls-29" d="M505.8,471.5a1.1,1.1,0,0,0,1.1,1.4h48.5a1.2,1.2,0,0,0,1.2-1.2v-2.2H521.3l.9-12c-3.4,1.4-6.8,2.6-9.3,3.4C507.9,462.5,506.3,468.7,505.8,471.5Z"/></g><g id="pants-2" data-name="pants"><path class="cls-3" d="M632.9,246.7s5,19.9,1.9,32.9-1.3,61.7-.5,66.8,5.6,17.6,4.6,34.3-2.1,61.4-2.1,61.4-12.1,9.6-19.6,3.7c0,0-9.6-96.8-10.2-104.1s-4.7-33.4-4.7-33.4-15,36-16.6,46.9-6.2,37-14.1,54.4a304.7,304.7,0,0,0-13.3,37.2s-14.6,6.9-21.7-1.2c0,0,19-94.1,22.5-107s21.1-86.5,21.1-86.5Z"/><path class="cls-6" d="M602.3,308.3l7.1-19,10-4.3s-6.9,7.2-6.9,12.7-4.8,51.1-4.8,51.1Z"/></g><g id="body-2" data-name="body"><path class="cls-10" d="M533.5,228.1l-6.9,6.1s-8.6,1-10.1,1.4-6.3,7.6-7.5,8.6,2.6,2.4,4.1.7l-4.3,4.1h-2.6s2.8,2.7,3.7,2.6,4.5-1.2,4.5-1.2,1.9,1.6,3,1.2,2.1-1.9,3.2-1.4,3.2-.8,3.9-.5a3.8,3.8,0,0,0,3.8-.7c1.3-1.3,12.6-9.1,12.6-9.1Z"/><path class="cls-10" d="M558.6,192.4l-6.8-6s-4.8.1-6.6-1.8-7.3-6.1-7.5-6.9,2.1-1.8,2.6-1.7a37,37,0,0,1,4.8,2.2l-4.2-3.8h-7.1s6.1-3.8,7.2-3.6l1.7.3s7.5-.6,9,.4,6.1,6.3,6.1,6.3l8.7,3.8Z"/><path class="cls-30" d="M558.6,192.4s-1.1-9.7,5.3-11.9l22,9.3-8.2,18.3Z"/><path class="cls-31" d="M607.6,148.2c6.3-1.2,15.3-2.9,18.2,0s13.5,21.6,12.5,30.2-6.6,57.5-6.6,60a65.3,65.3,0,0,0,1.2,8.3s-14.1,8.8-27,8.8a114.7,114.7,0,0,1-25.7-3.4l-2.5-35.4-36.8,23.2s-7.8-6.4-7.4-11.8L559.2,203s24.9-40.2,28.8-44.8S603.1,149.1,607.6,148.2Z"/><polygon class="cls-30" points="577.7 216.7 605.5 182.7 578.8 231.1 577.7 216.7"/></g></g><g id="lady"><g id="head-3" data-name="head"><path class="cls-3" d="M137.8,213.4s3.3-9.1-7.1-8.9-12.5,9.1-14.1,13.1,5,10.4,11.8,7S137.8,213.4,137.8,213.4Z"/><path class="cls-9" d="M125.5,205.4c-6,2.5-7.6,9-8.9,12.2s5,10.4,11.8,7A16.4,16.4,0,0,0,131,223l-1.6-.2C111.6,221.3,125.3,205.7,125.5,205.4Z"/><path class="cls-21" d="M139.6,214.3s-2.8-2.7-6.8.9-6,8.8-4.3,10.5S139.6,214.3,139.6,214.3Z"/><path class="cls-9" d="M160.8,219.9s3.4.5-.4,6S158.7,219.8,160.8,219.9Z"/><path class="cls-10" d="M159.5,220.5s4.6,24.9,2.1,31.8c-1,3-9.1,2-9.1,2l.6,10.1-20.3-.9s2-15.8,1.9-18.2-3.4-17.4,2.6-21.1S159.5,220.5,159.5,220.5Z"/><path class="cls-11" d="M142.9,240.8s1.8,1,2.7.6a3.2,3.2,0,0,1-3.4.5C140.4,241,142.9,240.8,142.9,240.8Z"/><path class="cls-3" d="M145.6,233.1s-3.2-2.5-5.4-.4-.3,7,3.6,8.5c0,0-3.2,6.6-9.1,5.3,0,0-8.5-10.9-7.9-16.7s7.1-14.3,12.3-16.1,7.1-1.7,10.7-1.1,12.1,2.9,11.6,5.3a14.8,14.8,0,0,1-1.6,4.1s-1,.1-1.5,2.4-1.5,7.6-9.4,8.8c0,0-.7,3.2-1.3,3.3S145.6,233.1,145.6,233.1Z"/></g><g id="shoes-2" data-name="shoes"><path class="cls-3" d="M244.1,453c-.1-.7,2-1.5,2-1.5,2.2,3.5,15.3,8.2,21.5,10.3s6.4,7.8,6.8,10.6a1.1,1.1,0,0,1-1.1,1.4H227a1.1,1.1,0,0,1-1.1-1.2l1.2-18.6c6.9.1,3.8,1.9,6.6,2.4S244.2,453.6,244.1,453Z"/><path class="cls-10" d="M246.2,450v1.5s-2.1.8-2,1.5-7.6,3.9-10.4,3.4.3-2.3-6.6-2.4l.5-6.5Z"/><path class="cls-29" d="M274.4,472.4a1.1,1.1,0,0,1-1.1,1.4H227a1.1,1.1,0,0,1-1.1-1.2v-2.2h33.7l-.8-12c3.2,1.4,6.5,2.6,8.8,3.4C272.4,463.3,274,469.6,274.4,472.4Z"/><path class="cls-3" d="M100.2,472.6H56.9s-2.7-1.6-2.3-2.2,31-24,32.1-23.4,11.3,8,16.2,7.8C102.9,454.8,105.9,469.7,100.2,472.6Z"/><path class="cls-10" d="M102.9,454.8l-1.4-.2h0s-.5,4.6-1.3,5.2-6.2,8.4-5.7,9.1,1.8,2.3,1.6,3.7h4.1C105.9,469.7,102.9,454.8,102.9,454.8Z"/><path class="cls-29" d="M88.8,448.4,86.7,447c-1.1-.6-31.7,22.8-32.1,23.4s2.3,2.2,2.3,2.2H75.1L70,462.9Z"/></g><g id="pants-3" data-name="pants"><path class="cls-31" d="M171.5,335.2s72.4,12.3,76.9,14.4,10.4,14.1,10.2,21.1S246.2,450,246.2,450s-15.1.9-18.6-2.5c0,0-2.4-46.8-1.3-53.2s3.1-13.6,3.1-13.6l-55.2-.8s8.7,66.7,6.8,70.3-9.9,11-15.1,12.2-65.7,10.2-65.7,10.2l2.7-17.8s37.2-13.5,41.2-14.1a51.6,51.6,0,0,0,9.3-2.9l-19.6-53.2s-12.9-12.3-8.6-35S171.5,335.2,171.5,335.2Z"/><path class="cls-30" d="M171.5,335.2s-42-8.3-46.3,14.4c-.2,1.1-.3,2.1-.5,3.2a102.3,102.3,0,0,0,18.1-12C151.2,333.5,171.5,335.2,171.5,335.2Z"/><path class="cls-30" d="M174.2,379.9s-9.7-.3-11.5-.9-7.5-4.4-7.5-4.4,5.5,8.7,7.8,11.6,15.8,32.3,15.8,32.3Z"/></g><g id="body-3" data-name="body"><path class="cls-10" d="M254.5,286.5l4.3.3,6.9-3.4s4.8-4.4,6.7-3.9,1.1,1.2.9,1.4-4.3,5.4-4.3,5.4h13.1a12.7,12.7,0,0,1-1.6,2.5c-.4.3-10.8,5.4-12,5.7l-14,4.3Z"/><path class="cls-3" d="M131.6,261.6c3.6-.7,17.6-2.1,26.7,1.5s48.6,21.6,48.6,21.6l47.6,1.8s2.1,9.5,0,12.3c0,0-40.7,4.8-52.2,3.7s-30.4-6.9-30.4-6.9-5.5,13.1-4.9,15.4,4.5,24.2,4.5,24.2-17.6-2.5-28.8,4.6-17.5,9.8-17.5,9.8,3.3-25.5,2.4-29.3-5-32.4-4.6-41.5S128.1,262.3,131.6,261.6Z"/><polygon class="cls-6" points="171.9 295.6 159.1 291.5 168.6 304.4 171.9 295.6"/></g><path class="cls-32" d="M294.3,240.9a7.8,7.8,0,0,0-2.2.3h0c-2.1.3-4,2.4-6.4,1.9s-2.2-4.5-2.2-5.6V211.7H210.2v74.6h24.2c1.6-.1,4.4-.5,4.7-2.3s-1.7-4.3-2-6.4h0a14.9,14.9,0,0,1-.2-2.1,8.5,8.5,0,1,1,17,0,7.6,7.6,0,0,1-.3,2.1h0c-.2,2.1-2.3,4-1.9,6.4s3.1,2.2,4.7,2.3h27.1V261.7c0-1.2.2-5.3,2.2-5.7s4.3,1.7,6.4,2h0a14.6,14.6,0,0,0,2.2.3,8.7,8.7,0,0,0,0-17.4Z"/></g><g id="plant_3" data-name="plant 3"><path class="cls-33" d="M303.1,463.3s-1-34.4-13.1-36.9-13.8,21.4,0,45.1Z"/><path class="cls-34" d="M296.8,467.4h-.2c-5.7-23.2-8.2-31.7-8.2-31.8s0-.2.1-.3l.3.2s2.5,8.6,8.2,31.8c.1.1,0,.2-.1.2Z"/><path class="cls-35" d="M307.3,471.5s18.4-17.5,11.5-25.9-24.2,6.2-28.8,25.9Z"/><path class="cls-34" d="M300.1,469.2H300c-.1,0-.2-.1-.1-.2,4.5-10.4,13.5-18.6,13.5-18.7h.3a.2.2,0,0,1,0,.3c-.1.1-8.9,8.3-13.4,18.5Z"/><path class="cls-36" d="M291.7,471.5s-4.7-19.9-14.2-18.2,0,18.1,0,18.1Z"/><path class="cls-34" d="M282.4,469c-.1,0-.2,0-.2-.1L279,457.3c0-.1,0-.2.2-.2s.2,0,.2.1l3.2,11.6a.2.2,0,0,1-.2.2Z"/></g></g></g></g></svg>