<?xml version="1.0" encoding="iso-8859-1"?>
<!-- Generator: Adobe Illustrator 23.1.0, SVG Export Plug-In . SVG Version: 6.00 Build 0)  -->
<svg version="1.1" xmlns="http://www.w3.org/2000/svg" xmlns:xlink="http://www.w3.org/1999/xlink" x="0px" y="0px"
	 viewBox="0 0 1200 1200" enable-background="new 0 0 1200 1200" xml:space="preserve">
<g id="Layer_x5F_Shadow">
	<ellipse fill="#EBF2FA" cx="600.3928833" cy="1148.2783203" rx="594.522522" ry="27.7216396"/>
</g>
<g id="Layer_x5F_Trees_2">
	<g>
		<path fill="#EB5A62" d="M233.2103424,808.3746948c-6.5928497,5.5834351-15.8714905,11.6228638-25.5082092,17.3203125
			c-21.341217,12.5668945-44.4891357,23.3758545-44.4891357,23.3758545s-87.9036255-50.4632568-76.5087128-86.2758179
			c11.3949203-35.8126221,29.3012161-42.3239746,17.9062958-69.9973755
			c-11.3949127-27.6733398-8.1392212-40.696106,11.3949203-60.2302246
			c19.5341415-19.5341797,21.1619797-35.8126221,21.1619797-56.9746094c0-11.1345825,7.6507874-22.708374,17.2877045-27.6244507
			c8.6763458-4.4440308,18.9481354-3.4836426,26.6641083,8.090332c16.2784576,24.4176636,4.8835449,60.2302856,29.3012085,76.508728
			s34.1847534,26.0455322,27.6733704,50.4631958s-14.6506042,39.0682983,1.6278381,55.3467407
			S254.3723297,790.4683838,233.2103424,808.3746948z"/>
		<polygon fill="#CEE0F2" points="185.3832703,783.4423218 166.0511475,806.710083 167.0422363,746.1790771 
			186.6036682,724.2631226 185.4020081,723.1904297 167.0825195,743.7149048 168.0380096,685.3540649 168.7375641,685.8862915 
			186.6437225,662.3562622 185.3618317,661.3811035 168.0581512,684.1193237 168.901886,632.5805054 167.2912292,632.5542603 
			165.8829651,718.5789795 142.597168,697.0892944 141.5050659,698.2731934 165.8475952,720.7380981 165.013443,771.6916504 
			140.9511414,750.7923584 139.8952332,752.0081177 164.9790192,773.7946777 159.1519165,1129.7387695 160.7622833,1129.7650146 
			166.0091095,809.2811279 186.6221771,784.4714966 		"/>
		<path opacity="0.4" fill="#662131" d="M207.7021332,825.6950073
			c-21.341217,12.5668945-44.4891357,23.3758545-44.4891357,23.3758545s-87.9036255-50.4632568-76.5087128-86.2758179
			c11.3949203-35.8126221,29.3012161-42.3239746,17.9062958-69.9973755
			c-11.3949127-27.6733398-8.1392212-40.696106,11.3949203-60.2302246
			c19.5341415-19.5341797,21.1619797-35.8126221,21.1619797-56.9746094c0-11.1345825,7.6507874-22.708374,17.2877045-27.6244507
			c-5.0299835,6.4624634-8.8066864,15.0901489-7.5206299,25.9966431
			c3.2556915,27.6733398-8.1392212,53.7188721-19.5341415,63.4859619c-11.3949127,9.7670288-11.3949127,30.9290161,0,52.0910034
			s-4.8835373,47.2075195-8.1392288,68.3695068C116.493927,775.9318848,152.6645966,826.9971313,207.7021332,825.6950073z"/>
		<path fill="#EB5A62" d="M157.4026337,1130.9737549c0,0,14.4956207-40.8024902,36.5074921-61.2037354
			c22.0118713-20.4013672,35.9706268-6.4425049,27.3806152,14.4956055
			c-8.5899963,20.9381104-53.1506042,46.7081299-53.1506042,46.7081299H157.4026337z"/>
		
			<rect x="151.9245758" y="1108.9620361" transform="matrix(0.6094905 -0.7927934 0.7927934 0.6094905 -810.0412598 575.0280151)" fill="#20437F" width="53.5034676" height="1.6103196"/>
		<path fill="#EB5A62" d="M171.2419891,1130.9737549c0,0-21.4856873-60.4782715-54.1120758-90.7174072
			c-32.6264038-30.2390747-53.3163109-9.5491943-40.5840607,21.4857178s78.7808228,69.2316895,78.7808228,69.2316895H171.2419891z"
			/>
		
			<rect x="138.9047241" y="1059.8887939" transform="matrix(0.7927179 -0.6095887 0.6095887 0.7927179 -641.3082886 313.0806885)" fill="#20437F" width="1.6103196" height="79.3040619"/>
	</g>
	<g>
		<path fill="#EB5A62" d="M1002.6002197,861.598938c-5.5067749,4.6635742-13.256897,9.7081299-21.3061523,14.467041
			c-17.8255615,10.4967041-37.1601562,19.5249634-37.1601562,19.5249634s-73.4228516-42.1500854-63.9050903-72.0631104
			s24.4743042-35.3517456,14.956543-58.4663086c-9.5178223-23.114624-6.7984619-33.9920654,9.5177612-50.3082275
			c16.3161621-16.3162231,17.6758423-29.9130249,17.6758423-47.5888672c0-9.300354,6.3904419-18.9675293,14.4398193-23.0737915
			c7.2470703-3.7119141,15.8267212-2.909729,22.2716064,6.7575684
			c13.5968018,20.3952637,4.0790405,50.3082275,24.4742432,63.9050903
			c20.3952637,13.5968018,28.5533447,21.7548828,23.114624,42.1501465
			c-5.4387207,20.3952026-12.2371216,32.6323242,1.3596802,46.229187
			C1021.6357422,816.7294312,1020.276062,846.642395,1002.6002197,861.598938z"/>
		<polygon fill="#CEE0F2" points="962.6519165,840.7737427 946.5045166,860.2085571 947.3322754,809.6491089 
			963.6712646,791.3435059 962.6676025,790.4475098 947.3659668,807.5908813 948.1640625,758.8441162 948.7483521,759.2886353 
			963.7047729,739.6348267 962.6340332,738.8203125 948.1808472,757.8127441 948.8856201,714.7641602 947.5402832,714.7422485 
			946.3640137,786.5957031 926.9141846,768.6461182 926.0020142,769.6350098 946.3344727,788.3991699 945.6377563,830.9588623 
			925.5393066,813.5023804 924.6573486,814.5178833 945.6089478,832.7154541 940.7418213,1130.0230713 942.086853,1130.0449219 
			946.4693604,862.3560181 963.6867676,841.6334229 		"/>
		<path opacity="0.4" fill="#662131" d="M981.2940674,876.065979
			c-17.8255615,10.4967041-37.1601562,19.5249634-37.1601562,19.5249634s-73.4228516-42.1500854-63.9050903-72.0631104
			s24.4743042-35.3517456,14.956543-58.4663086c-9.5178223-23.114624-6.7984619-33.9920654,9.5177612-50.3082275
			c16.3161621-16.3162231,17.6758423-29.9130249,17.6758423-47.5888672c0-9.300354,6.3904419-18.9675293,14.4398193-23.0737915
			c-4.201355,5.3978882-7.355896,12.6043091-6.2817383,21.7141113c2.7193604,23.114563-6.7984009,44.8695068-16.3161621,53.0275879
			s-9.5177612,25.8339233,0,43.5098267c9.5177612,17.6758423-4.0790405,39.4307251-6.7984009,57.1066284
			C905.111084,834.5005493,935.3231812,877.1536255,981.2940674,876.065979z"/>
		<path fill="#EB5A62" d="M939.2807007,1131.0545654c0,0,12.107666-34.0809326,30.4934082-51.1213379
			c18.3857422-17.0405273,30.0449829-5.3812256,22.8700562,12.107666s-44.3948364,39.0136719-44.3948364,39.0136719H939.2807007z"/>
		
			<rect x="934.7050781" y="1112.6689453" transform="matrix(0.6094905 -0.7927934 0.7927934 0.6094905 -508.9126587 1193.5131836)" fill="#20437F" width="44.6895676" height="1.3450435"/>
		<path fill="#EB5A62" d="M950.84021,1131.0545654c0,0-17.946228-50.5153809-45.197937-75.7729492
			c-27.2516479-25.2576904-44.5332031-7.9761963-33.8984375,17.946167
			c10.6348267,25.9223633,65.8028564,57.8267822,65.8028564,57.8267822H950.84021z"/>
		
			<rect x="923.8300171" y="1071.6798096" transform="matrix(0.7927179 -0.6095887 0.6095887 0.7927179 -481.8405762 792.5715332)" fill="#20437F" width="1.3450435" height="66.2398987"/>
	</g>
</g>
<g id="Layer_x5F_Trees_1">
	<g>
		<path fill="#FFC763" d="M1112.6337891,876.0994873c-5.5068359,4.6635742-13.256958,9.7081299-21.3061523,14.467041
			c-17.8255615,10.4967041-37.1601562,19.5249634-37.1601562,19.5249634s-73.4228516-42.1500854-63.9050293-72.0631104
			c9.5177612-29.9130249,24.4742432-35.3517456,14.9564819-58.4663086
			c-9.5177612-23.114624-6.7984009-33.9920654,9.5177612-50.3082275
			c16.3161621-16.3162231,17.6759033-29.9130249,17.6759033-47.5888672c0-9.300354,6.3903809-18.9675293,14.4398193-23.0737915
			c7.2469482-3.7119141,15.8266602-2.909729,22.2716064,6.7575684
			c13.5968018,20.3952637,4.0789795,50.3082275,24.4742432,63.9050903
			c20.3951416,13.5968018,28.5533447,21.7548828,23.114624,42.1501465
			c-5.4388428,20.3952026-12.2371826,32.6323242,1.3596191,46.229187
			C1131.6693115,831.2299805,1130.3096924,861.1429443,1112.6337891,876.0994873z"/>
		<polygon fill="#CEE0F2" points="1072.6855469,855.274292 1056.5380859,874.7091064 1057.3658447,824.1496582 
			1073.704834,805.8440552 1072.7011719,804.9480591 1057.3995361,822.0914307 1058.1976318,773.3446655 1058.7819824,773.7891846 
			1073.7382812,754.135376 1072.6676025,753.3209229 1058.2144775,772.3132935 1058.9191895,729.2647095 1057.5738525,729.2427979 
			1056.397583,801.0962524 1036.9477539,783.1466675 1036.0356445,784.1355591 1056.368042,802.8997192 1055.6712646,845.4594116 
			1035.572876,828.0029297 1034.690918,829.0184326 1055.6425781,847.2160034 1050.7753906,1144.5235596 1052.1204834,1144.5455322 
			1056.5029297,876.8565674 1073.7203369,856.1339722 		"/>
		<path opacity="0.2" fill="#563112" d="M1091.3276367,890.5665283
			c-17.8255615,10.4967041-37.1601562,19.5249634-37.1601562,19.5249634s-73.4228516-42.1500854-63.9050293-72.0631104
			c9.5177612-29.9130249,24.4742432-35.3517456,14.9564819-58.4663086
			c-9.5177612-23.114624-6.7984009-33.9920654,9.5177612-50.3082275
			c16.3161621-16.3162231,17.6759033-29.9130249,17.6759033-47.5888672c0-9.300354,6.3903809-18.9675293,14.4398193-23.0737915
			c-4.201416,5.3978882-7.355957,12.6043091-6.2817383,21.7141113c2.7193604,23.114563-6.7984619,44.8695068-16.3161621,53.0275879
			c-9.5178223,8.1580811-9.5178223,25.8339233,0,43.5098267c9.5177002,17.6758423-4.0791016,39.4307251-6.7984619,57.1066284
			C1015.1446533,849.0010986,1045.3568115,891.6541748,1091.3276367,890.5665283z"/>
		<path fill="#FFC763" d="M1049.3143311,1145.5550537c0,0,12.107666-34.0808105,30.4934082-51.1213379
			c18.3857422-17.0404053,30.0449219-5.3811035,22.8699951,12.107666
			c-7.1749268,17.4888916-44.3947754,39.0136719-44.3947754,39.0136719H1049.3143311z"/>
		
			<rect x="1044.7386475" y="1127.1694336" transform="matrix(0.6094905 -0.7927934 0.7927934 0.6094905 -477.4394531 1286.409668)" fill="#20437F" width="44.6895676" height="1.3450435"/>
		<path fill="#FFC763" d="M1060.8737793,1145.5550537c0,0-17.946167-50.5152588-45.197876-75.7729492
			s-44.5332642-7.9760742-33.8984375,17.9462891c10.6347656,25.9222412,65.8028564,57.8266602,65.8028564,57.8266602H1060.8737793z"
			/>
		
			<rect x="1033.8636475" y="1086.1804199" transform="matrix(0.7927179 -0.6095887 0.6095887 0.7927179 -467.8719482 862.6524048)" fill="#20437F" width="1.3450435" height="66.2398987"/>
	</g>
</g>
<g id="Layer_x5F_Growth_bar">
	<g>
		<path fill="#20437F" d="M871.2119751,367.7137756v749.0983887c0,7.958252-6.4484863,14.4067383-14.4067383,14.4067383H729.5245361
			c-7.958252,0-14.4067383-6.4484863-14.4067383-14.4067383V367.7137756c0-7.958252,6.4484863-14.4067383,14.4067383-14.4067383
			h127.2807007C864.7634888,353.3070374,871.2119751,359.7555237,871.2119751,367.7137756z"/>
		<path fill="#FFC763" d="M669.057251,504.1212769v612.6908569c0,7.958252-6.4484863,14.4067383-14.4067383,14.4067383H527.369812
			c-7.958252,0-14.4067383-6.4484863-14.4067383-14.4067383V504.1212769c0-7.958252,6.4484863-14.4067383,14.4067383-14.4067383
			h127.2807007C662.6087646,489.7145386,669.057251,496.1630249,669.057251,504.1212769z"/>
		<path fill="#EB5A62" d="M488.2268372,675.6286621v441.1834717c0,7.958252-6.4484863,14.4067383-14.4067383,14.4067383H346.5394287
			c-7.9582825,0-14.4067383-6.4484863-14.4067383-14.4067383V675.6286621c0-7.958252,6.4484558-14.4067383,14.4067383-14.4067383
			h127.2806702C481.7783508,661.2219238,488.2268372,667.6704102,488.2268372,675.6286621z"/>
		<path opacity="0.4" fill="#662131" d="M488.2268372,929.0811768v187.730957
			c0,7.958252-6.4484863,14.4067383-14.4067383,14.4067383H346.5394287c-7.9582825,0-14.4067383-6.4484863-14.4067383-14.4067383
			v-102.800354L488.2268372,929.0811768z"/>
		<polygon opacity="0.4" fill="#662131" points="488.2268372,826.2893677 488.2268372,890.3817749 332.1326904,976.0800781 
			332.1326904,911.876709 		"/>
		<path opacity="0.2" fill="#563112" d="M669.057251,862.8222046v253.9899292
			c0,7.958252-6.4484863,14.4067383-14.4067383,14.4067383H527.369812c-7.958252,0-14.4067383-6.4484863-14.4067383-14.4067383
			V954.1074829L669.057251,862.8222046z"/>
		<polygon opacity="0.2" fill="#563112" points="669.057251,747.9437256 669.057251,809.2469482 512.9630737,901.5131226 
			512.9630737,835.7402954 		"/>
		<path opacity="0.4" d="M871.2119751,732.0528564v384.7592773c0,7.958252-6.4484863,14.4067383-14.4067383,14.4067383H729.5245361
			c-7.958252,0-14.4067383-6.4484863-14.4067383-14.4067383V823.3125L871.2119751,732.0528564z"/>
		<polygon opacity="0.4" points="871.2119751,613.8563232 871.2119751,680.2006226 715.1177979,772.0828857 
			715.1177979,711.1123657 		"/>
		<path fill="#CEE0F2" d="M844.909668,1113.5484619L844.909668,1113.5484619c-3.6829834,0-6.6686401-2.9855957-6.6686401-6.6685791
			V375.5523071c0-3.6829834,2.9856567-6.6686401,6.6686401-6.6686401l0,0c3.6829834,0,6.6686401,2.9856567,6.6686401,6.6686401
			v731.3275757C851.5783081,1110.5628662,848.5926514,1113.5484619,844.909668,1113.5484619z"/>
		<path fill="#FFD694" d="M649.9440918,1119.1057129h-1.2958374c-3.3251343,0-6.0206909-2.6956787-6.0206909-6.020752V518.1343384
			c0-3.3251343,2.6955566-6.0206909,6.0206909-6.0206909h1.2958374c3.3251953,0,6.020752,2.6955566,6.020752,6.0206909v594.9506226
			C655.9648438,1116.4100342,653.2692871,1119.1057129,649.9440918,1119.1057129z"/>
		<path fill="#F47A86" d="M466.4168701,1119.3905029h-3.239502c-2.7884216,0-5.0488892-2.260498-5.0488892-5.0488281V697.5878296
			c0-2.7883911,2.2604675-5.0488892,5.0488892-5.0488892h3.239502c2.7884216,0,5.0488892,2.260498,5.0488892,5.0488892v416.7538452
			C471.4657593,1117.1300049,469.2052917,1119.3905029,466.4168701,1119.3905029z"/>
	</g>
</g>
<g id="Layer_x5F_Rocket">
	<g>
		<g>
			<g>
				<g>
					<path fill="#FFC763" d="M808.4039307,204.990921h-31.2949829c0,0-10.2615967,10.7513885-8.8492432,26.5736237
						c0,0,2.9021606-3.2821655,5.206604-4.986908c0.4193726-0.3102264,0.9970093,0.0452881,0.9170532,0.5606537
						c-0.5540161,3.5732727-0.0785522,14.2948151,18.3731079,32.5103302
						c18.4517822-18.2155151,18.927063-28.9370575,18.3731079-32.5103302
						c-0.0799561-0.5153656,0.4976196-0.8708801,0.9169312-0.5607452c2.3045654,1.7047577,5.2067261,4.9869995,5.2067261,4.9869995
						C818.6654663,215.7423096,808.4039307,204.990921,808.4039307,204.990921z"/>
				</g>
			</g>
			<g>
				<path fill="#1F184B" d="M770.1810913,197.8103333l2.2750854,4.3892212
					c0.968811,1.8690491,2.8984985,3.0423889,5.0036621,3.0423889h15.0830688h0.0238037h15.0831299
					c2.1052246,0,4.0349121-1.1733398,5.0037231-3.0423889l2.2750244-4.3892212H770.1810913z"/>
				<path fill="#3F3C80" d="M763.7333984,189.4856415l2.9306641,5.6541138
					c1.2479858,2.4076843,3.7337646,3.9190674,6.4456177,3.9190674h19.4298096h0.0306396h19.4298096
					c2.7119141,0,5.1976929-1.5113831,6.4456787-3.9190674l2.9307861-5.6541138H763.7333984z"/>
			</g>
			<g>
				<g>
					<path fill="#EB5A62" d="M820.3503418,146.1741333c0,0,49.0527344,16.848175,45.9327393,66.1448517
						c0,0-41.2991333-42.0757294-63.7781372-33.0724335L820.3503418,146.1741333z"/>
				</g>
				<g>
					<path fill="#EB5A62" d="M765.1625366,146.1741333c0,0-49.0526733,16.848175-45.9326782,66.1448517
						c0,0,41.2990723-42.0757294,63.7780762-33.0724335L765.1625366,146.1741333z"/>
				</g>
			</g>
			<path fill="#EB5A62" d="M816.3757324,51.9311295C810.7015381,37.6797333,802.96875,23.7694397,792.5460815,11
				l-0.0071411,0.0566378L792.5313721,11c-10.3146973,12.6373138-17.9918823,26.3925362-23.6498413,40.4893723
				C779.911377,48.8528328,796.5599976,47.071312,816.3757324,51.9311295z"/>
			<path fill="#CEE0F2" d="M817.026062,53.6044922l0.0057983,0.0017052l-0.656189-1.6750679
				c-26.2407227-6.7342262-47.4940796-0.4417572-47.4940796-0.4417572l-0.8326416,2.1168251
				c0.0012817-0.0004272,0.0025635-0.0007668,0.0037231-0.0012779
				c-21.68573,56.1490326-11.8538208,117.1014862-8.3668823,134.3092041c0.5617676,2.7720032,3.005127,4.7570343,5.833374,4.7570343
				h3.7055054h47.0183105h3.3153076c2.8283081,0,5.2716675-1.9850311,5.8334961-4.7570343
				C828.87854,170.7063293,838.7119751,109.7534332,817.026062,53.6044922z"/>
			<g>
				<circle fill="#20437F" cx="791.5661011" cy="97.3112793" r="22.9249344"/>
				<circle fill="#FFFFFF" cx="791.5661011" cy="97.3112793" r="15.2501431"/>
			</g>
			<path fill="#EB5A62" d="M792.7564697,152.3151093c-16.4378662,37.4140625,0,69.7599335,0,69.7599335
				S809.1943359,189.7291718,792.7564697,152.3151093z"/>
		</g>
		<path fill="#FFC763" d="M847.4404907,333.105072c-2.1880493-6.3666992-9.4816895-2.3875427-9.4816895-2.3875427
			s5.8348999-8.7541809-1.4587402-15.9167175c-7.2935791-7.1625366-18.2340088,3.1833496-18.2340088,3.1833496
			s2.9174194-7.958374,0-9.5500488s-9.4816895,7.958374-9.4816895,7.958374v-81.1753235
			c-0.000061-7.1625214-4.3762207-5.5708618-4.3762207-5.5708618l-11.6697388,4.7750244l-11.6697998-4.7750244
			c0,0-4.3761597-1.5916748-4.3761597,5.5708466v81.1753082c0,0-6.56427-9.5500488-9.4816895-7.958374s0,9.5500488,0,9.5500488
			s-10.9404297-10.3458862-18.2340088-3.1833496c-7.2936401,7.1625061-1.4587402,15.9167175-1.4587402,15.9167175
			s-7.2936401-3.979187-9.4816895,2.3875122c0,0-11.6697998-8.7542114-11.6697998,19.8959045l66.3718872,0.0000305
			l66.3718872,0.0000305C859.1102905,324.3508606,847.4404907,333.105072,847.4404907,333.105072z"/>
	</g>
</g>
<g id="Layer_x5F_Graph">
	<g>
		<path fill="#CEE0F2" d="M221.3710632,279.8488464v355.6899719h435.8694763V279.8488464H221.3710632z M656.3875732,291.6796875
			h-25.3759766v-10.9778748h25.3759766V291.6796875z M401.7324829,445.3852844h24.6254578v24.6170959h-24.6254578V445.3852844z
			 M400.8795166,470.0023804h-24.6254578v-24.6170959h24.6254578V470.0023804z M451.8276062,444.5322876H427.210907v-24.625
			h24.6166992V444.5322876z M452.6805725,419.9072876h24.6254578v24.625h-24.6254578V419.9072876z M451.8276062,445.3852844
			v24.6170959H427.210907v-24.6170959H451.8276062z M426.3579407,444.5322876h-24.6254578v-24.625h24.6254578V444.5322876z
			 M426.3579407,470.8553772v24.6250305h-24.6254578v-24.6250305H426.3579407z M427.210907,470.8553772h24.6166992v24.6250305
			H427.210907V470.8553772z M452.6805725,470.8553772h24.6254578v24.6250305h-24.6254578V470.8553772z M452.6805725,470.0023804
			v-24.6170959h24.6254578v24.6170959H452.6805725z M478.1589966,445.3852844h24.6254578v24.6170959h-24.6254578V445.3852844z
			 M478.1589966,444.5322876v-24.625h24.6254578v24.625H478.1589966z M478.1589966,419.0542908v-24.6254272h24.6254578v24.6254272
			H478.1589966z M477.3060303,419.0542908h-24.6254578v-24.6254272h24.6254578V419.0542908z M451.8276062,419.0542908H427.210907
			v-24.6254272h24.6166992V419.0542908z M426.3579407,419.0542908h-24.6254578v-24.6254272h24.6254578V419.0542908z
			 M400.8795166,419.0542908h-24.6254578v-24.6254272h24.6254578V419.0542908z M400.8795166,419.9072876v24.625h-24.6254578v-24.625
			H400.8795166z M375.4010925,444.5322876h-24.6166992v-24.625h24.6166992V444.5322876z M375.4010925,445.3852844v24.6170959
			h-24.6166992v-24.6170959H375.4010925z M375.4010925,470.8553772v24.6250305h-24.6166992v-24.6250305H375.4010925z
			 M376.2540588,470.8553772h24.6254578v24.6250305h-24.6254578V470.8553772z M400.8795166,496.333374v24.6254272h-24.6254578
			V496.333374H400.8795166z M401.7324829,496.333374h24.6254578v24.6254272h-24.6254578V496.333374z M427.210907,496.333374
			h24.6166992v24.6254272H427.210907V496.333374z M452.6805725,496.333374h24.6254578v24.6254272h-24.6254578V496.333374z
			 M478.1589966,496.333374h24.6254578v24.6254272h-24.6254578V496.333374z M478.1589966,495.4804077v-24.6250305h24.6254578
			v24.6250305H478.1589966z M503.6374207,470.8553772h24.6166687v24.6250305h-24.6166687V470.8553772z M503.6374207,470.0023804
			v-24.6170959h24.6166687v24.6170959H503.6374207z M503.6374207,444.5322876v-24.625h24.6166687v24.625H503.6374207z
			 M503.6374207,419.0542908v-24.6254272h24.6166687v24.6254272H503.6374207z M503.6374207,393.5758667v-24.6166992h24.6166687
			v24.6166992H503.6374207z M502.7844543,393.5758667h-24.6254578v-24.6166992h24.6254578V393.5758667z M477.3060303,393.5758667
			h-24.6254578v-24.6166992h24.6254578V393.5758667z M451.8276062,393.5758667H427.210907v-24.6166992h24.6166992V393.5758667z
			 M426.3579407,393.5758667h-24.6254578v-24.6166992h24.6254578V393.5758667z M400.8795166,393.5758667h-24.6254578v-24.6166992
			h24.6254578V393.5758667z M375.4010925,393.5758667h-24.6166992v-24.6166992h24.6166992V393.5758667z M375.4010925,394.4288635
			v24.6254272h-24.6166992v-24.6254272H375.4010925z M349.931427,419.0542908h-24.6254578v-24.6254272h24.6254578V419.0542908z
			 M349.931427,419.9072876v24.625h-24.6254578v-24.625H349.931427z M349.931427,445.3852844v24.6170959h-24.6254578v-24.6170959
			H349.931427z M349.931427,470.8553772v24.6250305h-24.6254578v-24.6250305H349.931427z M349.931427,496.333374v24.6254272
			h-24.6254578V496.333374H349.931427z M350.7843933,496.333374h24.6166992v24.6254272h-24.6166992V496.333374z
			 M375.4010925,521.8117676v24.6166992h-24.6166992v-24.6166992H375.4010925z M376.2540588,521.8117676h24.6254578v24.6166992
			h-24.6254578V521.8117676z M401.7324829,521.8117676h24.6254578v24.6166992h-24.6254578V521.8117676z M427.210907,521.8117676
			h24.6166992v24.6166992H427.210907V521.8117676z M452.6805725,521.8117676h24.6254578v24.6166992h-24.6254578V521.8117676z
			 M478.1589966,521.8117676h24.6254578v24.6166992h-24.6254578V521.8117676z M503.6374207,521.8117676h24.6166687v24.6166992
			h-24.6166687V521.8117676z M503.6374207,520.9588013V496.333374h24.6166687v24.6254272H503.6374207z M529.1071167,496.333374
			h24.6254272v24.6254272h-24.6254272V496.333374z M529.1071167,495.4804077v-24.6250305h24.6254272v24.6250305H529.1071167z
			 M529.1071167,470.0023804v-24.6170959h24.6254272v24.6170959H529.1071167z M529.1071167,444.5322876v-24.625h24.6254272v24.625
			H529.1071167z M529.1071167,419.0542908v-24.6254272h24.6254272v24.6254272H529.1071167z M529.1071167,393.5758667v-24.6166992
			h24.6254272v24.6166992H529.1071167z M529.1071167,368.1062012v-24.6254272h24.6254272v24.6254272H529.1071167z
			 M528.2540894,368.1062012h-24.6166687v-24.6254272h24.6166687V368.1062012z M502.7844543,368.1062012h-24.6254578v-24.6254272
			h24.6254578V368.1062012z M477.3060303,368.1062012h-24.6254578v-24.6254272h24.6254578V368.1062012z M451.8276062,368.1062012
			H427.210907v-24.6254272h24.6166992V368.1062012z M426.3579407,368.1062012h-24.6254578v-24.6254272h24.6254578V368.1062012z
			 M400.8795166,368.1062012h-24.6254578v-24.6254272h24.6254578V368.1062012z M375.4010925,368.1062012h-24.6166992v-24.6254272
			h24.6166992V368.1062012z M349.931427,368.1062012h-24.6254578v-24.6254272h24.6254578V368.1062012z M349.931427,368.9591675
			v24.6166992h-24.6254578v-24.6166992H349.931427z M324.4530029,393.5758667h-24.6250305v-24.6166992h24.6250305V393.5758667z
			 M324.4530029,394.4288635v24.6254272h-24.6250305v-24.6254272H324.4530029z M324.4530029,419.9072876v24.625h-24.6250305v-24.625
			H324.4530029z M324.4530029,445.3852844v24.6170959h-24.6250305v-24.6170959H324.4530029z M324.4530029,470.8553772v24.6250305
			h-24.6250305v-24.6250305H324.4530029z M324.4530029,496.333374v24.6254272h-24.6250305V496.333374H324.4530029z
			 M324.4530029,521.8117676v24.6166992h-24.6250305v-24.6166992H324.4530029z M325.3059692,521.8117676h24.6254578v24.6166992
			h-24.6254578V521.8117676z M349.931427,547.2814331v24.6254883h-24.6254578v-24.6254883H349.931427z M350.7843933,547.2814331
			h24.6166992v24.6254883h-24.6166992V547.2814331z M376.2540588,547.2814331h24.6254578v24.6254883h-24.6254578V547.2814331z
			 M401.7324829,547.2814331h24.6254578v24.6254883h-24.6254578V547.2814331z M427.210907,547.2814331h24.6166992v24.6254883
			H427.210907V547.2814331z M452.6805725,547.2814331h24.6254578v24.6254883h-24.6254578V547.2814331z M478.1589966,547.2814331
			h24.6254578v24.6254883h-24.6254578V547.2814331z M503.6374207,547.2814331h24.6166687v24.6254883h-24.6166687V547.2814331z
			 M529.1071167,547.2814331h24.6254272v24.6254883h-24.6254272V547.2814331z M529.1071167,546.4284668v-24.6166992h24.6254272
			v24.6166992H529.1071167z M554.5855103,521.8117676h24.625v24.6166992h-24.625V521.8117676z M554.5855103,520.9588013V496.333374
			h24.625v24.6254272H554.5855103z M554.5855103,495.4804077v-24.6250305h24.625v24.6250305H554.5855103z M554.5855103,470.0023804
			v-24.6170959h24.625v24.6170959H554.5855103z M554.5855103,444.5322876v-24.625h24.625v24.625H554.5855103z
			 M554.5855103,419.0542908v-24.6254272h24.625v24.6254272H554.5855103z M554.5855103,393.5758667v-24.6166992h24.625v24.6166992
			H554.5855103z M554.5855103,368.1062012v-24.6254272h24.625v24.6254272H554.5855103z M554.5855103,342.6277771v-24.6254272h24.625
			v24.6254272H554.5855103z M553.7325439,342.6277771h-24.6254272v-24.6254272h24.6254272V342.6277771z M528.2540894,342.6277771
			h-24.6166687v-24.6254272h24.6166687V342.6277771z M502.7844543,342.6277771h-24.6254578v-24.6254272h24.6254578V342.6277771z
			 M477.3060303,342.6277771h-24.6254578v-24.6254272h24.6254578V342.6277771z M451.8276062,342.6277771H427.210907v-24.6254272
			h24.6166992V342.6277771z M426.3579407,342.6277771h-24.6254578v-24.6254272h24.6254578V342.6277771z M400.8795166,342.6277771
			h-24.6254578v-24.6254272h24.6254578V342.6277771z M375.4010925,342.6277771h-24.6166992v-24.6254272h24.6166992V342.6277771z
			 M349.931427,342.6277771h-24.6254578v-24.6254272h24.6254578V342.6277771z M324.4530029,342.6277771h-24.6250305v-24.6254272
			h24.6250305V342.6277771z M324.4530029,343.4807739v24.6254272h-24.6250305v-24.6254272H324.4530029z M298.9750061,368.1062012
			h-24.6171265v-24.6254272h24.6171265V368.1062012z M298.9750061,368.9591675v24.6166992h-24.6171265v-24.6166992H298.9750061z
			 M298.9750061,394.4288635v24.6254272h-24.6171265v-24.6254272H298.9750061z M298.9750061,419.9072876v24.625h-24.6171265v-24.625
			H298.9750061z M298.9750061,445.3852844v24.6170959h-24.6171265v-24.6170959H298.9750061z M298.9750061,470.8553772v24.6250305
			h-24.6171265v-24.6250305H298.9750061z M298.9750061,496.333374v24.6254272h-24.6171265V496.333374H298.9750061z
			 M298.9750061,521.8117676v24.6166992h-24.6171265v-24.6166992H298.9750061z M298.9750061,547.2814331v24.6254883h-24.6171265
			v-24.6254883H298.9750061z M299.8279724,547.2814331h24.6250305v24.6254883h-24.6250305V547.2814331z M324.4530029,572.7598877
			v24.6254272h-24.6250305v-24.6254272H324.4530029z M325.3059692,572.7598877h24.6254578v24.6254272h-24.6254578V572.7598877z
			 M350.7843933,572.7598877h24.6166992v24.6254272h-24.6166992V572.7598877z M376.2540588,572.7598877h24.6254578v24.6254272
			h-24.6254578V572.7598877z M401.7324829,572.7598877h24.6254578v24.6254272h-24.6254578V572.7598877z M427.210907,572.7598877
			h24.6166992v24.6254272H427.210907V572.7598877z M452.6805725,572.7598877h24.6254578v24.6254272h-24.6254578V572.7598877z
			 M478.1589966,572.7598877h24.6254578v24.6254272h-24.6254578V572.7598877z M503.6374207,572.7598877h24.6166687v24.6254272
			h-24.6166687V572.7598877z M529.1071167,572.7598877h24.6254272v24.6254272h-24.6254272V572.7598877z M554.5855103,572.7598877
			h24.625v24.6254272h-24.625V572.7598877z M554.5855103,571.9069214v-24.6254883h24.625v24.6254883H554.5855103z
			 M580.0635376,547.2814331h24.6170654v24.6254883h-24.6170654V547.2814331z M580.0635376,546.4284668v-24.6166992h24.6170654
			v24.6166992H580.0635376z M580.0635376,520.9588013V496.333374h24.6170654v24.6254272H580.0635376z M580.0635376,495.4804077
			v-24.6250305h24.6170654v24.6250305H580.0635376z M580.0635376,470.0023804v-24.6170959h24.6170654v24.6170959H580.0635376z
			 M580.0635376,444.5322876v-24.625h24.6170654v24.625H580.0635376z M580.0635376,419.0542908v-24.6254272h24.6170654v24.6254272
			H580.0635376z M580.0635376,393.5758667v-24.6166992h24.6170654v24.6166992H580.0635376z M580.0635376,368.1062012v-24.6254272
			h24.6170654v24.6254272H580.0635376z M580.0635376,342.6277771v-24.6254272h24.6170654v24.6254272H580.0635376z
			 M580.0635376,317.1493835v-24.6166992h24.6170654v24.6166992H580.0635376z M579.2105103,317.1493835h-24.625v-24.6166992h24.625
			V317.1493835z M553.7325439,317.1493835h-24.6254272v-24.6166992h24.6254272V317.1493835z M528.2540894,317.1493835h-24.6166687
			v-24.6166992h24.6166687V317.1493835z M502.7844543,317.1493835h-24.6254578v-24.6166992h24.6254578V317.1493835z
			 M477.3060303,317.1493835h-24.6254578v-24.6166992h24.6254578V317.1493835z M451.8276062,317.1493835H427.210907v-24.6166992
			h24.6166992V317.1493835z M426.3579407,317.1493835h-24.6254578v-24.6166992h24.6254578V317.1493835z M400.8795166,317.1493835
			h-24.6254578v-24.6166992h24.6254578V317.1493835z M375.4010925,317.1493835h-24.6166992v-24.6166992h24.6166992V317.1493835z
			 M349.931427,317.1493835h-24.6254578v-24.6166992h24.6254578V317.1493835z M324.4530029,317.1493835h-24.6250305v-24.6166992
			h24.6250305V317.1493835z M298.9750061,317.1493835h-24.6171265v-24.6166992h24.6171265V317.1493835z M298.9750061,318.0023499
			v24.6254272h-24.6171265v-24.6254272H298.9750061z M273.5049133,342.6277771h-24.6254425v-24.6254272h24.6254425V342.6277771z
			 M273.5049133,343.4807739v24.6254272h-24.6254425v-24.6254272H273.5049133z M273.5049133,368.9591675v24.6166992h-24.6254425
			v-24.6166992H273.5049133z M273.5049133,394.4288635v24.6254272h-24.6254425v-24.6254272H273.5049133z M273.5049133,419.9072876
			v24.625h-24.6254425v-24.625H273.5049133z M273.5049133,445.3852844v24.6170959h-24.6254425v-24.6170959H273.5049133z
			 M273.5049133,470.8553772v24.6250305h-24.6254425v-24.6250305H273.5049133z M273.5049133,496.333374v24.6254272h-24.6254425
			V496.333374H273.5049133z M273.5049133,521.8117676v24.6166992h-24.6254425v-24.6166992H273.5049133z M273.5049133,547.2814331
			v24.6254883h-24.6254425v-24.6254883H273.5049133z M273.5049133,572.7598877v24.6254272h-24.6254425v-24.6254272H273.5049133z
			 M274.3578796,572.7598877h24.6171265v24.6254272h-24.6171265V572.7598877z M298.9750061,598.2382812v24.6166992h-24.6171265
			v-24.6166992H298.9750061z M299.8279724,598.2382812h24.6250305v24.6166992h-24.6250305V598.2382812z M325.3059692,598.2382812
			h24.6254578v24.6166992h-24.6254578V598.2382812z M350.7843933,598.2382812h24.6166992v24.6166992h-24.6166992V598.2382812z
			 M376.2540588,598.2382812h24.6254578v24.6166992h-24.6254578V598.2382812z M401.7324829,598.2382812h24.6254578v24.6166992
			h-24.6254578V598.2382812z M427.210907,598.2382812h24.6166992v24.6166992H427.210907V598.2382812z M452.6805725,598.2382812
			h24.6254578v24.6166992h-24.6254578V598.2382812z M478.1589966,598.2382812h24.6254578v24.6166992h-24.6254578V598.2382812z
			 M503.6374207,598.2382812h24.6166687v24.6166992h-24.6166687V598.2382812z M529.1071167,598.2382812h24.6254272v24.6166992
			h-24.6254272V598.2382812z M554.5855103,598.2382812h24.625v24.6166992h-24.625V598.2382812z M580.0635376,598.2382812h24.6170654
			v24.6166992h-24.6170654V598.2382812z M580.0635376,597.3853149v-24.6254272h24.6170654v24.6254272H580.0635376z
			 M605.5336304,572.7598877h24.625v24.6254272h-24.625V572.7598877z M605.5336304,571.9069214v-24.6254883h24.625v24.6254883
			H605.5336304z M605.5336304,546.4284668v-24.6166992h24.625v24.6166992H605.5336304z M605.5336304,520.9588013V496.333374h24.625
			v24.6254272H605.5336304z M605.5336304,495.4804077v-24.6250305h24.625v24.6250305H605.5336304z M605.5336304,470.0023804
			v-24.6170959h24.625v24.6170959H605.5336304z M605.5336304,444.5322876v-24.625h24.625v24.625H605.5336304z
			 M605.5336304,419.0542908v-24.6254272h24.625v24.6254272H605.5336304z M605.5336304,393.5758667v-24.6166992h24.625v24.6166992
			H605.5336304z M605.5336304,368.1062012v-24.6254272h24.625v24.6254272H605.5336304z M605.5336304,342.6277771v-24.6254272h24.625
			v24.6254272H605.5336304z M605.5336304,317.1493835v-24.6166992h24.625v24.6166992H605.5336304z M605.5336304,291.6796875
			v-10.9778748h24.625v10.9778748H605.5336304z M604.680603,291.6796875h-24.6170654v-10.9778748h24.6170654V291.6796875z
			 M579.2105103,291.6796875h-24.625v-10.9778748h24.625V291.6796875z M553.7325439,291.6796875h-24.6254272v-10.9778748h24.6254272
			V291.6796875z M528.2540894,291.6796875h-24.6166687v-10.9778748h24.6166687V291.6796875z M502.7844543,291.6796875h-24.6254578
			v-10.9778748h24.6254578V291.6796875z M477.3060303,291.6796875h-24.6254578v-10.9778748h24.6254578V291.6796875z
			 M451.8276062,291.6796875H427.210907v-10.9778748h24.6166992V291.6796875z M426.3579407,291.6796875h-24.6254578v-10.9778748
			h24.6254578V291.6796875z M400.8795166,291.6796875h-24.6254578v-10.9778748h24.6254578V291.6796875z M375.4010925,291.6796875
			h-24.6166992v-10.9778748h24.6166992V291.6796875z M349.931427,291.6796875h-24.6254578v-10.9778748h24.6254578V291.6796875z
			 M324.4530029,291.6796875h-24.6250305v-10.9778748h24.6250305V291.6796875z M298.9750061,291.6796875h-24.6171265v-10.9778748
			h24.6171265V291.6796875z M273.5049133,291.6796875h-24.6254425v-10.9778748h24.6254425V291.6796875z M273.5049133,292.5326843
			v24.6166992h-24.6254425v-24.6166992H273.5049133z M248.0264893,317.1493835h-25.8024445v-24.6166992h25.8024445V317.1493835z
			 M248.0264893,318.0023499v24.6254272h-25.8024445v-24.6254272H248.0264893z M248.0264893,343.4807739v24.6254272h-25.8024445
			v-24.6254272H248.0264893z M248.0264893,368.9591675v24.6166992h-25.8024445v-24.6166992H248.0264893z M248.0264893,394.4288635
			v24.6254272h-25.8024445v-24.6254272H248.0264893z M248.0264893,419.9072876v24.625h-25.8024445v-24.625H248.0264893z
			 M248.0264893,445.3852844v24.6170959h-25.8024445v-24.6170959H248.0264893z M248.0264893,470.8553772v24.6250305h-25.8024445
			v-24.6250305H248.0264893z M248.0264893,496.333374v24.6254272h-25.8024445V496.333374H248.0264893z M248.0264893,521.8117676
			v24.6166992h-25.8024445v-24.6166992H248.0264893z M248.0264893,547.2814331v24.6254883h-25.8024445v-24.6254883H248.0264893z
			 M248.0264893,572.7598877v24.6254272h-25.8024445v-24.6254272H248.0264893z M248.0264893,598.2382812v24.6166992h-25.8024445
			v-24.6166992H248.0264893z M248.8794708,598.2382812h24.6254425v24.6166992h-24.6254425V598.2382812z M273.5049133,623.7079468
			v10.9779053h-24.6254425v-10.9779053H273.5049133z M274.3578796,623.7079468h24.6171265v10.9779053h-24.6171265V623.7079468z
			 M299.8279724,623.7079468h24.6250305v10.9779053h-24.6250305V623.7079468z M325.3059692,623.7079468h24.6254578v10.9779053
			h-24.6254578V623.7079468z M350.7843933,623.7079468h24.6166992v10.9779053h-24.6166992V623.7079468z M376.2540588,623.7079468
			h24.6254578v10.9779053h-24.6254578V623.7079468z M401.7324829,623.7079468h24.6254578v10.9779053h-24.6254578V623.7079468z
			 M427.210907,623.7079468h24.6166992v10.9779053H427.210907V623.7079468z M452.6805725,623.7079468h24.6254578v10.9779053
			h-24.6254578V623.7079468z M478.1589966,623.7079468h24.6254578v10.9779053h-24.6254578V623.7079468z M503.6374207,623.7079468
			h24.6166687v10.9779053h-24.6166687V623.7079468z M529.1071167,623.7079468h24.6254272v10.9779053h-24.6254272V623.7079468z
			 M554.5855103,623.7079468h24.625v10.9779053h-24.625V623.7079468z M580.0635376,623.7079468h24.6170654v10.9779053h-24.6170654
			V623.7079468z M605.5336304,623.7079468h24.625v10.9779053h-24.625V623.7079468z M605.5336304,622.8549805v-24.6166992h24.625
			v24.6166992H605.5336304z M631.0115967,598.2382812h25.3759766v24.6166992h-25.3759766V598.2382812z M631.0115967,597.3853149
			v-24.6254272h25.3759766v24.6254272H631.0115967z M631.0115967,571.9069214v-24.6254883h25.3759766v24.6254883H631.0115967z
			 M631.0115967,546.4284668v-24.6166992h25.3759766v24.6166992H631.0115967z M631.0115967,520.9588013V496.333374h25.3759766
			v24.6254272H631.0115967z M631.0115967,495.4804077v-24.6250305h25.3759766v24.6250305H631.0115967z M631.0115967,470.0023804
			v-24.6170959h25.3759766v24.6170959H631.0115967z M631.0115967,444.5322876v-24.625h25.3759766v24.625H631.0115967z
			 M631.0115967,419.0542908v-24.6254272h25.3759766v24.6254272H631.0115967z M631.0115967,393.5758667v-24.6166992h25.3759766
			v24.6166992H631.0115967z M631.0115967,368.1062012v-24.6254272h25.3759766v24.6254272H631.0115967z M631.0115967,342.6277771
			v-24.6254272h25.3759766v24.6254272H631.0115967z M631.0115967,317.1493835v-24.6166992h25.3759766v24.6166992H631.0115967z
			 M248.0264893,280.7018127v10.9778748h-25.8024445v-10.9778748H248.0264893z M222.2240448,623.7079468h25.8024445v10.9779053
			h-25.8024445V623.7079468z M631.0115967,634.6858521v-10.9779053h25.3759766v10.9779053H631.0115967z"/>
		<polygon fill="#EB5A62" points="223.422699,625.038269 221.6284637,623.2139893 274.5644531,571.1455688 299.9295959,596.5111084 
			348.9210205,520.4898682 375.4169312,520.4898682 451.8022156,417.498291 478.3880615,442.3690491 604.6060791,316.1510315 
			606.4153442,317.9602661 478.4472046,445.9283752 452.1487122,421.3266602 376.7047119,523.0487671 350.3162537,523.0487671 
			300.3627625,600.5627441 274.549469,574.7498779 		"/>
		<polygon fill="#EB5A62" points="606.8134766,341.3654175 604.2545776,341.3654175 604.2545776,318.4454956 
			579.5116577,318.7615967 579.4783325,316.2026978 606.8134766,315.853241 		"/>
	</g>
</g>
<g id="Layer_x5F__x5F_Character_1">
	<g id="head_1_">
		<path fill="#F69D80" d="M299.719696,508.5482178c-0.1194458,1.2112122-0.3838501,2.4053955-0.7420959,3.5654297
			c-2.1409607,6.9943848-7.7876587,12.6410522-7.7876587,12.6410522l-0.9809265,18.1171875l-0.7250061,13.4428711
			c0,0-11.9416199,0.8529663-18.7654114-2.55896c-6.8237915-3.4118652-9.3827209-6.8237915-9.3827209-6.8237915v-15.3535156
			c0,0-17.0594635,0-29.8540649-17.0594482c-12.7946167-17.0594788-4.2648773-64.8259888,28.1481323-55.4432983
			C259.6299438,459.0757446,300.5726624,500.0184937,299.719696,508.5482178z"/>
		<path fill="#CE7962" d="M298.9776001,512.1136475c-2.1409607,6.9943848-7.7876587,12.6410522-7.7876587,12.6410522
			l-0.9809265,18.1171875c-21.5290527-12.2145996-14.8331604-13.2296753-4.9898682-18.9701538
			C290.6099243,520.7542725,295.5316162,515.9520264,298.9776001,512.1136475z"/>
		<path fill="#CE7962" d="M257.0710144,516.2249756c0,0-10.2356873-2.5588989-8.5297394,0.8529663
			c1.7059479,3.4119263,8.5297394,5.1178589,8.5297394,5.1178589S244.276413,515.3720093,257.0710144,516.2249756z"/>
	</g>
	<g id="left_hand_1_">
		<path fill="#FFC763" d="M196.7231293,689.7283325c4.3416443-3.9492798,8.4103241-8.9989014,11.7283936-14.8502808
			c14.5005493-25.5892334,11.6260223-85.7067871-9.9712677-82.9431152c0,0-12.4960632,19.6439209-22.7999725,41.923645
			c-7.830307,16.9058838-14.3896637,35.3301392-13.2893372,47.8432617
			C164.3613129,704.0753174,182.0775757,703.0944214,196.7231293,689.7283325"/>
		<path fill="#FFC763" d="M163.3619232,668.7234497c0,0-6.0888214,15.5372925,7.5587616,47.0973511
			c13.647583,31.5599976,43.5016479,69.0908203,43.5016479,69.0908203s11.9416351-9.3826904,11.9416351-25.5891724
			c0-16.206543-22.3528595-49.8739014-26.1034698-73.1299438
			C200.260498,686.1925049,194.1869812,643.8034668,163.3619232,668.7234497z"/>
		<path opacity="0.2" fill="#563112" d="M208.4515228,674.8780518c-3.3180847,5.8513794-7.386734,10.901001-11.7283936,14.8502197
			c-9.8603668-14.5431519-16.6670837-36.8910522-21.0428314-55.869751
			c10.3038788-22.2796631,22.7999573-41.923584,22.7999573-41.923584
			C220.0775452,589.1712646,222.9520721,649.2888184,208.4515228,674.8780518z"/>
	</g>
	<g id="left_leg_1_">
		<path fill="#20437F" d="M268.159668,854.0025024c0,19.6184082-15.3535309,79.3265381-21.3243408,99.7979126
			c-5.5955048,19.2004395-14.952652,39.8934937-29.4532013,39.5779419
			c-0.9638062-0.0170288-1.9447479-0.1279297-2.9597931-0.3411865
			c-16.2064972-3.4118652-20.4713593-24.7362061-15.3535156-42.6486816
			c5.1178284-17.9124146,5.9708099-111.739502,7.6767578-138.1817017s11.0886536-59.7081299,11.0886536-59.7081299
			s12.9481354-4.8534546,26.5786285-2.8574829c6.158493,0.8956299,12.4619904,3.1986084,17.7759857,7.9752808
			C279.2483215,772.9700317,268.159668,834.3840942,268.159668,854.0025024z"/>
		<path opacity="0.4" d="M268.159668,854.0025024c0,19.6184082-15.3535309,79.3265381-21.3243408,99.7979126
			c-5.5955048,19.2004395-14.952652,39.8934937-29.4532013,39.5779419
			c4.1454926-23.8747559,12.8458252-79.8554077,11.5407562-122.3164062
			c-1.2197418-39.7229614,9.374176-93.8953247,15.489975-121.4207764c6.158493,0.8956299,12.4619904,3.1986084,17.7759857,7.9752808
			C279.2483215,772.9700317,268.159668,834.3840942,268.159668,854.0025024z"/>
		<path fill="#20437F" d="M245.9567413,956.7089844c0,0-22.1517029,96.8892822-23.8576508,116.5076904
			s-1.7059479,23.8833008-1.7059479,23.8833008s-4.512207,1.083252-10.2100677,1.5865479
			c-6.6958618,0.5970459-15.0379181,0.392334-19.6439972-3.2924805c-8.5297394-6.8238525-8.5297394-6.8238525-8.5297394-6.8238525
			s0.8529816-82.7384033,5.9708099-105.7686768c5.1178436-23.0302734,17.0594788-52.0314331,25.5892181-57.149231
			c3.0621948-1.8424683,8.1117859-3.4801636,13.3148956-2.9768677
			C236.1646271,923.5625,245.9482574,931.2478027,245.9567413,956.7089844z"/>
		<path opacity="0.4" d="M245.9567413,956.7089844c0,0-22.1517029,96.8892822-23.8576508,116.5076904
			s-1.7059479,23.8833008-1.7059479,23.8833008s-4.512207,1.083252-10.2100677,1.5865479
			c-2.0556946-6.9432373-4.2904816-18.2963867-4.2904816-34.8525391c0-30.7070312,11.0886536-70.796814,11.0886536-70.796814
			S224.854187,951.25,226.8842621,922.675415C236.1646271,923.5625,245.9482574,931.2478027,245.9567413,956.7089844z"/>
		<path fill="#F69D80" d="M188.8331299,1088.5701904l2.5589142,27.295166c0,0,5.9708252,6.8238525,14.5005493,3.4118652
			c8.5297394-3.4118652,7.6767731-8.5296631,7.6767731-8.5296631l1.7059479-22.1773682H188.8331299z"/>
		<path fill="#20437F" d="M221.2461243,1134.6307373c-11.9416351,3.4119873-31.5600281,2.55896-34.1189423,0
			c-0.7591553-0.7591553-0.9979706-2.5844727-0.9723969-4.904541c0.0682526-5.4676514,1.5694885-13.6817627,0.9723969-17.2727051
			c-0.8529816-5.1179199-2.5589142-11.9416504,0-12.7946777c0,0,8.5297394,0,16.2064972,5.1179199
			c7.6767578,5.1177979,10.8924866-2.55896,10.8924866-2.55896s6.1669769,4.2648926,11.2848206,4.2648926
			c1.7571259,0,4.5292969,0.3070068,7.4464417,0.9724121c5.5443268,1.2963867,11.6090088,3.9321289,12.1719513,8.4102783
			C245.9823608,1122.689209,233.1877441,1131.2188721,221.2461243,1134.6307373z"/>
		<path fill="#CEE0F2" d="M221.4547272,1135.0963135c-12.3876801,3.5393066-32.7388458,2.654541-35.3933563,0
			c-0.7875061-0.7874756-1.0352325-2.6811523-1.0087128-5.0877686c4.7250366,0.6015625,18.7938538,2.105835,31.0930634,0.6635742
			c15.0421753-1.7696533,21.2360077-9.7331543,21.2360077-9.7331543c0-4.6276855-1.9377899-9.980957-3.7782593-14.0334473
			c5.7514191,1.3448486,12.0426331,4.0791016,12.6265869,8.7244873
			C247.1148987,1122.7086182,233.842392,1131.5570068,221.4547272,1135.0963135z"/>
	</g>
	<g id="rigth_leg">
		<path fill="#20437F" d="M223.8050385,759.3224487c0,0,33.265976,119.4162598,38.3838043,167.1828003
			c5.1178589,47.7665405,1.7059631,54.590271,21.3243408,63.9730225
			c19.6184082,9.3826904,34.9719238,4.2648315,38.3838196-57.149231s18.7654114-127.0930786,13.647583-152.682251
			c-5.1178589-25.5892334-17.9124451-28.1481323-29.0010986-30.7070923
			C295.454834,747.3807983,222.0990906,740.5570068,223.8050385,759.3224487z"/>
		<path fill="#20437F" d="M265.5298462,961.3277588c0,0,0.9238586,97.3884277,6.0417175,127.2424316
			c5.1178284,29.854126,10.2356873,33.2659912,10.2356873,33.2659912s12.7945862,2.55896,20.471344,0
			c7.6767883-2.55896,10.2356873-9.3826904,10.2356873-9.3826904s6.8237915-117.7103882,6.8237915-127.0930786
			s0.9016724-32.888916,0.9016724-32.888916s-5.1665344-14.0245972-23.0789795-17.4365234
			C279.2483215,931.6231079,268.8708496,943.2659302,265.5298462,961.3277588z"/>
		<path fill="#F69D80" d="M284.3661499,1118.4243164c0,0-1.7059326,7.6767578,1.7059631,11.088623
			s17.9124451,2.55896,20.4713745-2.55896c2.5588989-5.1177979,0.8529663-13.647583,0.8529663-13.647583L284.3661499,1118.4243164z"
			/>
		<path fill="#20437F" d="M356.0159302,1158.5140381c-5.9707947,4.2648926-41.7956848,6.8238525-58.0021973,5.1177979
			c-16.2064819-1.7059326-19.6183777-2.5588379-19.6183777-5.9708252c0-0.4862061,0-1.4414062,0.0085449-2.7293701
			c0.0426331-7.8474121,0.3496704-27.9776611,2.550354-27.9776611c0,0,1.7059631-3.4118652,3.4118958-2.5588379
			c1.7059631,0.8529053,10.2356873,2.5588379,15.3535461,0.8529053c5.1178284-1.7059326,8.1800232-4.2050781,8.1800232-4.2050781
			s4.614563,3.3521729,12.2913208,5.0581055c4.3416748,0.9638672,13.8693542,2.746582,22.8682251,5.8087158
			c6.9176025,2.3626709,13.5196228,5.4675293,17.2215271,9.5447998
			C368.8105469,1150.8372803,361.9867554,1154.2491455,356.0159302,1158.5140381z"/>
		<path fill="#CEE0F2" d="M357.12677,1158.8497314c-6.1621094,4.4014893-43.1347961,7.0423584-59.8605042,5.2817383
			c-16.7257385-1.7606201-20.2469482-2.6408691-20.2469482-6.1621094c0-0.5018311,0-1.4876709,0.0088196-2.8168945
			c0,0,11.4350891,3.6972656,29.9214478,3.6972656c18.4863281,0,25.5287476-0.8803711,25.5287476-0.8803711
			s0.5809631-18.6976318,11.2766418-26.5762939c7.1392517,2.4383545,13.9527588,5.6427002,17.7733154,9.8505859
			C370.3312988,1150.927002,363.2888794,1154.4481201,357.12677,1158.8497314z"/>
	</g>
	<g id="body_1_">
		<path fill="#FFC763" d="M333.838623,759.3224487c-2.5589294,4.2648315-12.7945862,6.8237915-27.2951355,9.3826904
			c-8.9050598,1.569458-36.4475403,1.8594971-58.3604431,0.6567383c-13.7926178-0.7505493-25.3504028-2.0897217-28.642868-4.0686035
			c-8.5297394-5.1178589-5.9708099-9.3827515-4.2648621-20.4713745c0.1023407-0.6483154,0.1876221-1.3562622,0.2729492-2.1324463
			c1.2453613-11.9672241,0.0426331-38.588501-9.2206421-59.8616943c-0.4094086-0.9553223-0.8358917-1.9021606-1.2879944-2.8318481
			c-11.0886536-23.0302734-15.3535309-57.149231-13.647583-74.2087402
			c1.7059479-17.0594482,46.9135437-50.3254395,46.9135437-50.3254395v-12.7945557c0,0,5.1178436-2.55896,18.7654266-3.4119263
			s35.8248901,14.5005493,35.8248901,14.5005493v7.6767578c0,0,6.4484863,2.5844727,11.1057129,5.9111328
			c1.9021301,1.3562012,3.5057068,2.8403931,4.2478027,4.324585c2.5589294,5.1177979,2.5589294,86.1503296,4.2648621,96.3859863
			C314.2202454,678.289917,336.3975525,755.0575562,333.838623,759.3224487z"/>
		<path opacity="0.2" fill="#563112" d="M215.5482635,742.6894531c1.2453613-11.9672241,0.0426331-38.588501-9.2206421-59.8616943
			c8.3591309,9.2035522,18.4412842,21.1793213,21.7422943,28.7281494
			C231.8230133,720.1282959,222.7814636,733.7502441,215.5482635,742.6894531z"/>
		<path opacity="0.2" fill="#563112" d="M333.838623,759.3224487c-2.5589294,4.2648315-12.7945862,6.8237915-27.2951355,9.3826904
			c-8.9050598,1.569458-36.4475403,1.8594971-58.3604431,0.6567383c4.7766266-9.8347168,12.0951538-25.427124,19.9766235-44.1583862
			c13.647583-32.4130249,4.2648621-48.6195068,4.2648621-96.3859863c0-32.9589233,19.4904175-52.5176392,31.5770874-61.4738159
			c1.9021301,1.3562012,3.5057068,2.8403931,4.2478027,4.324585c2.5589294,5.1177979,2.5589294,86.1503296,4.2648621,96.3859863
			C314.2202454,678.289917,336.3975525,755.0575562,333.838623,759.3224487z"/>
	</g>
	<g id="right_hand_1_">
		<path fill="#F69D80" d="M347.4862061,778.0878296c-5.1178284,8.5297852-16.2065125,22.1773071-16.2065125,22.1773071
			s-1.8765259-4.6913452-4.0430603-10.2015381c-2.4565735-6.2352295-5.2884521-13.5196533-6.1925964-16.2406006
			c-1.7059631-5.1178589,0-11.0886841,0-11.0886841l12.7945862-10.2356567l10.2954102,1.7144775l5.0581055,0.8444214
			C349.1921387,755.0575562,352.6040344,769.5581055,347.4862061,778.0878296z"/>
		<path fill="#CE7962" d="M344.1340332,754.2131348c-0.298584,7.9326172-1.7912903,20.3519287-7.7364807,28.9925537
			c-2.7209778,3.9663086-5.9537354,5.987854-9.1609192,6.8579102c-2.4565735-6.2352295-5.2884521-13.5196533-6.1925964-16.2406006
			c-1.7059631-5.1178589,0-11.0886841,0-11.0886841l12.7945862-10.2356567L344.1340332,754.2131348z"/>
		<path fill="#FFC763" d="M303.9845581,567.4033813c0,0-29.8540649,16.2064819-16.2065125,69.0908813
			c13.647583,52.8843384,11.9416504,44.3546143,11.9416504,44.3546143s11.9416199,15.3535156,26.4421692,11.088623
			c14.5005493-4.2648315,13.647583-16.2064819,12.7946167-23.0302734
			c-0.8529968-6.8237915-8.5297546-80.1795044-14.5005493-88.7092285
			C318.4851074,571.6682739,303.9845581,567.4033813,303.9845581,567.4033813z"/>
		<path fill="#FFC763" d="M299.719696,680.848877c0,0,5.1178284,31.5599976,11.0886536,50.3254395
			c5.9707947,18.7653809,12.7945862,29.8540649,12.7945862,29.8540649s4.2648621,4.2648926,15.3535461,3.4118652
			c11.0886536-0.8529663,14.5005493-7.6767578,14.5005493-7.6767578l-14.1120605-83.0112305
			c0,0-2.9474182-8.256897-16.5950012-11.6688232C309.1023865,658.6715698,300.5726624,665.4953613,299.719696,680.848877z"/>
	</g>
	<path id="hair" d="M271.322113,471.1826172c0,0,4.5143127-31.7252502-2.3094788-42.8139038
		s-19.6183929-7.6767578-25.5892029-2.5589294s-8.5297394,10.2356873-20.4713593,10.2356873
		c-11.9416351,0-45.2075958,12.7945862-46.0605774,31.5600281c-0.8529663,18.7654114,24.7362366,11.9416199,17.0594788,23.8832397
		c-7.6767731,11.9416199-16.2064972,39.2367859-0.8529816,43.5016785
		c15.3535309,4.2648315,25.5892029-5.9708252,32.4129944,1.7059326s16.2064972,14.5005493,26.4421844,9.3826904
		c10.235672-5.1178589,13.6475677-12.7946167,11.9416351-16.2064819c-1.7059631-3.4119263-9.3827209-1.7059326-16.2064972-5.1178589
		c-6.8237915-3.4118652-12.7946167-22.1773071,10.235672-13.6475525c0,0-1.7059326-6.8237915-2.5589142-10.2356873
		s2.5589142-5.1178589-5.1178436-7.6767578c-7.6767578-2.5589294-11.0886536-11.0886536-5.9708099-16.2065125
		c5.1178284-5.1178284,11.9416351-5.1178284,14.5005341-8.5297241c2.5589294-3.4118958,1.7692871-8.4597168,1.7692871-8.4597168
		L271.322113,471.1826172z"/>
</g>
</svg>
