<svg xmlns="http://www.w3.org/2000/svg" xmlns:xlink="http://www.w3.org/1999/xlink" viewBox="0 0 720 504"><defs><style>.cls-1{fill:#fff;}.cls-2{fill:#c7ccd1;}.cls-3{fill:url(#linear-gradient);}.cls-4{fill:#f59059;}.cls-23,.cls-25,.cls-5{fill:none;stroke:#231f20;stroke-linecap:round;stroke-miterlimit:10;}.cls-5{stroke-width:1.21px;}.cls-6{fill:url(#linear-gradient-2);}.cls-7{fill:url(#linear-gradient-3);}.cls-8{fill:#483e6b;}.cls-9{fill:#413b8a;}.cls-10{fill:url(#linear-gradient-4);}.cls-11{fill:url(#linear-gradient-5);}.cls-12{fill:#1f0d52;}.cls-13{fill:#2e89ff;}.cls-14{fill:#201851;}.cls-15{fill:url(#linear-gradient-6);}.cls-16{fill:url(#linear-gradient-7);}.cls-17{fill:url(#linear-gradient-8);}.cls-18{fill:#fe845a;}.cls-19{fill:url(#linear-gradient-9);}.cls-20{fill:url(#linear-gradient-10);}.cls-21{fill:#3d86fa;}.cls-22{fill:#1351be;}.cls-23{stroke-width:1.09px;}.cls-24{fill:#423981;}.cls-25{stroke-width:0.62px;}.cls-26{fill:#403882;}.cls-27{fill:#fda181;}.cls-28{fill:#e1e7ef;}.cls-29{fill:#1150c0;}.cls-30{fill:#094082;}.cls-31{fill:#232059;}.cls-32{fill:#f69d80;}.cls-33{fill:#cd7860;}.cls-34{fill:url(#linear-gradient-11);}.cls-35{fill:url(#linear-gradient-12);}.cls-36{fill:url(#linear-gradient-13);}.cls-37{fill:url(#linear-gradient-14);}.cls-38{fill:url(#linear-gradient-15);}.cls-39{fill:#373175;}.cls-40{fill:#1f1a4d;}.cls-41{fill:#d17a62;}.cls-42{fill:url(#linear-gradient-16);}.cls-43{fill:url(#linear-gradient-17);}.cls-44{fill:url(#linear-gradient-18);}.cls-45{fill:url(#linear-gradient-19);}.cls-46{fill:url(#linear-gradient-20);}.cls-47{fill:#ce7961;}.cls-48{fill:url(#linear-gradient-21);}.cls-49{fill:#3c87fe;}.cls-50{fill:#f55662;}.cls-51{fill:url(#linear-gradient-22);}.cls-52{fill:#fd996a;}.cls-53{fill:#ee7645;}.cls-54{fill:url(#linear-gradient-23);}.cls-55{fill:url(#linear-gradient-24);}.cls-56{fill:url(#linear-gradient-25);}.cls-57{fill:#ce4253;}.cls-58{fill:#f0e166;}.cls-59{fill:url(#linear-gradient-26);}.cls-60{fill:#282728;opacity:0.17;}.cls-61{fill:url(#linear-gradient-27);}.cls-62{fill:url(#linear-gradient-28);}.cls-63{fill:url(#linear-gradient-29);}.cls-64{fill:url(#linear-gradient-30);}.cls-65{fill:url(#linear-gradient-31);}.cls-66{fill:url(#linear-gradient-32);}.cls-67{fill:url(#linear-gradient-33);}.cls-68{fill:url(#linear-gradient-34);}.cls-69{fill:url(#linear-gradient-35);}</style><linearGradient id="linear-gradient" x1="269.35" y1="275.16" x2="175.26" y2="89.96" gradientTransform="matrix(-1, 0, 0, 1, 347.92, 0)" gradientUnits="userSpaceOnUse"><stop offset="0" stop-color="#f69a5e"/><stop offset="0.29" stop-color="#faac60"/><stop offset="0.71" stop-color="#fec062"/><stop offset="1" stop-color="#ffc763"/></linearGradient><linearGradient id="linear-gradient-2" x1="-189.98" y1="275.16" x2="-284.07" y2="89.96" xlink:href="#linear-gradient"/><linearGradient id="linear-gradient-3" x1="329.65" y1="226.56" x2="375.24" y2="394.33" gradientUnits="userSpaceOnUse"><stop offset="0" stop-color="#ff9d5d"/><stop offset="0.08" stop-color="#ff985d"/><stop offset="0.18" stop-color="#ff8a5c"/><stop offset="0.28" stop-color="#ff725b"/><stop offset="0.28" stop-color="#ff725b"/><stop offset="0.37" stop-color="#ff825b"/><stop offset="0.49" stop-color="#ff8f5c"/><stop offset="0.64" stop-color="#ff965c"/><stop offset="1" stop-color="#ff985c"/></linearGradient><linearGradient id="linear-gradient-4" x1="145.02" y1="438.27" x2="198.74" y2="377.28" gradientUnits="userSpaceOnUse"><stop offset="0" stop-color="#ff9d5c"/><stop offset="1" stop-color="#ffc961"/></linearGradient><linearGradient id="linear-gradient-5" x1="146.46" y1="419.35" x2="71.1" y2="373.09" gradientUnits="userSpaceOnUse"><stop offset="0" stop-color="#1252c4"/><stop offset="1" stop-color="#3f87fe"/></linearGradient><linearGradient id="linear-gradient-6" x1="119.23" y1="442.99" x2="119.23" y2="313.54" xlink:href="#linear-gradient-4"/><linearGradient id="linear-gradient-7" x1="139.42" y1="433.29" x2="94.29" y2="417.25" xlink:href="#linear-gradient-4"/><linearGradient id="linear-gradient-8" x1="78.24" y1="420.06" x2="251.97" y2="420.06" xlink:href="#linear-gradient-5"/><linearGradient id="linear-gradient-9" x1="485.88" y1="450.05" x2="516.06" y2="310.59" xlink:href="#linear-gradient-5"/><linearGradient id="linear-gradient-10" x1="417.55" y1="432.06" x2="540.93" y2="432.06" xlink:href="#linear-gradient-4"/><linearGradient id="linear-gradient-11" x1="384.02" y1="132.11" x2="355.03" y2="160.24" gradientUnits="userSpaceOnUse"><stop offset="0" stop-color="#ddeaf7"/><stop offset="0.56" stop-color="#d1e2f3"/><stop offset="1" stop-color="#c5d9ef"/></linearGradient><linearGradient id="linear-gradient-12" x1="392.65" y1="140.75" x2="363.71" y2="168.83" xlink:href="#linear-gradient-11"/><linearGradient id="linear-gradient-13" x1="395.78" y1="140.18" x2="365.15" y2="169.9" gradientTransform="translate(498.17 -204.2) rotate(84.3)" xlink:href="#linear-gradient-11"/><linearGradient id="linear-gradient-14" x1="377.75" y1="125.78" x2="348.45" y2="154.2" xlink:href="#linear-gradient-11"/><linearGradient id="linear-gradient-15" x1="358.32" y1="124.86" x2="370.82" y2="146.36" gradientUnits="userSpaceOnUse"><stop offset="0.05" stop-color="#fbd15b"/><stop offset="0.34" stop-color="#fbcd5b"/><stop offset="0.61" stop-color="#fac25b"/><stop offset="0.89" stop-color="#f9ae5a"/><stop offset="1" stop-color="#f9a45a"/></linearGradient><linearGradient id="linear-gradient-16" x1="431.16" y1="110.68" x2="400.7" y2="140.23" gradientTransform="matrix(-0.99, -0.11, -0.11, 0.99, 796.64, 43.43)" xlink:href="#linear-gradient-11"/><linearGradient id="linear-gradient-17" x1="413.63" y1="94.85" x2="382.88" y2="124.68" gradientTransform="matrix(0.99, 0.1, 0.1, -0.99, -28.15, 173.88)" xlink:href="#linear-gradient-11"/><linearGradient id="linear-gradient-18" x1="393.19" y1="93.8" x2="406.44" y2="116.61" gradientTransform="matrix(-1, 0, 0, 1, 783.56, 0)" xlink:href="#linear-gradient-15"/><linearGradient id="linear-gradient-19" x1="430.69" y1="76.43" x2="365.36" y2="139.81" xlink:href="#linear-gradient-11"/><linearGradient id="linear-gradient-20" x1="430.13" y1="109.62" x2="399.67" y2="139.17" gradientTransform="matrix(-1, 0, 0, 1, 783.56, 0)" xlink:href="#linear-gradient-11"/><linearGradient id="linear-gradient-21" x1="594.2" y1="312.34" x2="606.27" y2="312.34" gradientUnits="userSpaceOnUse"><stop offset="0" stop-color="#ffbf61"/><stop offset="1" stop-color="#ffcf62"/></linearGradient><linearGradient id="linear-gradient-22" x1="502.22" y1="135.47" x2="515.61" y2="135.47" xlink:href="#linear-gradient-21"/><linearGradient id="linear-gradient-23" x1="2998.59" y1="-1673.71" x2="2998.59" y2="-1673.71" gradientTransform="matrix(-0.53, -0.85, -0.85, 0.53, 540.7, 3639.99)" gradientUnits="userSpaceOnUse"><stop offset="0" stop-color="#d22890"/><stop offset="1" stop-color="#3c69b0"/></linearGradient><linearGradient id="linear-gradient-24" x1="3039.77" y1="-2144.98" x2="3039.77" y2="-2144.98" gradientTransform="matrix(0.67, 0.74, 0.74, -0.67, -216.56, -3459.53)" xlink:href="#linear-gradient-23"/><linearGradient id="linear-gradient-25" x1="2953.73" y1="-1576.1" x2="2953.73" y2="-1576.1" gradientTransform="matrix(0.13, -0.99, -0.99, -0.13, -1639.54, 3019.12)" xlink:href="#linear-gradient-23"/><linearGradient id="linear-gradient-26" x1="138.07" y1="228.22" x2="161.45" y2="228.22" xlink:href="#linear-gradient-21"/><linearGradient id="linear-gradient-27" x1="404.16" y1="286.47" x2="439.3" y2="286.47" xlink:href="#linear-gradient-21"/><linearGradient id="linear-gradient-28" x1="182.16" y1="139.66" x2="187.83" y2="139.66" xlink:href="#linear-gradient-21"/><linearGradient id="linear-gradient-29" x1="424.61" y1="108.79" x2="431.98" y2="108.79" xlink:href="#linear-gradient-21"/><linearGradient id="linear-gradient-30" x1="498.5" y1="315.54" x2="505.94" y2="315.54" xlink:href="#linear-gradient-21"/><linearGradient id="linear-gradient-31" x1="162.17" y1="197.43" x2="173.06" y2="197.43" xlink:href="#linear-gradient-21"/><linearGradient id="linear-gradient-32" x1="337.9" y1="118.59" x2="342.98" y2="118.59" xlink:href="#linear-gradient-21"/><linearGradient id="linear-gradient-33" x1="556.37" y1="333.16" x2="562.57" y2="333.16" xlink:href="#linear-gradient-21"/><linearGradient id="linear-gradient-34" x1="453" y1="179.3" x2="464.87" y2="179.3" xlink:href="#linear-gradient-21"/><linearGradient id="linear-gradient-35" x1="516.55" y1="78.97" x2="528.42" y2="78.97" xlink:href="#linear-gradient-21"/></defs><g id="Layer_2" data-name="Layer 2"><g id="Layer_1-2" data-name="Layer 1"><rect class="cls-1" width="720" height="504"/><g id="SHADOWS"><ellipse class="cls-2" cx="203" cy="466.42" rx="73.54" ry="6.22"/><ellipse class="cls-2" cx="518.53" cy="468.67" rx="73.54" ry="6.22"/></g><g id="TREES"><g id="TREE"><g id="tree-2" data-name="tree"><path class="cls-3" d="M153.44,245.46c-30.72-2-66.17-36.69-56.82-58.17s11.49-35.71,2-50.22c-8.58-13.17,23.45-69,11.3-90.33,4.54-4.31,10.82-6.71,16.62-4.73,7.36,2.51,11,10.62,13.34,18.05a171.91,171.91,0,0,1,5.79,25.07c1.24,8.09,2.11,16.79,7.35,23.09,5.74,6.91,15.44,9.27,21.83,15.59a23.82,23.82,0,0,1,6.63,20.54c-1.1,6.51-4.86,12.21-7.54,18.25s-4.22,13.32-.93,19c2.89,5.05,8.74,7.54,12.79,11.71,5.18,5.33,7.11,13.27,6.18,20.64s-4.44,14.22-8.86,20.19a69.06,69.06,0,0,1-7.69,8.7A62.05,62.05,0,0,1,153.44,245.46Z"/><path class="cls-4" d="M123.14,276.64c-6.54-14.16-30.16-24-39.3-31.81-9.63-8.24-18.45-19.3-20.3-32.21-2.06-14.46,5.84-22.19,12.49-33.54,11-18.81-11.26-37.26-3.71-56.14,3.89-9.73,15.32-14.08,21.48-22.56,4.92-6.78,6-15.53,6.7-23.89s1.2-17,5.26-24.37A22.36,22.36,0,0,1,110,46.74c12.15,21.37-19.88,77.16-11.3,90.33,9.46,14.51,7.32,28.74-2,50.22s26.1,56.2,56.82,58.17a62.05,62.05,0,0,0,22-2.58,69.46,69.46,0,0,1-14.71,10.77C147.69,260.78,131.53,264.35,123.14,276.64Z"/></g><line class="cls-5" x1="123.14" y1="108.23" x2="123.14" y2="444.65"/><line class="cls-5" x1="123.14" y1="152.04" x2="140.91" y2="129.91"/><line class="cls-5" x1="123.14" y1="197.56" x2="140.91" y2="175.43"/><line class="cls-5" x1="123.14" y1="177.65" x2="105.37" y2="155.52"/><line class="cls-5" x1="123.14" y1="218.27" x2="105.37" y2="196.14"/><line class="cls-5" x1="123.14" y1="244.78" x2="140.91" y2="222.64"/></g><g id="TREE-3" data-name="TREE"><g id="tree-4" data-name="tree"><path class="cls-6" d="M612.77,245.46c-30.72-2-66.17-36.69-56.82-58.17s11.49-35.71,2-50.22c-8.58-13.17,23.45-69,11.3-90.33C573.82,42.43,580.1,40,585.9,42c7.36,2.51,11,10.62,13.33,18.05A170.65,170.65,0,0,1,605,85.13c1.24,8.09,2.11,16.79,7.35,23.09,5.74,6.91,15.44,9.27,21.82,15.59a23.79,23.79,0,0,1,6.63,20.54c-1.09,6.51-4.85,12.21-7.53,18.25s-4.22,13.32-.93,19c2.89,5.05,8.74,7.54,12.79,11.71,5.18,5.33,7.11,13.27,6.18,20.64s-4.44,14.22-8.87,20.19a69,69,0,0,1-7.68,8.7A62.08,62.08,0,0,1,612.77,245.46Z"/><path class="cls-4" d="M582.47,276.64c-6.55-14.16-30.16-24-39.3-31.81-9.63-8.24-18.45-19.3-20.3-32.21-2.06-14.46,5.84-22.19,12.49-33.54,11-18.81-11.26-37.26-3.71-56.14,3.88-9.73,15.32-14.08,21.48-22.56,4.92-6.78,6-15.53,6.7-23.89s1.2-17,5.26-24.37a22.36,22.36,0,0,1,4.19-5.38c12.15,21.37-19.88,77.16-11.3,90.33,9.46,14.51,7.31,28.74-2,50.22s26.1,56.2,56.82,58.17a62.08,62.08,0,0,0,22-2.58,69.71,69.71,0,0,1-14.71,10.77C607,260.78,590.86,264.35,582.47,276.64Z"/></g><line class="cls-5" x1="582.47" y1="108.23" x2="582.47" y2="444.65"/><line class="cls-5" x1="582.47" y1="152.04" x2="600.23" y2="129.91"/><line class="cls-5" x1="582.47" y1="197.56" x2="600.23" y2="175.43"/><line class="cls-5" x1="582.47" y1="177.65" x2="564.7" y2="155.52"/><line class="cls-5" x1="582.47" y1="218.27" x2="564.7" y2="196.14"/><line class="cls-5" x1="582.47" y1="244.78" x2="600.23" y2="222.64"/></g><g id="tree-5" data-name="tree"><path class="cls-7" d="M387.61,317.16c-6.88-11.75,7-23.28,2.32-35.08-2.43-6.08-9.58-8.8-13.43-14.1-3.07-4.24-3.76-9.71-4.19-14.93s-.75-10.65-3.28-15.23a13.91,13.91,0,0,0-2.62-3.36c-2.84-2.69-6.76-4.19-10.39-3-4.6,1.57-6.88,6.64-8.33,11.28a106.56,106.56,0,0,0-3.62,15.67c-.78,5.06-1.32,10.49-4.59,14.43-3.59,4.31-9.65,5.79-13.64,9.74a14.89,14.89,0,0,0-4.15,12.84c.69,4.07,3,7.63,4.71,11.4s2.64,8.32.59,11.9c-1.81,3.15-5.47,4.71-8,7.32-3.24,3.33-4.44,8.29-3.86,12.9a27.25,27.25,0,0,0,5.54,12.61,42.76,42.76,0,0,0,4.8,5.44,43.35,43.35,0,0,0,9.19,6.73c8.17,4.46,18.26,6.69,23.51,14.37,4.09-8.85,18.85-15,24.55-19.88,6-5.15,11.54-12.06,12.69-20.13C396.7,329.08,391.76,324.25,387.61,317.16Z"/></g><line class="cls-5" x1="358.81" y1="304.59" x2="358.81" y2="439.46"/><line class="cls-5" x1="358.81" y1="348.48" x2="378.23" y2="329.06"/><line class="cls-5" x1="358.81" y1="324.1" x2="342.12" y2="307.41"/></g><g id="PLANTS"><g id="plant"><path class="cls-8" d="M54.84,396.52c6.11-2,15.16-.31,18.6,6a30.14,30.14,0,0,1,6.31,4c-1.37-1.6-2.75-3.42-2.6-5.66.18-2.64,2.29-2.3,3.58-.88s.77,2.43.7,4.36c-.06,1.63.24,3,.19,3.69l1.91,1.56c1,.77,1.93,1.54,2.9,2.29-.28-.49-.56-1-.67-1.19-1-2.14-2.5-4.73-2.32-7.38s2.56-4,4.34-2.27c1.49,1.49.08,4-.36,6a22.6,22.6,0,0,0-.28,5.41q2.46,1.92,5,3.75a16.2,16.2,0,0,1-2.79-6.53c-.37-3.25,2.91-3.09,4.56-1.79,1.81,1.41,1.23,3.77,1.05,5.95a24.64,24.64,0,0,0,.13,4.48c.88.61,1.76,1.23,2.66,1.83l2.08,1.39a11.78,11.78,0,0,1-1.55-5.67c0-1.06,0-3.08,1-3.72,1.27-.81,2.54.59,3,1.7,1.09,2.73-.51,6.54-.06,9.18,1.78,1.13,3.59,2.23,5.42,3.27a16.28,16.28,0,0,1-2.78-5.57c-.32-1.34-.27-3.07.75-4s2.75-.24,3.41,1.06a11,11,0,0,1,.71,4.51c.07,1.65.64,3.77.45,5.37.87.47,1.74.93,2.62,1.38l.49.24c-.29-.56-.53-1.12-.71-1.51a6.33,6.33,0,0,1-.6-4.11c.36-1.41,1.76-2.61,2.89-2.11,1,.42,1.3,1.78,1.21,3s-.51,2.39-.63,3.6a11,11,0,0,0,.13,2.23c2,.92,4.06,1.76,6.11,2.57a16.5,16.5,0,0,1-1.66-4.81,5.64,5.64,0,0,1,.55-3.39c.59-1,1.77-1.62,2.65-1.13s1.13,1.91.93,3.11c-.12.75-.65,5.58-1,6.78,2,.78,4,1.55,6,2.36.74.3.45,1.58-.36,1.43a43.6,43.6,0,0,1-8.12-2.39,18.69,18.69,0,0,0-2,1.57c-.93,1.13-1.61,2.52-2.6,3.57s-2.52,1.71-3.59.95a1.77,1.77,0,0,1-.65-.9c-.37-1.21.54-2.54,1.48-3.36a11,11,0,0,1,5.46-2.62c-1.66-.71-3.29-1.47-4.9-2.25l-.53.11a5.92,5.92,0,0,0-2.49.91,10.22,10.22,0,0,0-1.57,1.7,12.42,12.42,0,0,1-2.37,2.17,4.25,4.25,0,0,1-3,1,2.19,2.19,0,0,1-1.73-2.44,3.48,3.48,0,0,1,1.38-2,10.36,10.36,0,0,1,6.18-2.18,16.84,16.84,0,0,1,2.84.14c-2-1-4.05-2.1-6-3.24a7.64,7.64,0,0,0-2.45,1.33l-3,2.37a11.78,11.78,0,0,1-3.1,1.93,4.8,4.8,0,0,1-4.93-1,2.38,2.38,0,0,1-.86-2,3,3,0,0,1,1.63-2,15.46,15.46,0,0,1,6.81-2.19,20.35,20.35,0,0,1,3.4,0q-2.66-1.62-5.25-3.37a15.66,15.66,0,0,0-6.81,1.73c-1.26.68-2.44,1.55-3.71,2.2a5.94,5.94,0,0,1-4,.77,2.28,2.28,0,0,1-1.88-2.36,2.89,2.89,0,0,1,.38-1.1c1.3-2.32,3.93-3,6.24-3.12a24.87,24.87,0,0,1,8.27.89q-3.31-2.29-6.54-4.77A13.52,13.52,0,0,0,86.2,419c-2.35,1.2-4.6,2.7-7.06,3.48a5.56,5.56,0,0,1-4.63-.17,1.33,1.33,0,0,1-.54-.56,1.75,1.75,0,0,1,.27-1.51A7,7,0,0,1,77,417.76a15.2,15.2,0,0,1,8.62-1.64,24.15,24.15,0,0,1,4.24.76q-3.11-2.4-6.13-4.91l-.42-.34c-1.49,1-3.07,1.79-4.59,2.69s-3.2,1.81-4.78,1.37a2,2,0,0,1-1.23-.91,2.82,2.82,0,0,1,.35-2.86,4.93,4.93,0,0,1,2.3-1.65,14.75,14.75,0,0,1,5.5-.75c-1.14-1-2.3-2-3.49-2.92a.43.43,0,0,1,0,.11c-2.36,1-4.48,2.88-6.87,3.81a6.69,6.69,0,0,1-5.59-.31,1.53,1.53,0,0,1-.95-1.34,1.91,1.91,0,0,1,.75-1.23,10.45,10.45,0,0,1,6.68-2.54,17,17,0,0,1,4.45.36,21.21,21.21,0,0,0-6.63-3.37l-.07,0a17.46,17.46,0,0,0-4.41-.13c-1.82.21-3.64.65-5.46.74a7.51,7.51,0,0,1-5.14-1.36c-1-.82-1.79-2.56-.94-3.77A3,3,0,0,1,54.84,396.52Z"/><path class="cls-9" d="M152.81,338.54c16.18,33.21,12.91,66.07,4.54,66.42-31.73,1.31-33.44-71.45-18-113C141.88,299,141.08,314.49,152.81,338.54Z"/><path class="cls-10" d="M175.71,386.75c16.86-14.83,17.31-22.32,19.58-29.1,8.05,42-24.46,77.74-30.45,79.15C162.55,437.33,154.07,405.79,175.71,386.75Z"/><path class="cls-11" d="M133.54,400.64c5.64,7.45,14.56,17.94,13.46,27.62-.4,3.44-4.92,9.69-7.94,6.84-9.25-5.41-48.52-13.36-64.3-52.81-3.61-9-5.58-27.13-28.22-41C76.35,343.07,118.51,380.79,133.54,400.64Z"/><path class="cls-12" d="M92.63,359.8c1.36,1.63,1.7,4.33,3.46,5.33,1.32.74,3.06.38,4.56,1.68a15.77,15.77,0,0,1,3.33,4.44c1.73,3.25,1.87,6.43,2.84,9.85.9,3.16,4.19,4.38,6.69,6.56a31.39,31.39,0,0,1,8.18,11.91c1.06,2.57,1.29,6.76,3,8.59,1.21,1.29,3.32,1.88,4.56,3.34a14.78,14.78,0,0,1,2.7,6.22c1,4.38-1.67,6.57-5.72,7.21-4.77-2.12-13-6.85-15.31-12-1-2.23-.2-2.47-2-3.6-3-1.93-6.17-2.41-8.16-5.82a22.12,22.12,0,0,1-2.84-9c-.15-2.17.64-3.19-.64-4.91-2-2.71-4.81-4.06-6.35-7.33a26.36,26.36,0,0,1-1.9-7.3c-.24-1.66.35-2.79.35-4.25,0-2.63-2.64-4.17-3.71-6.64-1.17-2.7-1.4-6-1.63-8.92C87.16,354.69,90.75,357.55,92.63,359.8Z"/><path class="cls-13" d="M154.92,381.47c1.14-7.78,15.81-35.2,20.17-40.15-8,25.68,2.92,21.46-3.84,65-2,13.16-11.52,33.7-19.17,33.6-7.25-.09-7.35-9.57-8.27-12.81-2.5-8.81,1.33-67.33,4.73-72.55C153.13,365.07,154.28,379.56,154.92,381.47Z"/><path class="cls-14" d="M156.41,381c1.74-4.32,1.93-9.11,3.71-13.53.93,3.89,3.39,7.5,2.82,11.62-.2,1.49-.94,2.84-.66,4.24s1.95,3,2.6,4.41c2.13,4.61-1.11,6.24-.81,9.71.15,1.8,2.37,4.56,2.92,6.49.94,3.27,1.61,6.65.44,10-.46,1.29-1.54,2.3-1.4,3.68.19,1.83,1.84,3.89,2.13,5.89.55,3.86-2.19,6.38-2.54,9.36-.3,2.59.84,6.91-3.47,7.75-2,.39-3-.84-3.58-4.79-6.8-2.88-1.18-12.06-2.34-16.63-.41-1.63-1.31-3.15-1.67-4.87-.52-2.47,0-4.82-.32-7.17-.23-1.89-1.13-3.48-1.51-5.54-.81-4.41,1.61-6.64,2.5-10.11C156.06,388.2,155,384.45,156.41,381Z"/><path class="cls-14" d="M135.36,402c.83.92,1.39,2.15,2.25,3a47.65,47.65,0,0,1-2.8-13.08c-.25-3.89-1.42-8.76-.47-12.58A48.92,48.92,0,0,1,141,389.66c2.41,4.84,4.8,9.72,7.18,14.58a143.1,143.1,0,0,1,8.39,22.68c1,3.35,4.73,10.49,1.4,13.46a3,3,0,0,1-3.58.58c-1.69-1.07-3.07-3-4.44-4.49a53.68,53.68,0,0,1-9.64-13.68c-2.05-4.43-4.2-8.84-6-13.39-1.31-3.38-3.14-7.53-2.77-11.22C132.81,399.43,134.17,400.65,135.36,402Z"/><path class="cls-15" d="M94.73,313.8c8.52-2.4,5,12.53,11.58,23.24,1.15,1.36,2.26,2.77,3.33,4.21-.53-2.94-.42-7.19.88-8.12,3.41-2.46,2.84,3.53,2.58,4.92a21.13,21.13,0,0,1-1.9,5.36c1.45,2.07,2.82,4.18,4.13,6.29-.14-.7-.25-1.36-.35-1.81-.77-3.55-1.66-10.85,2.76-10.86,5.58,0,.42,12.06-.47,15.89.13.23,2,3.48,2.73,4.9-.43-4.51.22-12.2,4.06-12.38,8.11-.39-2,9.56-3,14.22,1.29,2.61,3,6.7,4.13,9.41a17.17,17.17,0,0,1,.68-7.42c1.19-3,4.3-5.68,5.2-1.35.53,2.52-1.29,4.68-2.44,6.84a31.29,31.29,0,0,0-2.17,5.25c.9,2.44,1.71,4.92,2.43,7.42,0-3.68.48-7.53,2.46-10.22,3.79-5.12,8-.58,7.38,4.05s-6.22,7.36-8.68,10.53c.55,2.28,1,4.58,1.41,6.89,1.08-3.76,2.25-7.86,5.18-10.4s8.79-2.2,8,2.42c-1,5.67-9.58,5.82-13,9.16q.75,4.65,1.15,9.39a28.58,28.58,0,0,1,3.91-7.61c2.76-3.56,7-1.3,6.88,2.68-.11,5.67-7.36,6.35-10.5,8.86.11,1.69.19,3.39.25,5.1.07,2,.18,4.7.25,6.66,1.31-3.15,3.39-7,5.4-8.34,4.17-2.73,7.72,1,5.05,5.08-2.54,3.84-7.67,3.64-10.32,6.69.14,2.76.31,5.51.57,8.25,2.27-4.66,7.08-9.21,11.26-9.53,4.6-.35,6.2,3.37,3,6.59-2.28,2.31-10.51,3.24-14,5.85a91.35,91.35,0,0,0,1.58,9.38c.36,1.59-2.12,2.43-2.59.86a57,57,0,0,1-1.57-6.72c-.27-3-2.74-3.47-5-4.44-2.57-1.11-15.32,2.75-11.53-7,3.21-8.25,12.1,1.28,15.81,6.33-.21-1.94-.36-3.89-.47-5.85a8.64,8.64,0,0,0-4.29-4.62c-3.93-2.25-20.29-2.22-17.67-10.07C113,397.53,128.6,417.37,130.8,423c-.16-3.38-.38-11.42-.4-12.06a11.49,11.49,0,0,0-5.09-4.27c-2.52-1.09-10.74-3.77-8.72-8.27s8.11.55,9.33,2.39a39.34,39.34,0,0,1,4.37,7.67c-.17-3.53-.43-7-.82-10.51-7.27-6.92-22.38-6.59-18.22-13.46,4.72-7.78,11.2,7.41,18.06,12.13a109.21,109.21,0,0,0-2-11.34c-.88-.43-2.17-1.54-3.86-2.32-3.8-1.74-11.68-1.68-12.15-6.12-.65-6.09,4.89-5.4,8.16-3.18,3.6,2.46,5.31,6.06,7.37,9.58a1,1,0,0,1,0-.14,121,121,0,0,0-3.64-11.79c-5.09-2.69-19.09-1.25-15.16-8.72,3-5.8,11.7,3.33,14.78,7.7-1.41-3.78-3-7.48-4.77-11.09-.65.28-1.76-.7-4.23-1-3.43-.46-10.28-.27-10.76-5-.34-3.31,5-2.83,7.41-1.79,2.68,1.17,4.6,4.17,6.71,6.07-.38-.75-4.25-7.81-6-10.52-5.29-2-20.19-4.11-17.78-9.32,2.71-5.88,12.12,3.17,16.81,7.77-.58-.9-5.15-7.76-6.32-9.29a40.73,40.73,0,0,1-12.57-8.4C88.54,324.79,84.62,316.64,94.73,313.8Z"/><path class="cls-16" d="M104.9,414.84c22.81-1.73,28.26,16.9,27.75,18.35-9,3.19-19,2.93-35.09-8.37-8.63-6.08-14.65-15.87-15-16.47C86.93,412.08,97.22,415.42,104.9,414.84Z"/><path class="cls-17" d="M78.24,444.22H252s.22-15.42-14.64-15.14-17.87,6.42-17.87,6.42S238,407,222.91,407.84s-24.11,10.57-29.5,1.3-13-20.25-20.51-7.33-1.66,24.76-10.06,22.82-21.12-9.44-22,1.41c0,0-19.14-2.27-15.48,6.12S90.94,431.73,78.24,444.22Z"/></g><g id="plant-2" data-name="plant"><path class="cls-18" d="M546.43,352.5c-1.34,34.11-22.81,88.86-43.51,82.45-5.45-1.69,1.56-27.11,21.58-49.47C539,369.29,542.79,357.45,546.43,352.5Z"/><path class="cls-14" d="M485.28,430.68c.12,2.15-29.66,4.88-43.47-17.61-10.75-17.53-17.43-19.1-23.2-22.21C457.79,390.15,484.94,425.05,485.28,430.68Z"/><path class="cls-9" d="M474.62,384.39c.19-1.83-1.67-15,.32-25.35,4.08,4,19.21,55.52,18.73,63.88-.17,3.08,1.64,11.57-4.82,13.11-6.82,1.61-19.4-14.84-23.86-26.2-14.73-37.53-4.13-35.93-16.41-57.29C453.46,356.1,472.05,377.67,474.62,384.39Z"/><path class="cls-18" d="M466.75,369.86c2.48,3.59,3.61,7.84,6,11.35,2,2.83,1.76,6.39,3.14,9.11,1.49,2.93,4.1,4.44,4.26,8.54.07,1.92-.42,3.52-.24,5.25.21,2.16,1.12,4.16,1.15,6.47,0,1.61-.48,3.15-.52,4.69-.13,4.32,6.73,11.39,1.23,15.33.3,3.64-.36,4.93-2.24,5-4,.12-3.87-4-4.65-6.23-.91-2.59-3.85-4.29-4.14-7.86-.14-1.84.92-4,.72-5.69-.15-1.25-1.31-1.94-2-3-1.71-2.73-1.78-5.88-1.6-9,.1-1.84,1.54-4.74,1.31-6.39-.42-3.15-3.64-4-2.66-8.51.3-1.38,1.48-3.05,1.44-4.46s-1-2.36-1.44-3.65C465.23,377.24,466.71,373.52,466.75,369.86Z"/><path class="cls-19" d="M482,422.09c3.83-.15,8.69,3.48,11.24,7.48,0-2.51-.18-5-.35-7.56-2.73-2.5-7.38-1.77-10.09-5-2.86-3.39,0-7.2,4.05-5.16,2,1,4.27,4.29,5.8,7-.15-1.79-.34-4.29-.49-6.09-.12-1.56-.23-3.11-.31-4.67-3.12-1.94-9.79-1.8-10.49-6.95-.49-3.6,3.09-6.1,6-3.16a26.4,26.4,0,0,1,4.36,6.51c-.09-2.9-.08-5.79,0-8.66-3.42-2.69-11.24-1.91-12.75-7-1.24-4.12,4-5.08,7-3s4.43,5.6,5.81,8.9c.12-2.14.29-4.28.55-6.41-2.57-2.62-7.95-4.4-9-8.66s2.3-8.72,6.28-4.47c2.09,2.24,2.93,5.7,3.32,9,.39-2.35.87-4.69,1.42-7a28.25,28.25,0,0,0-2.52-4.54c-1.28-1.84-3.16-3.62-2.95-6,.36-4,3.47-2,4.87.67a15.52,15.52,0,0,1,1.41,6.68c.7-2.58,1.86-6.49,2.76-9-1.36-4.14-11.62-12.11-4.2-12.62,3.51-.24,4.92,6.68,5,10.83.53-1.37,1.86-4.52,2-4.75-1.22-3.38-7.19-13.82-2.12-14.4,4-.45,4,6.28,3.67,9.59,0,.42-.07,1-.13,1.68,1-2.06,2-4.12,3.1-6.15a18.9,18.9,0,0,1-2.3-4.68c-.39-1.23-1.54-6.62,1.82-4.75,1.28.71,1.83,4.56,1.66,7.29.82-1.42,1.68-2.82,2.58-4.18,4.9-10.44.07-23.64,8.07-22.36,9.5,1.51,6.8,9.34,4.53,12.26a37.19,37.19,0,0,1-10.55,9c-.9,1.51-4.33,8.24-4.76,9.12,3.78-4.68,11.38-13.91,14.47-8.86,2.74,4.49-10.59,8-15.19,10.37-1.25,2.65-4,9.48-4.29,10.19,1.72-1.94,3.15-4.88,5.46-6.22,2-1.2,6.88-2.2,6.93.84.06,4.33-6.19,4.89-9.26,5.67-2.21.56-3.11,1.57-3.74,1.38q-1.83,5.22-3.16,10.59c2.34-4.3,9.24-13.52,12.63-8.57,4.36,6.38-8.53,6.56-12.87,9.54A109.19,109.19,0,0,0,495.22,387l0,.13c1.5-3.41,2.67-6.87,5.69-9.49,2.74-2.37,7.7-3.58,7.76,2,0,4.09-7.13,4.86-10.41,6.85-1.45.89-2.51,2-3.27,2.52a102.68,102.68,0,0,0-.57,10.52c5.75-5,10-19.53,15.15-12.94,4.51,5.8-9.27,7.11-15.15,14.17,0,3.21.15,6.42.37,9.64a36.56,36.56,0,0,1,3.16-7.44c.91-1.8,5.89-7.1,8.23-3.16s-4.88,7.19-7.05,8.45a10.41,10.41,0,0,0-4.17,4.42c0,.59.7,7.92.91,11,1.41-5.32,13.48-25,18.5-14.32,3.21,6.87-11.67,8.58-15,11a7.83,7.83,0,0,0-3.41,4.66c.1,1.79.17,3.58.19,5.36,2.83-5,9.91-14.59,13.7-7.43,4.48,8.47-7.52,6.31-9.74,7.59-1.95,1.12-4.14,1.84-4.07,4.57a52.53,52.53,0,0,1-.71,6.27c-.26,1.49-2.61,1-2.45-.5a81.89,81.89,0,0,0,.44-8.7c-3.43-2-11-2-13.33-3.84C476.74,425.82,477.81,422.26,482,422.09Z"/><path class="cls-20" d="M540.93,444.22s-4.3-12.73-14.26-8.63c0,0-5-16.11-17.21-3.51s-8.47-14.45-20.64-12-8.56,11.71-8.56,11.71-11.6-6-9.08,4.37c0,0-27.37-13.65-27.82-2.11,0,0-18.34-3.39-15.17,6.11,0,0-10.64-2.71-10.64,4.08Z"/></g><path class="cls-21" d="M611,409.57c2-2.28,11.09-5.75,14.92-11.36S643,373,653.17,376.86s-8.76,17.52-14.37,24.36-6.07,26.69-20.9,26.69S606.63,414.64,611,409.57Z"/><path class="cls-22" d="M610.15,358.52s7.11.21,6.43,10.2-3.35,17.45-2.81,22.79,5.41,25.79-3.62,27.16-19.44-1.71-14.92-16.42S595.64,355.65,610.15,358.52Z"/><path class="cls-23" d="M608,370.43s-6.57,60.4-6.57,81.11"/><path class="cls-23" d="M603.39,451.54s3.81-37.13,45.08-69.25"/><path class="cls-24" d="M309.32,391.35c-.47,2.59,1.3,9.72,0,12s-3.7,7.18-1.6,11.54,4.72,16.46-9.65,16.83-11.89-15.6-10.3-18.72,3.77-6.09,4.5-12.55,1.38-8.71,9.29-14.66,9.06-7.11,10.88-4.86S310.26,386.13,309.32,391.35Z"/><path class="cls-25" d="M303.88,393.67s-11.65,24.67-4.16,52.67"/><line class="cls-25" x1="299.21" y1="408.45" x2="305.76" y2="401.43"/><line class="cls-25" x1="297.87" y1="416.3" x2="293.79" y2="409.56"/><line class="cls-25" x1="297.21" y1="426" x2="305.47" y2="418.67"/></g><g id="MAN"><g id="SHOES"><path class="cls-26" d="M260.19,457.79c-2.95-1.45-25.34-9.1-25.34-9.1s-6.42.9-6.67,2.09-4.62,1.64-10.19-.87l-.07.43-2.56,12.9a1.47,1.47,0,0,0,1.54,1.69l44.33.34a1.47,1.47,0,0,0,1.56-1.48C262.69,461.9,262.21,458.77,260.19,457.79Z"/><path class="cls-27" d="M228.18,450.78c.25-1.19,6.67-2.09,6.67-2.09l3.07-11.22-17.56-3.15L218,449.91C223.56,452.42,227.92,452,228.18,450.78Z"/><path class="cls-28" d="M216.9,464.93l44.33.34a1.47,1.47,0,0,0,1.56-1.48c-.1-1.89-.58-5-2.6-6-.76-.38-2.79-1.15-5.4-2.11-2.44.69-2.75,7.2-2.75,7.2l-36.52-.44-.16.8A1.47,1.47,0,0,0,216.9,464.93Z"/><path class="cls-26" d="M185,436.23,180,450.08l.78,12.31a2.12,2.12,0,0,1-2.17,2.16c-9.09.23-42,1-42-.41,0-1.58.76-5.78,3.94-7.16s22.65-9.65,22.65-9.65l4.25-12.83Z"/><path class="cls-27" d="M163.22,447.33s6.29,1.07,6.06,2.4,6.25.77,10.76.35L185,436.23l-17.5-1.73Z"/><path class="cls-28" d="M136.63,464.14c0,1.37,32.93.64,42,.41a2.12,2.12,0,0,0,2.17-2.16v-.16l-31.75.67s.6-7.16-4.3-7.72h0l-4.19,1.8C137.39,458.36,136.63,462.56,136.63,464.14Z"/></g><g id="PANTS"><path class="cls-29" d="M205.19,271s-14.54,69.15-17,80-22.05,83.42-22.05,83.42L185,436.23s22.19-54.76,28.86-70.32,20.91-50.27,20.91-50.27L219.59,435.4s14.54,3,18.33,2.07c0,0,16.36-50.22,21.36-76s14.24-92.06,14.24-92.06S218.6,264.5,205.19,271Z"/><path class="cls-30" d="M234.74,315.64l7.61-20.33s5.46-5.17,6.71-7.86,3.06-6.82,3.06-6.82-3.42,12-7.16,17.5-19.88,93.81-19.88,93.81Z"/></g><g id="BODY"><path class="cls-26" d="M237.69,171.86s27.12.77,32,3.23,48.6,23.54,48.6,23.54A155.17,155.17,0,0,1,332,180.16c8.18-9.39,16.93-18,16.93-18s5.61,8.37,6.36,8.87c0,0-23.06,46.82-30.26,47.88s-51.52-11.4-51.52-11.4,1.67,54.1,0,62.26c0,0-30.75-2.11-41.21-1.4s-27.12,3-27.12,3,.46-65.17-6.06-69.81c0,0-61.21-21.25-63.78-32.23s2.27-41.79,4.39-45.59c0,0-.27-.53,3.79-.42s10.11.21,10,1-.55,20.39-.15,24.29.34,9.5.34,9.5,42.67,14.62,48.18,14.62,16.32-.32,16.32-.32Z"/><path class="cls-31" d="M231.93,179.55c-1.12-2.72-4.7-5.32-8.93-7.32l-4.78.12s-7.49.22-13.18.29h0C210.49,181.87,231.93,179.55,231.93,179.55Z"/><path class="cls-31" d="M273.52,207.46l-.6-6.55,20.7,11.9S277.62,208.65,273.52,207.46Z"/><path class="cls-31" d="M135.35,169.25c2,8.58,39.83,23.43,56.26,29.51-18.81-7.59-49-24.44-52.17-31.06-3.64-7.59.3-44,.3-44C137.62,127.46,132.77,158.28,135.35,169.25Z"/><path class="cls-32" d="M153.17,123.94a57,57,0,0,1,.72-6.07,43.34,43.34,0,0,1,4.51-6.07c.88-.69,4.55-4.41,4.32-4.91s-1.39-1.29-3.52-.5a46.63,46.63,0,0,0-5,2.37s.5-9.3.5-9.9,1.44-7.11,1.21-7.53-2-.42-2.5.28-2.34,6.93-2.34,6.93-2.43-1.51-3.6.25a3.46,3.46,0,0,0-3.3,2.32,3.39,3.39,0,0,0-2.54,2.43s-2,8.62-1.25,11.19,1.06,3.83.72,5.34a20.3,20.3,0,0,1-1.36,3.59S149.26,125.17,153.17,123.94Z"/><path class="cls-32" d="M348.94,162.11s5.88-5.14,7.61-5.86,10.15-4,11.08-3.95.6,2.58-.48,3.66a2.23,2.23,0,0,1,1.68,3.14,2.45,2.45,0,0,1,.54,3,2.45,2.45,0,0,1-.2,2.67s5.74.18,5.65,1.66-2.7,1.08-3.44,1a56.32,56.32,0,0,0-6.62.6c-.48.19-3.35,2.12-5.42,2.06a10.41,10.41,0,0,0-4,.85S350.68,166.54,348.94,162.11Z"/><path class="cls-33" d="M367.15,156a41.67,41.67,0,0,0-4.26,1.56,33.31,33.31,0,0,1-3.13,1.37A52.47,52.47,0,0,0,367.15,156Z"/><path class="cls-33" d="M360.63,166.79c-.5.91,1,1.85-.33,2.29-1,.33-3.34,1.25-4.43,1.67a10.18,10.18,0,0,1,3.47-.62c2.07.06,4.94-1.87,5.42-2.06a56.32,56.32,0,0,1,6.62-.6c.74.05,3.36.45,3.44-1s-5.65-1.66-5.65-1.66c-1.42,1.32-6.48,3.07-7.39,3.08S360.63,166.79,360.63,166.79Z"/><path class="cls-33" d="M360.81,165.44a1,1,0,0,1-.88-.87,3.09,3.09,0,0,1,.59-1.84s-2.47.21-2.77-.58a2.59,2.59,0,0,1,.21-1.79,2.38,2.38,0,0,0-.31,2.61c.44.88,1.74-.15,1.77,1.37C359.44,165,360.81,165.44,360.81,165.44Z"/><path class="cls-34" d="M365.65,149.15,364,149l-.57,4.66,1.77-.63Z"/><path class="cls-35" d="M361.78,167.86l-.15,0-.23,1.87-.36,2.9,1.68.18.48-3.88h0l.18-1.43A7.7,7.7,0,0,1,361.78,167.86Z"/><ellipse class="cls-36" cx="361.88" cy="173.07" rx="0.62" ry="4.16" transform="translate(153.74 515.98) rotate(-84.3)"/><path class="cls-37" d="M365.31,149.65l-1.1-.11a4.23,4.23,0,0,1-4-4.56l2.06-18.33,10,1L370.22,146A4.41,4.41,0,0,1,365.31,149.65Z"/><path class="cls-38" d="M368.8,133.41c-1.22-.06-3.13,3.61-5.26,2A2.08,2.08,0,0,0,362,135l-1,8.69a4.17,4.17,0,0,0,3.92,4.48h0a4.31,4.31,0,0,0,4.82-3.63l1.49-13.23C369.77,131.28,370,133.46,368.8,133.41Z"/></g><g id="HEAD"><path class="cls-32" d="M237.9,129.21c-23.27-5.87-21.49,21.1-21.49,21.1-3.69.05-4.55,2.84-1.93,5.85s5.11,1.48,5.11,1.48l2.18,14.14s3.18,8.34,12.42,7.88,7.05-8.41,7.05-8.41l-3.36-7.74a10,10,0,0,0,5.46-3.94C246.86,154,237.9,129.21,237.9,129.21Z"/><path class="cls-33" d="M237.88,163.51s-5.66,1.34-9.75-.4c0,0,2.61,3.89,11,3.33Z"/><path class="cls-39" d="M216.41,150.31s1.84-.06,2.47,1,1.48,3.72,1.68,3.75a57.23,57.23,0,0,0,.19-5.72,3.64,3.64,0,0,0,2.5-3.67c-.23-2.82-2.75-7.65-1.87-7.94s6.45,2.33,8.89-1.19,2.76-2.84,4.4-3.13,3.23-4.22,3.23-4.22l1.75,5.21s1-3.43,0-5.62c0,0,.62-7.92-1.94-10.31S225.9,112,222.2,116.05s-4.09,4.83-5.79,5.57-10.34,6.19-9.49,8.8a11.72,11.72,0,0,1,.74,4s-3.92,3.18-2.22,5.73,8.07,11.17,8.07,11.17A4.1,4.1,0,0,1,216.41,150.31Z"/><path class="cls-40" d="M239.65,128.8a26.34,26.34,0,0,0-.59-7.81c.9,4-1.16,8.22-1.16,8.22l1.75,5.21S240.62,131,239.65,128.8Z"/></g></g><g id="LADY"><g id="SHOES-2" data-name="SHOES"><path class="cls-26" d="M455.35,461.72c2.69-1.28,23.12-8.05,23.12-8.05s5.86.8,6.09,1.85,4.21,1.45,9.3-.77l.06.38,2.34,11.41a1.32,1.32,0,0,1-1.4,1.5l-40.46.3A1.33,1.33,0,0,1,453,467C453.07,465.36,453.51,462.59,455.35,461.72Z"/><path class="cls-27" d="M484.56,455.52c-.23-1-6.09-1.85-6.09-1.85l-2.8-9.93,16-2.79,2.17,13.8C488.77,457,484.8,456.57,484.56,455.52Z"/><path class="cls-28" d="M494.86,468l-40.46.3A1.33,1.33,0,0,1,453,467c.1-1.67.54-4.44,2.38-5.31.69-.33,2.55-1,4.92-1.86,2.23.61,2.52,6.36,2.52,6.36l33.33-.38.14.7A1.32,1.32,0,0,1,494.86,468Z"/><path class="cls-26" d="M563.67,437.15l5.44,8,9.58,6.51a1.57,1.57,0,0,1,.33,2.42c-3.2,3.53-11.89,12.75-15.65,13.28s-15.68.06-19.94-.13a1.18,1.18,0,0,1-1.18-1.46c.55-1.74,1.8-4.57,4.24-5.18,3.58-.9,11.54-4.51,11.48-7.37l-6.65-8.52Z"/><path class="cls-27" d="M558,453.21s5-4.26,6.65-2.46,4.49-5.61,4.49-5.61l-5.44-8-12.35,7.54Z"/><path class="cls-28" d="M542.25,465.76a1.18,1.18,0,0,0,1.18,1.46c4.26.19,16.14.66,19.94.13s12.45-9.75,15.65-13.28a1.57,1.57,0,0,0-.33-2.42l-.19-.13c-3.48,3.44-13,12.69-14.83,13.67-2.31,1.2-12.35.7-12.35.7.12-2.56-2.57-6-2.57-6h0a22.7,22.7,0,0,1-2.26.72C544.05,461.19,542.8,464,542.25,465.76Z"/></g><g id="PANTS-2" data-name="PANTS"><path class="cls-26" d="M497.46,280.22s9.55,12.83,8,22a50.67,50.67,0,0,0-.45,15.37l17.27,51.13s13.18,14.57,17,23.66,24.39,44.78,24.39,44.78-8.31,8-12.35,7.54c0,0-45.91-60.61-51.13-69.83s-20-37.89-20-37.89-2.88,25.32-2.35,26.53,5.83,14.57,7.65,26.4,6.4,51.93,6.4,51.93-12.73,5-16.25,1.9c0,0-21.13-70.88-22.95-83.71s-2.11-68.17,1.21-90.43Z"/><path class="cls-31" d="M464.58,298.4s1.82,48.92,4.09,52.8,15.51,33.73,17.22,41.46h0c-.14-1-.28-2-.4-2.76-1.82-11.83-7.12-25.2-7.65-26.4S480.19,337,480.19,337s-8-17.18-9.85-21.06S464.58,298.4,464.58,298.4Z"/></g><g id="BODY-2" data-name="BODY"><path class="cls-29" d="M525.11,210.81c-3.18-3-17.2-9.57-17.2-9.57l-33.75-14s-7-2.84-9.2-3.75-31.65-18.4-31.65-18.4-31.53-31.54-32.67-32.05-7,8.85-7,8.85,17.27,29.5,24.66,37,36.59,28.4,36.59,28.4a78,78,0,0,1-4.21,9c-3.07,5.79-.91,13.63,0,17.84s3.26,35.45,3.26,35.45,3.86,3.56,15.15,8.64,28.41,3.41,28.41,3.41c.45-14.85,14.77-50.68,14.77-50.68L541.4,249.1s-9.7,5.91-12.16,7.23S514.5,263,514.5,263s4.46,5.51,4,7.81c7.7-1.93,28.5-9.15,30.64-10.05,2.34-1,9.62-3.48,10.15-11.89S528.29,213.76,525.11,210.81Z"/><path class="cls-30" d="M496.55,243.38c-5.38.08-18.86-3.56-18.86-3.56s17.88,7,18,10.3c.13,2.89-1.25,11.67-1.62,13.95a1.56,1.56,0,0,0-.09.55c.18,1.62,4.42,1.91,4.42,1.91l-3.68,1.24a2.13,2.13,0,0,0,1.4,1.79,2.08,2.08,0,0,0,1.22,1.62c1.08.4-.82,8.72.09,10.46.45-14.85,14.77-50.68,14.77-50.68S501.93,243.3,496.55,243.38Z"/><path class="cls-32" d="M514.5,263s-6.93-1-8-1.22-4,.51-4.88.66-6.51,1.46-7.09,1.56-.85.95,0,1.36,4.94-.15,4.94-.15l5.21.11s-4.7.9-5.46,1-4.49.7-4.49,1.38c0,1,1.91,1.41,1.91,1.41a.92.92,0,0,0,0,1c.33.59,4.72,1.1,6.75,1s2.46.76,6.44,1.27,3.27-.64,6.78-1.21c.47-.08,1.11-.22,1.86-.41C519,268.55,514.5,263,514.5,263Z"/><polygon class="cls-30" points="541.4 249.1 543.42 248.29 535.88 245.67 541.4 249.1"/><path class="cls-27" d="M400.64,133.06s-6.3-6.14-7.84-6.68-8.73-2-9.67-2.6-2-1-2.18.13.11,1.18.11,1.18-2.39-1.1-2.9.17a2,2,0,0,0,.38,2.12A2.07,2.07,0,0,0,378,130s-.94,2.35.92,3.52c0,0-.93,1.4.83,2.84s6.69,2.9,7.69,2.88a4.15,4.15,0,0,0,1.14-.09,11.82,11.82,0,0,0,5,2.73C396.74,142.74,400.64,133.06,400.64,133.06Z"/><path class="cls-41" d="M388.71,129.1s.63,1.55,0,2.06c0,0,.61,2.77-.76,2.9,0,0,1.24,1.77.36,2.54,0,0,.88.59.87,1.18a3.33,3.33,0,0,1-.6,1.4l.79.67s.72-1.71.36-2.3a4.66,4.66,0,0,0-.84-1,4.07,4.07,0,0,0,0-2.16c-.36-.65.57-1.77.29-2.64S389.43,130.37,388.71,129.1Z"/><ellipse class="cls-42" cx="386.11" cy="143.38" rx="4.17" ry="0.66" transform="translate(-13.14 42.21) rotate(-6.15)"/><path class="cls-43" d="M381.68,95.89h1.11a4.47,4.47,0,0,1,4.47,4.47v19.85a0,0,0,0,1,0,0h-10a0,0,0,0,1,0,0V100.36a4.47,4.47,0,0,1,4.47-4.47Z" transform="translate(773.6 175.87) rotate(174.05)"/><path class="cls-44" d="M379.45,102.71c1.22-.06,3.13,3.89,5.26,2.19a2,2,0,0,1,1.56-.45l1,9.35a4.39,4.39,0,0,1-3.92,4.83h0a4.4,4.4,0,0,1-4.83-3.91L377,100.47C378.48,100.42,378.23,102.77,379.45,102.71Z"/><path class="cls-45" d="M384.28,119.47l-1.68.19.47,4.09h0a6.1,6.1,0,0,0,1.77.59Z"/><path class="cls-46" d="M386.59,139.76l-.08-.62h0l-1.75-.47h0l0,.23,0,0,0,0,.48,4.18,1.68-.2Z"/></g><g id="HEAD-2" data-name="HEAD"><path class="cls-32" d="M486.32,149.65s-10.38,22.56-7,30.57c.77,1.83,6.07,2.16,6.07,2.16l-3.35,7.1-7.9-2.22s-1.64,13.13,11.48,17.67a23.09,23.09,0,0,0,22.27-3.69s-10.11-5.57-9.83-8.35,4.66-26.19,5.63-29.77S486.32,149.65,486.32,149.65Z"/><polygon class="cls-47" points="485.42 182.38 489.94 182.55 484.64 184.03 485.42 182.38"/><path class="cls-47" d="M496.66,172.06s2.08,11.51,2.6,13.72l1.15-5.67Z"/><path class="cls-26" d="M496.49,166.07s3.55-3.18,5.33-.19-3.22,7.65-5.16,6.18c0,0,2.54,10.3,4.55,12a4.17,4.17,0,0,0,4.09.79l-2.2-4.35,3.11,3.9a64.49,64.49,0,0,1,8.52-1.33c3.71-.23,11.9-2.95,13.49-4.81,0,0-10.84-15.23-13.41-20.61s-6-9.62-9.09-10.53-20-7.47-21.56-4.34-.46,13.19-.46,13.19l2.48-5s-.65,7.7,3.84,9.4,6.16,1.08,6.16,2.76A14.77,14.77,0,0,0,496.49,166.07Z"/><path class="cls-31" d="M502.18,167.1c.18,2.87-3.83,6.24-5.52,5,0,0,.17.67.45,1.7A5.7,5.7,0,0,0,502.18,167.1Z"/><path class="cls-31" d="M486.18,151s-.42-6.42-1.19-6.2-1.89,5.22-1.29,11.18Z"/></g></g><g id="CONFETTI"><path class="cls-48" d="M606.27,310.79a20,20,0,0,1-9.09,7.21l-3-4.12s6.71-3.19,9.09-7.21Z"/><path class="cls-49" d="M551.87,295.64C548,293,545.11,283,545.11,283l4.07-3.7s2.91,10,6.76,12.62Z"/><path class="cls-50" d="M626,242.1c-1.23,4.51-9.68,10.56-9.68,10.56l-4.84-2.61s8.45-6.05,9.67-10.56Z"/><path class="cls-49" d="M197.37,107.32A24,24,0,0,1,185,98.61l5.17-7.35A23.91,23.91,0,0,0,202.54,100Z"/><path class="cls-51" d="M508.86,142.74c-4.23-4.31-6.64-12-6.64-12L509,128.2s2.3,7.8,6.64,12Z"/><path class="cls-52" d="M506,98.79c-4.06,2.32-11.93,3.41-11.93,3.41l-.1-5.12s7.87-1.1,11.93-3.42Z"/><path class="cls-50" d="M288.81,321.71a23.43,23.43,0,0,1-5.17,8.92l-4.38-2.95s4-4.07,5.17-8.92Z"/><path class="cls-52" d="M189.93,296.77a24,24,0,0,0-1.6-1.9,24.38,24.38,0,0,0-1.75-1.77c.07.07-.85-.74-.88-.6-.5,2.39-3,3.85-5.15,4.57a8.18,8.18,0,0,1-3.74.34,7.24,7.24,0,0,1-1.57-.46c-.23-.1-.46-.22-.68-.34l-.24-.14-.26-.26a6.05,6.05,0,0,0-1.25-1.06c-.4-.21.06.48,0,.45a16.11,16.11,0,0,0,1.3,1.66c2.41,2.84,5.07,5.59,9,5.41,2.77-.12,6.64-2,7.25-5C190.5,297.43,190.05,296.93,189.93,296.77Z"/><path class="cls-49" d="M434.08,241.73c-9.93.43-13.55-9.34-13.27-12.38l-5.05,5.46c-.3,10,11,14.15,14.87,12.94C431.5,246.43,433.72,241.75,434.08,241.73Z"/><path class="cls-49" d="M627.92,213.52c-9.93.43-13.55-9.35-13.27-12.38l-5,5.46c-.3,10,11,14.15,14.87,12.94C625.34,218.22,627.56,213.54,627.92,213.52Z"/><path class="cls-52" d="M397.62,197.62c.67,7-3.22,13.46-10.85,12.77-5.76-.53-11.84-1.36-14.09-7.62.22.62,4.56-.2,4.8.48a10.63,10.63,0,0,0,4.14,5.25,12,12,0,0,0,3.13,1.45c1.1.27.89.27-.63,0a10.52,10.52,0,0,0,2.24-.4c5.3-1.42,6.91-7.67,6.46-12.42,0,.27,4.77.14,4.8.48Z"/><path class="cls-53" d="M372.68,202.77c.22.62,4.56-.2,4.8.48a10.63,10.63,0,0,0,4.14,5.25,11.66,11.66,0,0,0,2.92,1.38l-1,.15C378.87,209.36,374.51,207.86,372.68,202.77Z"/><polygon class="cls-54" points="387.41 209.19 387.41 209.19 387.41 209.19 387.41 209.19"/><path class="cls-53" d="M232.23,239.77c-.92-3.23.35-6.63,4-7,2.77-.26,5.71-.39,7.31,2.37-.16-.28-2.13.49-2.31.19a5,5,0,0,0-2.41-2.12,5.46,5.46,0,0,0-1.6-.41q-.81,0,.3-.06a4.67,4.67,0,0,0-1,.39c-2.38,1.12-2.6,4.22-2,6.42,0-.13-2.26.35-2.31.19Z"/><path class="cls-52" d="M243.55,235.17c-.16-.28-2.13.49-2.31.19a5,5,0,0,0-2.41-2.12,5.46,5.46,0,0,0-1.49-.39,4.09,4.09,0,0,1,.46-.16C240.06,232.6,242.25,232.92,243.55,235.17Z"/><polygon class="cls-55" points="236.04 233.42 236.04 233.42 236.04 233.42 236.04 233.42"/><path class="cls-30" d="M317.09,284c-5.2,7.85-14.79,11.37-22.19,4.18-5.6-5.44-11.26-11.47-8.31-19.94-.3.84,5,3.66,4.62,4.58a14.31,14.31,0,0,0-.11,9,16.4,16.4,0,0,0,2,4.18q1.39,1.82-.66-.53a13.73,13.73,0,0,0,2.68,1.48c6.76,3,13.75-2.19,17.3-7.54-.21.31,4.88,4.19,4.62,4.58Z"/><path class="cls-49" d="M286.59,268.25c-.3.84,5,3.66,4.62,4.58a14.31,14.31,0,0,0-.11,9,15.93,15.93,0,0,0,1.89,3.92c-.37-.21-.76-.44-1.18-.7C287.49,280.41,284.19,275.13,286.59,268.25Z"/><polygon class="cls-56" points="296.58 287.47 296.58 287.47 296.58 287.47 296.58 287.47"/><path class="cls-49" d="M264.2,92.47c-1.45,3.48-5.76,3.31-8.93,3.27-3.59,0-6.74.25-8.47,3.26.4-1.1.59-2,1.1-3.44,1.26-3.48,4.47-4.45,7.88-4.53,3.24-.07,8.36.65,9.93-3.1-.45,1.07-.93,3.16-1.51,4.54Z"/><path class="cls-30" d="M256.71,64.56A79.71,79.71,0,0,1,265,79c.88,2,1.94,4.46,1.36,6.68a26.4,26.4,0,0,1-1.95,6c.77-1.42.65-3.33,1.43-4.76a4.22,4.22,0,0,0,.41-.89c-.44,1.48-.89,3-1.34,4.43l.13-.46-.08.32c.6-3.55-1.61-7.26-3.15-10.32a76.2,76.2,0,0,0-6.56-10.71c-.18-.25.61-2.11.69-2.39a9.79,9.79,0,0,0,.74-2.37Z"/><path class="cls-49" d="M256.14,114.48a4.4,4.4,0,0,1-3.17,4.18c-2.27.8-4.13,1.55-4.79,4.1.4-1.57-.13-3.38.28-5a5.32,5.32,0,0,1,3.86-3.81c2-.65,3.58-1.41,4-3.65l0,.34,0-.48c.07-.92,0,.76,0,.89,0,1.13-.12,2.26-.2,3.39Z"/><path class="cls-30" d="M247.47,97.05a4.81,4.81,0,0,0,.71,3.65h0c1.77,2.83,5.93,4.84,7.65,7.3,1.15,1.65,1,3.5.61,5.35a6.36,6.36,0,0,1-.36,1.68q-.07.41-.18.81a8,8,0,0,0-2.09-4.06h0c-1.64-1.85-4-3.3-5.73-5a5.59,5.59,0,0,1-1.71-5l0,.06,0-.17,0-.16a23.2,23.2,0,0,1,1.12-4.64Z"/><path class="cls-50" d="M542.13,159.17a8.31,8.31,0,0,1-.08-5.12c.94-3.37,3.21-5.77,5.34-7.72s4.76-3.75,7.06-5.75a25.39,25.39,0,0,0,3.24-3.31,9,9,0,0,0,2-4.43,8.15,8.15,0,0,0-1.22-5.42,18.21,18.21,0,0,0-2.67-3,10.54,10.54,0,0,0-2.41-1.86,7.34,7.34,0,0,0-3.72-.57c-1.62.07-3.22.21-4.86.22s-3.46,0-5.21-.19a9.51,9.51,0,0,1-2.36-.44,3,3,0,0,1-.35-.13c-1.37-3,.67-5.84,1.52-7.84a6.88,6.88,0,0,0,.51-4.22c-.4-2-1.78-3.61-2.77-5.22a20.94,20.94,0,0,0-2.9-3s-.38-.31-.22,0c1.14,1.84,2.61,3.59,2.83,5.87a8.22,8.22,0,0,1-1.17,4.52,10.37,10.37,0,0,0-1.4,4.45c-.06,2.19,1.27,3.87,2.62,5.3,1.7,1.8,3.34,3.26,5.31,3.68a26.46,26.46,0,0,0,4.9.39c1.75,0,3.47,0,5.19-.1a13.58,13.58,0,0,1,4.07.06,4.92,4.92,0,0,1,.59.18,7.23,7.23,0,0,1,.42,1.37,7.9,7.9,0,0,1-.69,5.26,14.59,14.59,0,0,1-2.87,3.7,38.79,38.79,0,0,1-3.44,3,56.81,56.81,0,0,0-6.93,5.92c-1.9,2.06-4.06,4.91-4,8.75a8.26,8.26,0,0,0,1.61,4.63,17.61,17.61,0,0,0,1.65,1.88"/><path class="cls-57" d="M540.11,158.2a22.69,22.69,0,0,0,2.87,3.06l.3.26a25.88,25.88,0,0,1-1.15-2.35,8.31,8.31,0,0,1-.08-5.12c.94-3.37,3.21-5.77,5.34-7.72s4.76-3.75,7.06-5.75a25.39,25.39,0,0,0,3.24-3.31,9,9,0,0,0,2-4.43,8.15,8.15,0,0,0-1.22-5.42,18.21,18.21,0,0,0-2.67-3l-.62-.58.25.38a4.39,4.39,0,0,1,.67,1.65,9.27,9.27,0,0,1,.29,1,7.9,7.9,0,0,1-.69,5.26,14.59,14.59,0,0,1-2.87,3.7,37.43,37.43,0,0,1-3.44,3,56.81,56.81,0,0,0-6.93,5.92c-1.9,2.06-4.06,4.91-4,8.75A8.26,8.26,0,0,0,540.11,158.2Z"/><path class="cls-57" d="M536,121.35a21.11,21.11,0,0,0,1.94,1.87,2.4,2.4,0,0,1-.11-.23,4.8,4.8,0,0,1-.81-1.5h0c-1.37-3,.67-5.84,1.52-7.84a6.88,6.88,0,0,0,.51-4.22,14.8,14.8,0,0,0-2.51-4.8c-.13-.18-.41-.68-.64-.94-1.11-1.29-3-3-2.74-2.47,2,3.74,3,6.53,2.82,7.09a10.14,10.14,0,0,1-1.16,3.3,10.37,10.37,0,0,0-1.4,4.45C533.28,118.24,534.61,119.92,536,121.35Z"/><path class="cls-53" d="M349.13,81.66a4.47,4.47,0,0,0,.3-1.09l-.21-.29a8.81,8.81,0,0,0-1.67-1.57c-1.32-1-2.68-2-4.07-2.86s-2.67-1.57-4-2.35a6.84,6.84,0,0,1-2.68-2.39,9.85,9.85,0,0,1-1-2.74c-.11-.45-.22-.91-.31-1.37l1-.62a7,7,0,0,0-.27,1,4.15,4.15,0,0,0,.38.44A13,13,0,0,0,339.88,70c1.43.81,2.83,1.67,4.2,2.61a25.15,25.15,0,0,1,3.73,2.86,9.75,9.75,0,0,1,2.24,5.19Z"/><path class="cls-52" d="M353.75,51.18a20.65,20.65,0,0,0-.71-3.94c0-.12-.06-.24-.1-.37,0,.69-.28,2.38-.3,2.49a7.76,7.76,0,0,1-2.59,4.13c-3.78,3.24-8.32,1.49-13,6.14a7.28,7.28,0,0,0-1.84,5,16.88,16.88,0,0,0,.6,3.76c.06.26.12.53.19.79v-.43a4.15,4.15,0,0,1,.31-1.68,8.41,8.41,0,0,1,.31-1,7.47,7.47,0,0,1,3.28-3.85c4.94-2.87,9-2,12.71-6.5A6.63,6.63,0,0,0,353.75,51.18Z"/><path class="cls-52" d="M350.15,81.19a21.54,21.54,0,0,0-.58-2.51l0,.24a5,5,0,0,1-.13,1.62l0,0c-.48,3.14-3.57,4.33-5.29,5.49a5.94,5.94,0,0,0-2.6,3.11C340,94,342,99.34,342,98.8c0-3,0-5,1.43-7.14a9.73,9.73,0,0,1,2.64-2,9.68,9.68,0,0,0,3.43-2.84C350.68,85.07,350.49,83,350.15,81.19Z"/><path class="cls-30" d="M610.4,95.52l1,2.41s-.51-2.1,3.73-4.45a9.39,9.39,0,0,1,4.94-1l1.53-3.12a9.42,9.42,0,0,0-4.56.37,13,13,0,0,0-5.17,3c-.23.19-.61.54-.81.73Z"/><path class="cls-30" d="M598.52,139.44s.83-12.2,9.24-17.4,15.34-2.72,16.8-11.63c0,0,.22,1.65-10.88,5.11C607.16,117.55,591.42,124.89,598.52,139.44Z"/><path class="cls-49" d="M608.67,166a17.75,17.75,0,0,0,1.84-8.66c-.37-4.39-2.74-9.51-5.85-13.43-10.78-13.58-5.2-19.41-5.2-19.41-5.91,8.59-2.26,14.81,3.44,24,8,13,4,20.37,4,20.37l.35-.21C607.78,167.81,608.25,166.9,608.67,166Z"/><path class="cls-49" d="M612.09,92.46c-1.69,3.06.18,5.79,1.85,7.3,4.59,4.16,14.67,6.78,8.88,15.13,0,0,3.18-3.21-6.79-8.24-6-3.05-9.37-9-4.84-13.38"/><path class="cls-58" d="M159.57,234.84c-3.3-2.21-9.43-.8-12.37,2.2a7.57,7.57,0,0,0-2.09,4.93,19.93,19.93,0,0,1-4-3.87,14.69,14.69,0,0,1-1.62-2.53l-1.38-7a39.13,39.13,0,0,0,1.17,7.08c.33,1.18.71,2.34,1.11,3.46a14.66,14.66,0,0,0,4.79,6.21c.17,3.15.23,6.44-1.27,9.63a10.5,10.5,0,0,1-4,4.56,10.21,10.21,0,0,1-1.37.67l1.63,3.83.59-.33c7.14-4.24,7.27-8.68,7.22-11.38a48,48,0,0,1-.12-5.37,12.36,12.36,0,0,0,9,1.45,6.91,6.91,0,0,0,5.1-3.89,6.11,6.11,0,0,0,.26-4.31,10.21,10.21,0,0,0-.39-1.55A5.78,5.78,0,0,0,159.57,234.84Zm-7.84,10a15.2,15.2,0,0,1-4.81-1.7c1-2,2.91-3.57,5.63-4.56a10.87,10.87,0,0,1,5.87-.64A6.54,6.54,0,0,1,161,239.1a3.88,3.88,0,0,1,.31.26C160.37,242.72,156.35,245.6,151.73,244.82Z"/><path class="cls-59" d="M138.07,228.58a16.25,16.25,0,0,1,5.24-12.38,15.08,15.08,0,0,1,4.92-2.92q2.15,1.54,4.23,3.14a20,20,0,0,0-6,2.23c-8.87,5.73-7,16.95-7,16.95C138.44,233.89,138.07,228.58,138.07,228.58Zm23.19,10.81a3.87,3.87,0,0,0-1.08-.76c-2.83-1.35-5.75-.89-9,.57a8.25,8.25,0,0,0-4.28,4,6.54,6.54,0,0,1-1.79-1.18,7,7,0,0,1,2.08-4.9c2.94-3,9.06-4.4,12.36-2.2a4.72,4.72,0,0,1,1.82,2.61A3.81,3.81,0,0,1,161.26,239.39Z"/><path class="cls-60" d="M145.14,245.33a16.54,16.54,0,0,0,2.68,1.61s-.06,1.41,0,1.8c0,0-2.39-.91-2.55-1.42C145.22,247.32,145.13,245.85,145.14,245.33Z"/><path class="cls-61" d="M412.21,307.92c4.86.55,10.78-4.43,12.32-9.37a9.38,9.38,0,0,0-.48-6.59,24.46,24.46,0,0,1,6.6,2,17.25,17.25,0,0,1,3.2,1.86l5.45,6.88a48.5,48.5,0,0,0-5.27-7.1c-1-1.11-2.1-2.17-3.17-3.16a18.08,18.08,0,0,0-8.74-4.12c-2-3.36-3.87-6.93-4-11.27a12.93,12.93,0,0,1,1.82-7.25,12.63,12.63,0,0,1,1.13-1.51L417.1,265c-.17.23-.32.46-.47.7-5.43,8.66-3.08,13.6-1.5,16.53a61.19,61.19,0,0,1,3.14,5.81c-.73-.09-5.55-.48-10.72,3.5a8.47,8.47,0,0,0-3.38,7.13,7.54,7.54,0,0,0,2.13,4.88,12.78,12.78,0,0,0,1.3,1.47C408.82,306.39,410.07,307.67,412.21,307.92Zm3-15.36a18.76,18.76,0,0,1,6.23-.84c.09,2.77-1.19,5.55-3.62,8.16a13.22,13.22,0,0,1-6.07,4,8.07,8.07,0,0,1-3.44.14l-.49-.11C406.9,299.73,409.69,294.31,415.19,292.56Z"/><path class="cls-58" d="M439.3,302.67a20.06,20.06,0,0,1,1.23,16.52,18.58,18.58,0,0,1-3.75,6q-3.22-.48-6.41-1.05a24.56,24.56,0,0,0,5.31-5.83c6.5-11.27-1.83-22.53-1.83-22.53C435.91,297.07,439.3,302.67,439.3,302.67Zm-31.5,1.21a4.87,4.87,0,0,0,1.61.22c3.86-.11,6.8-2.26,9.55-5.68a10.24,10.24,0,0,0,2.46-6.75,8.11,8.11,0,0,1,2.63.29,8.67,8.67,0,0,1,.48,6.54c-1.54,4.94-7.46,9.93-12.32,9.37a5.78,5.78,0,0,1-3.46-1.84A4.69,4.69,0,0,1,407.8,303.88Z"/><path class="cls-60" d="M422.12,288.29a21.24,21.24,0,0,0-3.85-.26s-.72-1.58-.95-2c0,0,3.12-.36,3.6.12C420.92,286.16,421.83,287.72,422.12,288.29Z"/><path class="cls-49" d="M544,95.59a10,10,0,0,1,4.84-4.08l2.42,2.87a10,10,0,0,0-4.84,4.08Z"/><path class="cls-50" d="M349.14,222.81a15,15,0,0,1,4.18-8.57l5.08,2.48a15,15,0,0,0-4.17,8.57Z"/><path class="cls-50" d="M274.49,150.38a15.45,15.45,0,0,1,4.3-8.82l5.23,2.55a15.52,15.52,0,0,0-4.3,8.82Z"/><path class="cls-52" d="M306.78,143.89a12.63,12.63,0,0,1,7,3.85l-2.28,4.16a12.68,12.68,0,0,0-7-3.85Z"/><path class="cls-62" d="M187.82,137a10.57,10.57,0,0,1-1.85,6.43l-3.81-1.09a10.62,10.62,0,0,0,1.84-6.44Z"/><path class="cls-63" d="M425.43,106.19a10.54,10.54,0,0,1,6.55,1.39l-.82,3.88a10.62,10.62,0,0,0-6.55-1.39Z"/><path class="cls-64" d="M500.92,312a10.21,10.21,0,0,1,5,4.08l-2.42,3a10.27,10.27,0,0,0-5-4.08Z"/><path class="cls-50" d="M419.55,76a10.09,10.09,0,0,1,3.77-5.14l3.05,2.25a10.08,10.08,0,0,0-3.78,5.13Z"/><path class="cls-49" d="M544.85,238.79a11.92,11.92,0,0,1,1.25-7.46l4.43.74a11.92,11.92,0,0,0-1.25,7.46Z"/><polygon class="cls-65" points="162.17 198.13 165.62 193.58 173.06 201.27 162.17 198.13"/><polygon class="cls-49" points="184.99 267.45 190.28 263.29 192.24 269.87 184.99 267.45"/><polygon class="cls-52" points="340.78 167.96 342.97 165.22 345.18 169.01 340.78 167.96"/><polygon class="cls-52" points="223.98 156.14 227.49 156.08 226 160.2 223.98 156.14"/><polygon class="cls-50" points="300.66 88.89 303.36 91.14 299.53 93.28 300.66 88.89"/><polygon class="cls-66" points="337.9 117.99 342.09 115.61 342.98 121.56 337.9 117.99"/><polygon class="cls-67" points="556.37 335.39 558.18 330.93 562.58 335.03 556.37 335.39"/><polygon class="cls-49" points="177.73 234.94 176.96 230.41 181.55 231.38 177.73 234.94"/><polygon class="cls-49" points="295.13 242.04 290.86 240.35 294.07 236.94 295.13 242.04"/><polygon class="cls-50" points="598.2 109.87 593.93 108.18 597.15 104.77 598.2 109.87"/><polygon class="cls-49" points="533.72 185.51 529.6 183.47 533.08 180.33 533.72 185.51"/><polygon class="cls-50" points="537.98 361.48 541.52 358.57 542.95 363.04 537.98 361.48"/><path class="cls-68" d="M464.87,177.05c-3.7,4-11.67,6.66-11.67,6.66l-.2-2.17s8-2.66,11.67-6.66Z"/><path class="cls-69" d="M528.42,76.72c-3.7,4-11.67,6.66-11.67,6.66l-.2-2.17s8-2.66,11.67-6.66Z"/><path class="cls-49" d="M460.34,120.76c-3.7,4-11.67,6.65-11.67,6.65l-.2-2.17s8-2.66,11.67-6.65Z"/><path class="cls-50" d="M406.27,133.46c-3.85,3.85-11.92,6.2-11.92,6.2l-.11-2.18s8.06-2.35,11.92-6.2Z"/></g></g></g></svg>