<?xml version="1.0" encoding="iso-8859-1"?>
<!-- Generator: Adobe Illustrator 26.0.1, SVG Export Plug-In . SVG Version: 6.00 Build 0)  -->
<svg version="1.1" xmlns="http://www.w3.org/2000/svg" xmlns:xlink="http://www.w3.org/1999/xlink" x="0px" y="0px"
	 viewBox="0 0 1200 1200" enable-background="new 0 0 1200 1200" xml:space="preserve">
<g id="Background_x5F_Simple">
	<g>
		<path fill="#EFE5E9" d="M303.2869568,233.9575043c0,0,132.8500366,39.6077423,183.0497131,40.6332245
			c0,0-27.5671692-8.2767334-54.8330383-15.2343445c0,0-1.0081787-11.7058411-8.5076294-14.1567078
			c-7.4994507-2.4508514-16.7641296,4.3841705-16.7641296,4.3841705s0.009613-13.3262482-13.6286316-18.9551086
			c-13.6382446-5.6288757-15.0915527,9.2762299-15.0915527,9.2762299s-15.5098267-39.3442383-39.3688049-45.9696655
			C314.2839355,187.3098755,294.4982605,209.4555817,303.2869568,233.9575043z"/>
		<path fill="#EFE5E9" d="M1096.0488281,267.956665c0,0-134.260498,34.513916-184.4619751,33.6248169
			c0,0,27.8619995-7.2196655,55.3727417-13.1327209c0,0,1.4534302-11.6588135,9.0406494-13.8219604
			c7.5872803-2.1631775,16.5846558,5.02005,16.5846558,5.02005s0.4981079-13.3168335,14.3406982-18.4216309
			s14.7269287,9.8447876,14.7269287,9.8447876s16.9972534-38.7241211,41.0908813-44.4350891
			C1086.8371582,220.9239502,1105.7644043,243.8077545,1096.0488281,267.956665z"/>
		<path fill="#EFE5E9" d="M498.8108521,208.5847626c0,0-51.2475891-20.8613892-61.5387268-22.4355164
			s-31.5736389-16.6601105,10.5163269-0.8287048c0,0,5.2153625-12.8119049,23.5111084-6.8111267
			c18.2957153,6.0007782,18.1347961,14.7290344,18.1347961,14.7290344S507.7992859,206.5794678,498.8108521,208.5847626z"/>
		<path fill="#EFE5E9" d="M976.2879028,177.6754913c0,0,51.2476196-20.8613892,61.5387573-22.4355164
			s31.5736084-16.6601105-10.5163574-0.8287048c0,0-5.215332-12.8119049-23.5111084-6.8111267
			c-18.2957153,6.0007935-18.1348267,14.7290497-18.1348267,14.7290497S967.2994385,175.6701965,976.2879028,177.6754913z"/>
		<path fill="#EFE5E9" d="M852.3121948,247.9169006c0.5186768,0.6438293,88.7363281-11.574295,98.3815918-16.25914
			c9.6452637-4.6848297,17.0858765-11.2987213,6.8894653-14.6056671s-15.4324341-1.6534729-15.4324341-1.6534729
			s-5.7871094-27.5578613-32.7938232-25.9043884s-28.1090088,25.6288147-27.5578613,37.2031097
			c0,0-3.5825195-4.9604034-12.401062-1.9290466c-8.8184814,3.0313721-4.9603882,9.094101-6.8894653,9.094101
			C860.5795898,233.8623962,844.3204346,237.9960632,852.3121948,247.9169006z"/>
		<path fill="#EFE5E9" d="M476.6723328,403.5022888c-0.5186462,0.6437988-88.7362976-11.5743103-98.3815613-16.2591553
			c-9.6452332-4.684845-17.0858765-11.2987061-6.8894653-14.6056519s15.4324036-1.6534729,15.4324036-1.6534729
			s5.7871704-27.5578613,32.7938538-25.9043884c27.0067139,1.6534729,28.1090088,25.6288147,27.5578613,37.2030945
			c0,0,3.5825195-4.9604187,12.4010315-1.9290466s4.9604187,9.0940857,6.8894653,9.0940857
			S484.6641235,393.5814514,476.6723328,403.5022888z"/>
		<circle fill="#EFE5E9" cx="1120.5100098" cy="421.8227844" r="6.9541049"/>
		<circle fill="#EFE5E9" cx="1086.6636963" cy="390.7132874" r="6.9541049"/>
		<circle fill="#EFE5E9" cx="361.3346863" cy="988.7545776" r="6.9541049"/>
		<circle fill="#EFE5E9" cx="1111.0113525" cy="342.7309875" r="6.9541049"/>
		<circle fill="#EFE5E9" cx="457.6181946" cy="531.9002075" r="6.9541049"/>
		<circle fill="#EFE5E9" cx="401.2240906" cy="466.912323" r="6.9541049"/>
		<circle fill="#EFE5E9" cx="198.2975616" cy="751.2938843" r="6.9541049"/>
	</g>
</g>
<g id="Layer_x5F_Graphs">
	<g>
		<rect x="133.2838287" y="970.3059082" fill="#ED5A76" width="63.3481979" height="53.0953636"/>
		<rect x="220.2767792" y="948.5213013" fill="#ED5A76" width="63.3481979" height="74.8799667"/>
		<rect x="307.2770081" y="909.7116089" fill="#ED5A76" width="63.3481979" height="113.6896286"/>
		<rect x="394.269989" y="857.2702637" fill="#ED5A76" width="63.3481979" height="166.1309967"/>
		<rect x="481.2702026" y="790.899231" fill="#ED5A76" width="63.3481979" height="232.5020294"/>
		<rect x="568.2631836" y="731.1914673" fill="#ED5A76" width="63.3554726" height="292.2097778"/>
		<rect x="655.2634277" y="662.8294678" fill="#ED5A76" width="63.3481979" height="360.5717773"/>
		<rect x="742.2636719" y="531.954895" fill="#ED5A76" width="63.3482437" height="491.4463501"/>
		<path fill="#22AAE2" d="M79.5278778,952.8875122c0,0,343.9064331-166.7490234,539.0964966-366.1640625
			c0,0,0.8450317,59.9935303,0,57.4585571c-0.8449707-2.5349121,51.5437622-119.2359009,51.5437622-119.2359009
			L564.5457764,545.319519l43.0939331,24.6696777c0,0-92.1027222,124.0465698-544.1664429,314.1668701L79.5278778,952.8875122z"/>
		
			<linearGradient id="SVGID_1_" gradientUnits="userSpaceOnUse" x1="133.2838287" y1="1015.1793823" x2="298.4349976" y2="1015.1793823">
			<stop  offset="0" style="stop-color:#FFFFFF;stop-opacity:0"/>
			<stop  offset="1" style="stop-color:#FFFFFF"/>
		</linearGradient>
		<path fill="url(#SVGID_1_)" d="M133.2838287,1014.5217285c17.0105438-1.5404663,38.4753876-3.9383545,63.3481903-7.56427
			v16.4437866h-63.3481903V1014.5217285z"/>
		
			<linearGradient id="SVGID_00000159446322272299746980000000196740803754627981_" gradientUnits="userSpaceOnUse" x1="220.2767792" y1="1007.3752441" x2="357.7323608" y2="1007.3752441">
			<stop  offset="0" style="stop-color:#FFFFFF;stop-opacity:0"/>
			<stop  offset="1" style="stop-color:#FFFFFF"/>
		</linearGradient>
		<path fill="url(#SVGID_00000159446322272299746980000000196740803754627981_)" d="M220.2767792,1003.2879028
			c19.6046448-3.211731,40.8587799-7.1428223,63.3481903-11.9386597v32.052002h-63.3481903V1003.2879028z"/>
		
			<linearGradient id="SVGID_00000129900051313005733240000008403069615658388398_" gradientUnits="userSpaceOnUse" x1="307.2770081" y1="996.5737915" x2="434.0466309" y2="996.5737915">
			<stop  offset="0" style="stop-color:#FFFFFF;stop-opacity:0"/>
			<stop  offset="1" style="stop-color:#FFFFFF"/>
		</linearGradient>
		<path fill="url(#SVGID_00000129900051313005733240000008403069615658388398_)" d="M307.2770081,986.0884399
			c20.3676453-4.7158813,41.578186-10.1293335,63.348175-16.3421021v53.6549072h-63.348175V986.0884399z"/>
		
			<linearGradient id="SVGID_00000072998302005972570000000000715643217223538093_" gradientUnits="userSpaceOnUse" x1="394.269989" y1="982.3898926" x2="527.9302368" y2="982.3898926">
			<stop  offset="0" style="stop-color:#FFFFFF;stop-opacity:0"/>
			<stop  offset="1" style="stop-color:#FFFFFF"/>
		</linearGradient>
		<path fill="url(#SVGID_00000072998302005972570000000000715643217223538093_)" d="M394.269989,962.7561035
			c20.7817993-6.3726196,41.9705505-13.4790649,63.3482056-21.3776245v82.0227661H394.269989V962.7561035z"/>
		
			<linearGradient id="SVGID_00000132786303619928666810000016038862375577396134_" gradientUnits="userSpaceOnUse" x1="481.2702026" y1="964.067688" x2="613.0126953" y2="964.067688">
			<stop  offset="0" style="stop-color:#FFFFFF;stop-opacity:0"/>
			<stop  offset="1" style="stop-color:#FFFFFF"/>
		</linearGradient>
		<path fill="url(#SVGID_00000132786303619928666810000016038862375577396134_)" d="M481.2702026,932.3172607
			c21.0870361-8.3563232,42.2757568-17.5264282,63.3482056-27.5830688v118.6670532h-63.3482056V932.3172607z"/>
		
			<linearGradient id="SVGID_00000176030426966173172390000016538399570728868011_" gradientUnits="userSpaceOnUse" x1="568.2631836" y1="940.3320923" x2="723.7416992" y2="940.3320923">
			<stop  offset="0" style="stop-color:#FFFFFF;stop-opacity:0"/>
			<stop  offset="1" style="stop-color:#FFFFFF"/>
		</linearGradient>
		<path fill="url(#SVGID_00000176030426966173172390000016538399570728868011_)" d="M568.2631836,893.0571289
			c21.3994141-10.9504395,42.595459-22.8600464,63.3554688-35.7941284v166.1382446h-63.3554688V893.0571289z"/>
		
			<linearGradient id="SVGID_00000106867872550575984770000015443532501088770439_" gradientUnits="userSpaceOnUse" x1="655.2634277" y1="908.7670288" x2="821.6013184" y2="908.7670288">
			<stop  offset="0" style="stop-color:#FFFFFF;stop-opacity:0"/>
			<stop  offset="1" style="stop-color:#FFFFFF"/>
		</linearGradient>
		<path fill="url(#SVGID_00000106867872550575984770000015443532501088770439_)" d="M655.2634277,841.9454346
			c21.8063965-14.6853027,43.0169067-30.5913696,63.3482056-47.8126831v229.2684937h-63.3482056V841.9454346z"/>
		
			<linearGradient id="SVGID_00000114767766036476457930000004975301401725403010_" gradientUnits="userSpaceOnUse" x1="742.2636719" y1="863.9625854" x2="1055.3597412" y2="863.9625854">
			<stop  offset="0" style="stop-color:#FFFFFF;stop-opacity:0"/>
			<stop  offset="1" style="stop-color:#FFFFFF"/>
		</linearGradient>
		<path fill="url(#SVGID_00000114767766036476457930000004975301401725403010_)" d="M805.6118774,704.5239258v318.8773193
			h-63.3482056V773.1329346C764.8256836,752.1113281,786.0870972,729.2877197,805.6118774,704.5239258z"/>
	</g>
</g>
<g id="Layer_x5F_Character_1">
	<g id="LEFT_LEG">
		<path fill="#212E51" d="M1013.0802002,804.7811279c0.5305176,6.1154785,0.8139038,11.9285278,0.3924561,17.2546997
			c0,0.0073242,0,0.0073242,0,0.0073242c-0.9445801,11.9654541-5.4425049,21.46698-18.6454468,26.4021606
			c-1.8165894,0.6787109-3.7930298,1.2688599-5.9439697,1.7704468
			c-23.8046265,5.5253906-29.5377808-14.244873-29.9737549-15.8899536l-0.0289917-0.1106567l-20.6124878-193.7391968
			c2.274292-19.4309082,25.713501-25.437561,52.010437-21.6679688c10.0856323,1.4459229,18.7108765,4.3966675,23.397644,8.7122192
			C1030.5776367,643.0855713,1011.19104,783.0264893,1013.0802002,804.7811279z"/>
		<path fill="#212E51" d="M1018.4138184,964.1307983c-1.133606,0.6049194-2.4777832,1.2467041-4.0691528,1.9105835
			c-10.7178955,4.4778442-24.0807495,0-24.0807495,0l-3.9456177-16.5686035l-27.4088135-115.1469727l-0.0289917-0.1106567
			c0.0072632-32.5618286,21.3485107-37.0470581,32.5386963-35.0626221c1.5623169,0.2728882,2.9284058,0.6786499,4.0110474,1.1507568
			c8.7196655,3.7844238,17.8098755,21.2825317,18.0424194,21.7325439c0,0.0073242,0,0.0073242,0,0.0073242l9.7950439,121.8673706
			l1.1627197,14.4514771C1024.4304199,958.3619995,1024.8880615,960.6784058,1018.4138184,964.1307983z"/>
		<path fill="#E48780" d="M994.8029175,962.3635254l2.8364868,23.0374146c0,0,4.2547607,5.7593384,13.2370605,3.8395996
			c8.9822388-1.9197998,9.7721558-8.1591187,9.7721558-8.1591187v-26.8769531L994.8029175,962.3635254z"/>
		<path fill="#22AAE2" d="M1014.3446655,966.0413818c-10.7178955,4.4778442-24.0807495,0-24.0807495,0l-3.9456177-16.5686035
			c8.1455688,1.4827271,23.0780029,2.5081177,36.9494019-5.5622559l1.1627197,14.4514771
			C1024.4304199,958.3619995,1025.0625,961.5635986,1014.3446655,966.0413818z"/>
		<path fill="#5D5440" d="M1029.7856445,1016.9202881c-1.5767822,4.4778442-17.3302612,8.3138428-27.4160767,9.9146729
			c-10.0856323,1.600708-37.1819458,5.4440918-43.4890747,4.8023682c-2.2090454-0.2213135-2.9501953-2.0213623-2.4052124-4.5810547
			c1.0027466-4.7360229,6.4089966-12.0834961,15.0049438-16.8563843
			c13.2394409-7.3622437,23.3251343-9.1179199,23.3251343-28.4750977c0,0-2.5359497-2.3236694,2.2017212-1.4827271
			c4.7304077,0.8409424,17.3375854-0.442627,21.74823-2.6778564c4.4107056-2.2425537,6.9320679-2.8843994,6.9320679,2.0803223
			c0,4.057312,3.8076172,23.4734497,4.3162842,32.8274536
			C1030.119873,1014.5375366,1030.0690918,1016.1088257,1029.7856445,1016.9202881z"/>
		
			<linearGradient id="SVGID_00000041267689236623984330000013383430195717629570_" gradientUnits="userSpaceOnUse" x1="949.3067627" y1="1001.5704956" x2="1080.5170898" y2="1001.5704956">
			<stop  offset="0" style="stop-color:#222E51;stop-opacity:0"/>
			<stop  offset="1" style="stop-color:#231F20"/>
		</linearGradient>
		<path fill="url(#SVGID_00000041267689236623984330000013383430195717629570_)" d="M1030.0036621,1012.4719849
			c-7.6732788,3.3860474-25.1997681,10.246582-46.8608398,13.086731
			c-14.067688,1.8442383-22.1115112,1.9179688-26.6675415,1.4975586
			c1.0027466-4.7360229,6.4089966-12.0834961,15.0049438-16.8563843
			c13.2394409-7.3622437,23.3251343-9.1179199,23.3251343-28.4750977c0,0-2.5359497-2.3236694,2.2017212-1.4827271
			c4.7304077,0.8409424,17.3375854-0.442627,21.74823-2.6778564c4.4107056-2.2425537,6.9320679-2.8843994,6.9320679,2.0803223
			C1025.6873779,983.7018433,1029.4949951,1003.117981,1030.0036621,1012.4719849z"/>
		
			<linearGradient id="SVGID_00000121983586396181790570000005696804372379515537_" gradientUnits="userSpaceOnUse" x1="894.585022" y1="733.6266479" x2="1054.6168213" y2="733.6266479">
			<stop  offset="0" style="stop-color:#222E51;stop-opacity:0"/>
			<stop  offset="1" style="stop-color:#231F20"/>
		</linearGradient>
		<path fill="url(#SVGID_00000121983586396181790570000005696804372379515537_)" d="M1013.0802002,804.7811279
			c0.5305176,6.1154785,0.8139038,11.9285278,0.3924561,17.2546997c0,0.0073242,0,0.0073242,0,0.0073242
			c-0.9445801,11.9654541-5.4425049,21.46698-18.6454468,26.4021606c-2.7612915-16.583374-3.6405029-33.1520386-3.40802-49.2927856
			c0.4287109-29.817688,4.6577759-58.2189941,7.796936-82.6809692c3.9455566-30.6955566-3.8294067-74.0720215-8.9376831-97.6635742
			c10.0856323,1.4459229,18.7108765,4.3966675,23.397644,8.7122192
			C1030.5776367,643.0855713,1011.19104,783.0264893,1013.0802002,804.7811279z"/>
		
			<linearGradient id="SVGID_00000078728568402944328760000010148497559432957093_" gradientUnits="userSpaceOnUse" x1="920.2514038" y1="881.0111084" x2="1063.1876221" y2="882.0756226">
			<stop  offset="0" style="stop-color:#222E51;stop-opacity:0"/>
			<stop  offset="1" style="stop-color:#231F20"/>
		</linearGradient>
		<path fill="url(#SVGID_00000078728568402944328760000010148497559432957093_)" d="M1018.4138184,964.1307983
			c-2.6958008-21.7103882-8.1528931-57.1124268-18.1223145-91.5185547
			c-2.3252563-8.0335083-4.1200562-16.1038818-5.4642944-24.1669312c-2.7612915-16.583374-3.6405029-33.1520386-3.40802-49.2927856
			c1.5623169,0.2728882,2.9284058,0.6786499,4.0110474,1.1507568c8.7196655,3.7844238,17.8098755,21.2825317,18.0424194,21.7325439
			c0,0.0073242,0,0.0073242,0,0.0073242l9.7950439,121.8673706l1.1627197,14.4514771
			C1024.4304199,958.3619995,1024.8880615,960.6784058,1018.4138184,964.1307983z"/>
	</g>
	<g id="RIGHT_LEG">
		<path fill="#212E51" d="M1079.0960693,821.3816528c0.5306396,6.0238037,0.8139648,11.7496948,0.3924561,16.9960327
			c0,0.0072632,0,0.0072632,0,0.0072632c-0.9445801,11.7860718-5.4425049,21.1451416-18.6453857,26.0063477
			c-1.8166504,0.668457-3.7930908,1.2497559-5.9439697,1.7438965
			c-23.8046875,5.4425659-29.5378418-14.0313721-29.9737549-15.6517334l-0.0290527-0.1090088L991.4856567,660.017395
			c2.274292-19.1396484,38.5117798-25.5340576,64.8086548-21.8209229
			c10.0856934,1.4241943,18.7109375,4.3307495,23.3977051,8.581604
			C1096.5936279,662.1101074,1077.2070312,799.953125,1079.0960693,821.3816528z"/>
		<path fill="#212E51" d="M1084.4296875,978.3424683c-1.1335449,0.5958862-2.4777832,1.2280273-4.0690918,1.881958
			c-10.7178955,4.4107056-24.0808105,0-24.0808105,0l-3.9455566-16.3201904l-27.4088135-113.4207764l-0.0290527-0.1090088
			c0.0073242-32.0737305,21.3485107-36.4916992,32.5388184-34.5370483c1.5622559,0.2688599,2.9283447,0.6685181,4.0109863,1.1335449
			c8.7196045,3.7276611,17.8099365,20.9634399,18.0423584,21.4067383c0,0.0072632,0,0.0072632,0,0.0072632l9.7950439,120.0404053
			l1.1627197,14.2348022C1090.4462891,972.6601562,1090.9039307,974.9418335,1084.4296875,978.3424683z"/>
		<path fill="#E48780" d="M1060.8188477,976.6017456l2.8364258,22.6920166c0,0,4.2547607,5.6730347,13.2370605,3.7820435
			c8.9822998-1.8910522,9.7722168-8.0368042,9.7722168-8.0368042v-26.473999L1060.8188477,976.6017456z"/>
		<path fill="#22AAE2" d="M1080.3605957,980.2244263c-10.7178955,4.4107056-24.0808105,0-24.0808105,0l-3.9455566-16.3201904
			c8.1455078,1.4605103,23.0780029,2.47052,36.9493408-5.4788818l1.1627197,14.2348022
			C1090.4462891,972.6601562,1091.0784912,975.8137817,1080.3605957,980.2244263z"/>
		<path fill="#5D5440" d="M1095.8016357,1030.3405762c-1.5769043,4.4107666-17.3303223,8.189209-27.4161377,9.7659912
			c-10.0855713,1.5769043-37.1818848,5.3625488-43.4891357,4.7304688c-2.2089844-0.2180176-2.9501343-1.9909668-2.4051514-4.5124512
			c1.0027466-4.664917,6.4089355-11.9023438,15.0050049-16.6036377
			c13.2393799-7.2518311,23.3250732-8.9812622,23.3250732-28.0481567c0,0-2.5360107-2.2888794,2.2017822-1.4605713
			c4.7303467,0.8283691,17.3375244-0.4359741,21.7481689-2.6376953c4.4106445-2.2089844,6.9321289-2.8411255,6.9321289,2.0491333
			c0,3.99646,3.8074951,23.121582,4.3161621,32.3353271
			C1096.1358643,1027.9935303,1096.0849609,1029.5412598,1095.8016357,1030.3405762z"/>
		
			<linearGradient id="SVGID_00000160904787838517374810000009975593138296808627_" gradientUnits="userSpaceOnUse" x1="997.75354" y1="1033.5717773" x2="1146.1904297" y2="991.6306152">
			<stop  offset="0" style="stop-color:#222E51;stop-opacity:0"/>
			<stop  offset="1" style="stop-color:#231F20"/>
		</linearGradient>
		<path fill="url(#SVGID_00000160904787838517374810000009975593138296808627_)" d="M1096.0195312,1025.9589844
			c-7.6732178,3.3353271-25.199707,10.0930176-46.8608398,12.8905029
			c-14.067627,1.8166504-22.1114502,1.8892822-26.6674805,1.4750977c1.0027466-4.664917,6.4089355-11.9023438,15.0050049-16.6036377
			c13.2393799-7.2518311,23.3250732-8.9812622,23.3250732-28.0481567c0,0-2.5360107-2.2888794,2.2017822-1.4605713
			c4.7303467,0.8283691,17.3375244-0.4359741,21.7481689-2.6376953c4.4106445-2.2089844,6.9321289-2.8411255,6.9321289,2.0491333
			C1091.7033691,997.6201172,1095.5108643,1016.7452393,1096.0195312,1025.9589844z"/>
		
			<linearGradient id="SVGID_00000037691791219620554590000008031953475210285462_" gradientUnits="userSpaceOnUse" x1="967.3735962" y1="749.3193359" x2="1132.5932617" y2="752.8966675">
			<stop  offset="0" style="stop-color:#222E51;stop-opacity:0"/>
			<stop  offset="1" style="stop-color:#231F20"/>
		</linearGradient>
		<path fill="url(#SVGID_00000037691791219620554590000008031953475210285462_)" d="M1079.0960693,821.3816528
			c0.5306396,6.0238037,0.8139648,11.7496948,0.3924561,16.9960327c0,0.0072632,0,0.0072632,0,0.0072632
			c-0.9445801,11.7860718-5.4425049,21.1451416-18.6453857,26.0063477
			c-2.7613525-16.3347778-3.6405029-32.6550903-3.407959-48.553894c0.4285889-29.3706665,4.6577148-57.3461914,7.796875-81.4414673
			c3.9455566-30.2353516-3.8294678-72.9616089-8.9377441-96.1994629c10.0856934,1.4241943,18.7109375,4.3307495,23.3977051,8.581604
			C1096.5936279,662.1101074,1077.2070312,799.953125,1079.0960693,821.3816528z"/>
		
			<linearGradient id="SVGID_00000054239204719492537180000000422674468479950011_" gradientUnits="userSpaceOnUse" x1="989.8548584" y1="897.0899658" x2="1139.6577148" y2="897.0899658">
			<stop  offset="0" style="stop-color:#222E51;stop-opacity:0"/>
			<stop  offset="1" style="stop-color:#231F20"/>
		</linearGradient>
		<path fill="url(#SVGID_00000054239204719492537180000000422674468479950011_)" d="M1084.4296875,978.3424683
			c-2.6958008-21.3848877-8.152832-56.2562256-18.1223145-90.1465454
			c-2.3251953-7.9130859-4.1199951-15.8624878-5.4642334-23.8046265c-2.7613525-16.3347778-3.6405029-32.6550903-3.407959-48.553894
			c1.5622559,0.2688599,2.9283447,0.6685181,4.0109863,1.1335449c8.7196045,3.7276611,17.8099365,20.9634399,18.0423584,21.4067383
			c0,0.0072632,0,0.0072632,0,0.0072632l9.7950439,120.0404053l1.1627197,14.2348022
			C1090.4462891,972.6601562,1090.9039307,974.9418335,1084.4296875,978.3424683z"/>
	</g>
	<g id="LEFT_HAND">
		<path fill="#22AAE2" d="M1017.6588135,453.8229065c-4.8494263,8.3221741-28.807373,80.0072327-42.7341919,93.8797913
			c-8.5802612,8.5496826-16.3626099,7.4454956-21.4389648,3.1577148c-3.1643677-2.668396-5.2744751-6.5596924-5.8782959-10.1200562
			c-1.5596313-9.2722168,18.8741455-41.3304138,36.8053589-70.0960693
			c8.8756104-14.2398376,16.1859131-22.7543945,21.3043213-27.7289734c5.2133789-5.0844727,8.1506958-6.4673157,8.1506958-6.4673157
			c3.3925781-2.2688599,7.2261963-0.9450073,8.1578369,3.7599792
			C1022.9649658,444.9062195,1017.6588135,453.8229065,1017.6588135,453.8229065z"/>
		<path fill="#F6B042" d="M910.4651489,519.1923828l-12.515686-10.7929993c0,0,1.7244873-6.5988464,5.6096191-10.9616699
			c3.8851929-4.362854,8.9108887-6.9606934,8.9108887-6.9606934s14.2963257,9.4230652,14.2524414,10.0518494
			C926.6785278,501.1576843,914.9984741,517.6132812,910.4651489,519.1923828z"/>
		<path fill="#E48780" d="M889.3449707,501.9211121c0,0,10.1812744,5.7657776,12.9414673,4.6947632
			c2.7602539-1.0710449,9.5690308-9.0069885,9.388855-12.297821c-0.1802368-3.2908325-0.7747192-7.0046387-3.7686157-11.6367493
			c-2.9938965-4.6320801-6.5299072-13.5671692-6.8708496-18.4879456
			c-0.3410034-4.9207764,0.1893921-10.2546387-0.4868774-11.8815308s-4.9974976-0.8228149-6.0214233,4.792511
			s-0.8964233,15.1022644-0.8964233,15.1022644s-8.0863037-8.6208801-10.9998169-12.1416016
			c-2.9135742-3.5207214-8.4371948-10.3830261-10.6454468-8.1676941s3.326416,8.9204407,6.1156616,11.9585876
			s8.6712036,9.2935791,7.5268555,9.8455505c-1.1442871,0.5519714-8.9820557-7.1037598-11.4898071-9.6483459
			c-2.5078125-2.5445862-9.4133301-9.9772644-10.758728-8.8074646s-2.7456665,3.1256104,1.3156738,8.3061523
			c4.0614014,5.180542,14.3594971,13.7978821,14.7542725,14.9312134s-3.0526733,0.7346802-6.9423218-2.3803101
			c-3.8896484-3.1149597-11.2705688-8.2639771-12.8499146-8.2689514c-1.5792847-0.0049438-3.8095093,2.5247803,0.833252,6.1662598
			c4.6427612,3.641449,15.2297363,10.3833618,15.4563599,11.6629028c0,0-0.7681274,1.9510498-4.3250732,0.8583374
			s-14.2906494-3.4706726-13.0476685-0.9109497s9.9584351,4.4319458,12.8793945,5.5836792s9.6575317,3.5176697,12.2335205,5.4351501
			C886.2633057,498.5466309,889.3449707,501.9211121,889.3449707,501.9211121z"/>
		<path fill="#22AAE2" d="M965.3464966,553.68396c11.9660034-5.0598755,14.4230347-19.5430298,11.0101929-24.3494263
			s-53.9381714-33.5292358-53.9381714-33.5292358s-1.2406616,8.7197266-6.0241699,13.8818665
			c-4.7834473,5.1621399-9.8969727,9.0176086-9.8969727,9.0176086s25.633728,22.0094604,36.527771,28.8781128
			C953.9192505,554.4515381,961.8754883,555.1516724,965.3464966,553.68396z"/>
		
			<linearGradient id="SVGID_00000135680737543363032000000006744191661902300344_" gradientUnits="userSpaceOnUse" x1="957.0983887" y1="477.9326172" x2="1081.5701904" y2="512.4326172" gradientTransform="matrix(0.997571 0.0696471 -0.0696467 0.9975716 29.4878101 -62.1035423)">
			<stop  offset="0" style="stop-color:#222E51;stop-opacity:0"/>
			<stop  offset="1" style="stop-color:#231F20"/>
		</linearGradient>
		<path fill="url(#SVGID_00000135680737543363032000000006744191661902300344_)" d="M1017.6588135,453.8229065
			c-4.8494263,8.3221741-28.807373,80.0072327-42.7341919,93.8797913
			c-8.5802612,8.5496826-16.3626099,7.4454956-21.4389648,3.1577148c6.861084-7.5042725,14.7131958-18.770813,19.8427124-34.546936
			c7.8363037-24.0802612,24.0011597-56.9681702,32.3886719-73.3981628c5.2133789-5.0844727,8.1506958-6.4673157,8.1506958-6.4673157
			c3.3925781-2.2688599,7.2261963-0.9450073,8.1578369,3.7599792
			C1022.9649658,444.9062195,1017.6588135,453.8229065,1017.6588135,453.8229065z"/>
	</g>
	<g id="BODY">
		<path fill="#22AAE2" d="M1095.8016357,652.2932129c0,0-20.8037109,15.6009521-74.9017334,17.9625244
			c-1.3952026,0.0581055-2.7758179,0.1089478-4.1491699,0.1307983c-25.4830933,0.5231323-47.2241211-4.4616089-62.7596436-9.6715698
			c-16.109436-5.406189-25.5411987-11.0521851-25.5411987-11.0521851s40.3428345-90.2918701,44.1213989-102.4776001
			c0.4503784-1.4459839,1.0753784-3.7130737,1.8383789-6.5978394c2.9718628-11.1320801,8.0292969-31.5796509,13.0939331-50.493988
			c4.6795654-17.4828796,9.3590698-33.6651001,12.381897-39.9795532
			c7.1428223-14.9178772,21.0144043-18.0714722,21.0144043-18.0714722
			c19.0159912-8.2981873,65.4481201,4.2072144,72.067749,16.4946594c1.1481934,2.1290588,1.5114746,6.699585,1.3225098,12.8469543
			c-0.1525879,5.115509-0.6903076,11.3209534-1.4822998,18.1368103c-0.0073242,0-0.0073242,0-0.0073242,0.0072937
			c-3.7567139,32.2772217-13.1956787,78.0625916-14.4890137,84.8348694
			C1076.4221191,574.2887573,1095.8016357,652.2932129,1095.8016357,652.2932129z"/>
		
			<linearGradient id="SVGID_00000116939498772814654220000003886514713348833681_" gradientUnits="userSpaceOnUse" x1="985.0917358" y1="556.8766479" x2="1268.3415527" y2="589.1124878">
			<stop  offset="0" style="stop-color:#222E51;stop-opacity:0"/>
			<stop  offset="1" style="stop-color:#231F20"/>
		</linearGradient>
		<path fill="url(#SVGID_00000116939498772814654220000003886514713348833681_)" d="M1095.8016357,652.2932129
			c0,0-20.8037109,15.6009521-74.9017334,17.9625244c-1.3952026,0.0581055-2.7758179,0.1089478-4.1491699,0.1307983
			c-25.4830933,0.5231323-47.2241211-4.4616089-62.7596436-9.6715698
			c37.8505859-5.4788818,83.30896-22.1478882,88.5262451-33.4470825
			c6.7576904-14.6272583-22.3586426-0.9736938-38.9041748-0.0290527
			c-16.5455322,0.9445801,18.4419556-22.6929321,24.6112061-30.7295532
			c6.1691895-8.0365601-11.8442383-10.8704224-43.0460815-41.1276245
			c-4.8901978-4.7449341-8.3707275-9.7369385-10.7686157-14.7943115
			c-12.9196167-27.2052612,5.565979-56.1181946,5.565979-56.1181946s3.0881958,2.4778748,7.5279541,5.6242065
			c7.9712524,5.6386719,20.3023071,13.4136963,26.9873047,12.8106384
			c10.3982544-0.9446716,21.2686157-23.1651917,42.0723267-41.1276855
			c11.756958-10.1510925,26.8347168-5.9584351,37.7269287-0.3923645c-0.1525879,5.115509-0.6903076,11.3209534-1.4822998,18.1368103
			c-0.0073242,0-0.0073242,0-0.0073242,0.0072937c-3.7567139,32.2772217-13.1956787,78.0625916-14.4890137,84.8348694
			C1076.4221191,574.2887573,1095.8016357,652.2932129,1095.8016357,652.2932129z"/>
		
			<linearGradient id="SVGID_00000173157288907213274770000017024795778692822410_" gradientUnits="userSpaceOnUse" x1="1022.3780518" y1="572.0422363" x2="1252.560791" y2="592.7533569">
			<stop  offset="0" style="stop-color:#222E51;stop-opacity:0"/>
			<stop  offset="1" style="stop-color:#231F20"/>
		</linearGradient>
		<path fill="url(#SVGID_00000173157288907213274770000017024795778692822410_)" d="M1095.8016357,652.2932129
			c0,0-20.8037109,15.6009521-74.9017334,17.9625244c-1.3952026,0.0581055-2.7758179,0.1089478-4.1491699,0.1307983
			c17.7808838-12.6580811,51.6929932-38.4827271,54.46875-53.0736084
			c3.7784424-19.8589478-18.4348145-14.1838989-16.0732422-22.6928711
			c2.3615723-8.5089111-8.5089111-8.0366211-24.1097412-15.1286011c-15.6009521-7.09198-6.619751-13.7116089,11.480835-22.22052
			c10.892334-5.1155396,33.7740479-45.9888611,50.2832031-77.7428894
			c-3.7567139,32.2772217-13.1956787,78.0625916-14.4890137,84.8348694
			C1076.4221191,574.2887573,1095.8016357,652.2932129,1095.8016357,652.2932129z"/>
	</g>
	<g id="RIGHT_HAND">
		<path fill="#E48780" d="M968.0907593,482.9341736c0,0-5.920166-12.4131165-6.684082-17.5693054
			c-0.763855-5.1562195-3.4375-19.6699829-4.010437-22.3435974c-0.572937-2.673584-4.583313-1.336792-4.392334,4.7742615
			c0.190979,6.111084,0.954895,12.6040649,0.954895,12.6040649s-12.2221069-4.201355-15.2776489-6.111084
			c-3.055542-1.9096985-15.659668-6.874939-19.2880859-6.3020325s-1.909668,4.010376,3.246521,6.1110535
			c5.15625,2.1006775,15.086731,7.8298035,15.659668,9.166626c0.572876,1.336792-8.593689-0.381958-12.604126-1.7187805
			c-4.010376-1.336792-12.0311279-4.392334-14.8956909-2.864563s-1.909729,3.819397,1.145813,5.1562195
			c3.055542,1.336792,12.222168,4.392334,14.131897,5.538147c1.909668,1.1458435,8.40271,2.100708,8.211731,3.4375
			s-17.9512329-0.763916-21.1977539-0.3819885c-3.246521,0.381958-5.9143066,3.6284485-4.0075073,4.9652405
			c1.9068604,1.336792,18.9032593,2.4826355,21.3858643,3.055542c2.482605,0.572937-1.527771,3.246521-3.055542,2.4826355
			s-11.6491699,0.572876-12.6040649,2.291626c-0.954834,1.7187195,1.909729,4.010376,6.684021,3.6284485
			s13.3053589-0.5729065,16.7741089,0.0000305c3.468811,0.5729065,9.0078125-0.092865,12.0625,2.2916565
			s5.347168,4.7742615,5.347168,4.7742615s4.201355-0.3819275,7.6387939-3.819397
			C966.7539673,488.663269,968.0907593,482.9341736,968.0907593,482.9341736z"/>
		<path fill="#22AAE2" d="M1092.1248779,494.8673401c-5.8858643,13.871521-33.6142578,71.8571472-53.5750732,77.3214417
			c-4.6213379,1.2643433-8.6324463,1.3006592-12.0402832,0.5740356
			c-11.3065186-2.4124146-16.0805664-13.2320557-15.2739258-15.4918823
			c0.5595093-1.5768433,9.5915527-18.8853149,19.90979-38.8895874
			c8.9813232-17.4102478,18.9434814-36.8623352,25.1343994-49.7746277
			c13.3120117-27.7357788,22.1915283-27.7357788,22.1915283-27.7357788
			C1108.0963135,445.4924011,1098.010498,481.0031433,1092.1248779,494.8673401z"/>
		
			<linearGradient id="SVGID_00000126288477562228936910000006751554346430359939_" gradientUnits="userSpaceOnUse" x1="1055.2653809" y1="508.8122253" x2="987.7208862" y2="607.4710693">
			<stop  offset="0" style="stop-color:#222E51;stop-opacity:0"/>
			<stop  offset="1" style="stop-color:#231F20"/>
		</linearGradient>
		<path fill="url(#SVGID_00000126288477562228936910000006751554346430359939_)" d="M1026.5095215,572.7628174
			c-11.3065186-2.4124146-16.0805664-13.2320557-15.2739258-15.4918823
			c0.5595093-1.5768433,9.5915527-18.8853149,19.90979-38.8895874c5.1882324,4.4833374,12.2584229,12.6870117,12.6508789,24.3931885
			C1044.1885986,554.211792,1034.2335205,565.6490479,1026.5095215,572.7628174z"/>
		<path fill="#F6B042" d="M961.2260132,506.2147217l-9.2449341-9.2449036c0,0,1.2606812-7.7741089,4.6224976-10.9257812
			c3.3617554-3.1516724,13.4470825-5.4628906,13.4470825-5.4628906l11.7662354,14.9179077L961.2260132,506.2147217z"/>
		<path fill="#22AAE2" d="M979.1905518,489.8260498c0,0,38.765564,34.3532104,52.6329346,42.8627319
			c13.8673096,8.5095215,19.5531006,20.3383179,15.7583008,28.6801758
			c-3.7946777,8.3419189-17.019043,20.8010864-37.8200684,5.0427246s-50.4266968-59.3561096-50.4266968-59.3561096
			S965.0079956,493.6080322,979.1905518,489.8260498z"/>
	</g>
	<g id="HEAD">
		<path fill="#212E51" d="M1009.7617188,377.1537781c0,0-18.9099731-8.8246765-20.6434326-26.3164673
			c-1.7333984-17.4917908,19.067627-31.5167236,35.2987061-22.8496094
			c16.2310791,8.6670837,21.5889893,27.8922729,21.5889893,27.8922729s2.5213623-6.6184998,5.0427246-7.5639954
			c2.5212402-0.9454956,1.2606201,2.5213318,0,6.145752C1049.7879639,358.0861511,1049,359.1892395,1049,359.1892395
			s4.09729-1.733429,6.776123-1.2606506c2.6789551,0.4727478-2.9940186,4.097168-2.9940186,4.097168
			s11.9763184,5.0426636,7.4063721,22.2192688s-21.2908936,24.2678833-21.2908936,24.2678833
			s-16.371582-10.7156982-19.8383789-18.5948792C1015.5923462,382.0388489,1009.7617188,377.1537781,1009.7617188,377.1537781z"/>
		<path fill="#E48780" d="M1040.0177002,403.8924255l1.4677734,25.0035706c0,0,0,0-3.3570557,1.6785278
			c-0.9083252,0.4577637-2.4705811,0.588562-4.2581787,0.5376892c-4.8101807-0.1380615-11.2918701-1.5913391-11.2918701-1.5913391
			l0.8429565-14.0749512c0,0-0.1817017,0.1380615-0.5449829,0.2834167c-0.0072632,0-0.0145874,0.0072632-0.0218506,0.0072632
			c-1.4750977,0.6103516-5.7694702,1.4459839-12.461853-4.9120789c-8.4071045-7.9857178-2.0999756-36.5570984-2.0999756-36.5570984
			c6.7213745,5.0428467,24.1607056,3.3570557,24.1607056,3.3570557c-5.25354,7.9857483-0.2108154,18.0714722-0.2108154,18.0714722
			c3.1536865-9.8749695,12.185791-10.9286194,13.0286865-2.1000061
			C1046.1141357,402.4173279,1040.0177002,403.8924255,1040.0177002,403.8924255z"/>
		
			<linearGradient id="SVGID_00000004507953130753233160000007110069509330403467_" gradientUnits="userSpaceOnUse" x1="1025.2476807" y1="429.1780701" x2="1049.6665039" y2="384.1985779">
			<stop  offset="0" style="stop-color:#222E51;stop-opacity:0"/>
			<stop  offset="1" style="stop-color:#231F20"/>
		</linearGradient>
		<path fill="url(#SVGID_00000004507953130753233160000007110069509330403467_)" d="M1033.8702393,419.5441589v11.5680542
			c-4.8101807-0.1380615-11.2918701-1.5913391-11.2918701-1.5913391l0.8429565-14.0749512
			c0,0-0.1817017,0.1380615-0.5449829,0.2834167c0.9446411-0.5595398,1.9110107-1.1844482,2.8120117-1.860199
			C1029.4595947,411.0352478,1033.8702393,412.6120605,1033.8702393,419.5441589z"/>
		
			<linearGradient id="SVGID_00000146474091451198009220000000814580799968489094_" gradientUnits="userSpaceOnUse" x1="1031.7531738" y1="395.7156677" x2="1073.9006348" y2="395.7156677">
			<stop  offset="0" style="stop-color:#222E51;stop-opacity:0"/>
			<stop  offset="1" style="stop-color:#231F20"/>
		</linearGradient>
		<path fill="url(#SVGID_00000146474091451198009220000000814580799968489094_)" d="M1035.3690186,398.1123962
			c0,0,0.394043-4.6487122,2.9941406-6.6185303c2.6000977-1.9697876,4.7275391,0.0787964,4.0184326,2.9153137
			c0,0-1.5759277-2.048584-2.9941406-0.5515442c0,0,2.4425049,0.5515442,0.7879639,4.2547607
			C1038.520752,401.8156128,1034.6246338,401.3497925,1035.3690186,398.1123962z"/>
		<path fill="#F6B042" d="M1019.6369629,425.1117249c0,0,13.0269775,1.8909912,18.6999512,0
			c5.6729736-1.8910217,7.4589844-2.4162903,7.4589844-2.4162903s2.6263428-0.105072,2.8364258,1.6283569
			c0.2102051,1.733429,0.7354736,8.0367737,0.7354736,8.0367737s-8.2994385,4.412323-16.3887939,4.9376221
			c-8.0892334,0.5252686-15.0228882-1.4707947-15.0228882-1.4707947S1016.8004761,426.4774475,1019.6369629,425.1117249z"/>
	</g>
</g>
<g id="Layer_x5F_Plants">
	<g>
		<g>
			<path fill="#49BCCB" d="M1105.4178467,1036.4622803c0,0-4.7550049-8.0450439-3.3696289-27.6208496
				c1.3009033-18.3842163,2.4083252-28.8648682,13.3747559-33.9762573
				c12.1276855-5.65271,22.2703857-0.8302002,25.5290527,8.2060547S1129.3071289,1026.8093262,1105.4178467,1036.4622803z"/>
			
				<linearGradient id="SVGID_00000117642976312477999630000006829485377272753068_" gradientUnits="userSpaceOnUse" x1="-685.2954712" y1="1180.9465332" x2="-669.7772827" y2="1298.1356201" gradientTransform="matrix(-0.9926419 0.1210971 0.121097 0.9926404 298.401947 -95.0916443)">
				<stop  offset="0" style="stop-color:#222E51;stop-opacity:0"/>
				<stop  offset="1" style="stop-color:#231F20"/>
			</linearGradient>
			<path fill="url(#SVGID_00000117642976312477999630000006829485377272753068_)" d="M1105.4178467,1036.4622803
				c0,0-4.7550049-8.0450439-3.3696289-27.6208496c0,0,8.7697754-17.1178589,14.0493164-15.190918
				c2.2375488,0.8166504-1.3068848,24.1933594,1.9573975,22.671936
				c12.1276855-5.6526489,19.6384277-42.2874756,22.8970947-33.2512207S1129.3071289,1026.8093262,1105.4178467,1036.4622803z"/>
		</g>
		<g>
			<path fill="#49BCCB" d="M1107.6397705,1036.9998779c-5.1433105-0.1811523,18.3115234-20.0235596,30.942627-26.9553223
				c12.6312256-6.9317627,22.9178467-6.569458,25.8200684-0.4546509
				c2.9023438,6.1148682-4.0671387,17.4771118-17.7154541,20.4899292
				C1133.0385742,1033.0926514,1112.7830811,1037.1810303,1107.6397705,1036.9998779z"/>
			
				<linearGradient id="SVGID_00000118375324893843488370000006381017050189538472_" gradientUnits="userSpaceOnUse" x1="-703.4491577" y1="1209.3822021" x2="-639.088623" y2="1243.8474121" gradientTransform="matrix(-0.9926419 0.1210971 0.121097 0.9926404 298.401947 -95.0916443)">
				<stop  offset="0" style="stop-color:#222E51;stop-opacity:0"/>
				<stop  offset="1" style="stop-color:#231F20"/>
			</linearGradient>
			<path fill="url(#SVGID_00000118375324893843488370000006381017050189538472_)" d="M1107.6397705,1036.9998779
				c-5.1433105-0.1811523,18.3115234-20.0235596,30.942627-26.9553223
				c12.6312256-6.9317627-17.1264648,12.0623779-14.2241211,18.1772461
				c2.9022217,6.1147461,35.9770508-1.1547852,22.3287354,1.8580322
				C1133.0385742,1033.0926514,1112.7830811,1037.1810303,1107.6397705,1036.9998779z"/>
		</g>
		<g>
			<path fill="#49BCCB" d="M1101.2397461,1035.3548584c0,0-17.8728027-16.1481934-23.7485352-26.7519531
				s-7.0230713-26.6360474-2.572998-27.7180176c4.4501953-1.0820312,15.1843262-2.821106,20.8201904,18.2143555
				C1102.171875,1023.1118774,1101.2397461,1035.3548584,1101.2397461,1035.3548584z"/>
			
				<linearGradient id="SVGID_00000108305462665973782310000007728201267007152042_" gradientUnits="userSpaceOnUse" x1="-647.3121338" y1="1176.9937744" x2="-664.1679688" y2="1264.2163086" gradientTransform="matrix(-0.9926419 0.1210971 0.121097 0.9926404 298.401947 -95.0916443)">
				<stop  offset="0" style="stop-color:#222E51;stop-opacity:0"/>
				<stop  offset="1" style="stop-color:#231F20"/>
			</linearGradient>
			<path fill="url(#SVGID_00000108305462665973782310000007728201267007152042_)" d="M1101.2397461,1035.3548584
				c0,0-17.8728027-16.1481934-23.7485352-26.7519531s7.0219727,4.5341187,11.472168,3.4520874
				c4.4500732-1.0819702,6.7750244-12.9557495,6.7750244-12.9557495
				C1102.171875,1023.1118774,1101.2397461,1035.3548584,1101.2397461,1035.3548584z"/>
		</g>
		<g>
			<path fill="#49BCCB" d="M1100.7409668,1035.6851807c-1.6907959-0.6022949-35.1097412-11.6193848-33.8210449-20.9408569
				c0.9525146-6.8908691,13.1171875-2.947998,21.2275391,3.8791504
				C1096.2579346,1025.4505615,1102.4316406,1036.2875977,1100.7409668,1035.6851807z"/>
			
				<linearGradient id="SVGID_00000178909880431561725130000008129816255002499211_" gradientUnits="userSpaceOnUse" x1="-638.7937012" y1="1198.8323975" x2="-672.5054321" y2="1250.2026367" gradientTransform="matrix(-0.9926419 0.1210971 0.121097 0.9926404 298.401947 -95.0916443)">
				<stop  offset="0" style="stop-color:#222E51;stop-opacity:0"/>
				<stop  offset="1" style="stop-color:#231F20"/>
			</linearGradient>
			<path fill="url(#SVGID_00000178909880431561725130000008129816255002499211_)" d="M1100.7409668,1035.6851807
				c-1.6907959-0.6022949-35.1097412-11.6193848-33.8210449-20.9408569
				c0.4661865-3.3729858,6.6464844,8.0838623,18.2609863,8.2841187c4.3217773,0.0745239-1.1739502-7.8903198,2.9665527-4.4049683
				C1096.2579346,1025.4505615,1102.4316406,1036.2875977,1100.7409668,1035.6851807z"/>
		</g>
		<path fill="#49BCCB" d="M1071.5688477,934.1644897c3.9348145,0.2519531,6.59729,7.979126-0.8674316,8.8898315
			C1064.690918,943.7875977,1067.6341553,933.9124756,1071.5688477,934.1644897z"/>
		<path fill="#49BCCB" d="M1102.8426514,912.1709595c0.5187988,1.6696777,2.1912842,6.7694702,6.517334,4.3511963
			c4.3261719-2.4182739-0.9512939-9.5202026-3.2817383-9.682251
			C1103.7479248,906.6778564,1101.7836914,908.7625732,1102.8426514,912.1709595z"/>
		<path fill="#49BCCB" d="M1095.1254883,958.2525635c2.9379883,2.081604,0.4227295,9.4644775-3.3685303,6.3889771
			C1087.4594727,961.1553345,1092.1876221,956.1710205,1095.1254883,958.2525635z"/>
	</g>
</g>
<g id="Layer_x5F_Star">
	<g>
		<g>
			<polygon fill="#EFE5E9" points="851.0183105,377.6635742 872.3598633,359.3511353 878.6574097,372.6666565 
				854.5169067,383.8414917 			"/>
			<polygon fill="#EFE5E9" points="821.9797363,362.1500244 856.9659424,305.4723206 839.4728394,291.4778442 
				814.2827148,359.3511353 			"/>
			<polygon fill="#EFE5E9" points="867.8116455,415.6789551 919.0142212,409.2205505 919.0142212,426.8745422 
				867.8116455,424.0756531 			"/>
			<polygon fill="#EFE5E9" points="696.8516235,377.6635742 675.5100708,359.3511353 669.2125244,372.6666565 
				693.3530273,383.8414917 			"/>
			<polygon fill="#EFE5E9" points="725.8901978,362.1500244 690.9039917,305.4723206 708.3970947,291.4778442 
				733.5872192,359.3511353 			"/>
			<polygon fill="#EFE5E9" points="680.0582886,415.6789551 628.8557129,409.2205505 628.8557129,426.8745422 
				680.0582886,424.0756531 			"/>
			<polygon fill="#EFE5E9" points="675.9057007,473.0853882 654.5682373,491.4026794 648.2677002,478.088562 
				672.4056396,466.9082642 			"/>
			<polygon fill="#EFE5E9" points="710.3668823,491.7202759 675.3934937,548.4059448 692.8898315,562.3964233 
				718.0645142,494.5174255 			"/>
			<polygon fill="#EFE5E9" points="859.3933716,473.0910339 880.7391357,491.3986206 887.0336304,478.0816345 
				862.890625,466.912323 			"/>
			<polygon fill="#EFE5E9" points="834.2150879,489.7355347 869.2141724,546.4052734 851.7242432,560.4037476 
				826.5187378,492.5361938 			"/>
		</g>
		<g>
			<polygon fill="#F6B042" points="801.8624268,455.7233887 819.1273193,508.8478699 773.9377441,476.0111389 
				728.944397,508.7025146 728.74823,508.8478699 728.944397,508.244751 738.2526245,479.5861816 746.0058594,455.7233887 
				700.8162842,422.8866882 756.6728516,422.8866882 773.9377441,369.7695312 791.1953735,422.8866882 847.052002,422.8866882 			
				"/>
			
				<linearGradient id="SVGID_00000017510838857194049520000016107926225361459387_" gradientUnits="userSpaceOnUse" x1="761.2884521" y1="436.4387207" x2="840.7730103" y2="523.7977905">
				<stop  offset="0" style="stop-color:#FFFFFF;stop-opacity:0"/>
				<stop  offset="1" style="stop-color:#FFFFFF"/>
			</linearGradient>
			<polygon fill="url(#SVGID_00000017510838857194049520000016107926225361459387_)" points="801.8624268,455.7233887 
				819.1273193,508.8478699 773.9377441,476.0111389 728.944397,508.7025146 728.944397,508.244751 738.2526245,479.5861816 
				806.6364136,422.8866882 847.052002,422.8866882 			"/>
			<path id="sparkle_2_3_" fill="#F6B042" d="M835.6243286,325.351532c0,0,1.5410156,13.5338745,5.9629517,20.099823
				c4.4219971,6.5659485,11.5239258,6.6999512,11.5239258,6.6999512s-16.9474487,2.3484192-16.9474487,34.776123
				c0,0,0.5995483-32.0210266-18.0262451-32.0210266C818.1375122,354.9064026,833.6143799,349.8733215,835.6243286,325.351532z"/>
			<path id="sparkle_2_1_" fill="#F6B042" d="M753.9885254,504.3028564c0,0,1.0332642,9.0744629,3.9981689,13.4768677
				c2.9649048,4.4024658,7.7267456,4.4923096,7.7267456,4.4923096s-11.3632202,1.574646-11.3632202,23.3173218
				c0,0,0.4020386-21.4700317-12.0865479-21.4700317C742.2636719,524.1193237,752.6408691,520.7446899,753.9885254,504.3028564z"/>
			<path id="sparkle_2_2_" fill="#F6B042" d="M706.2557373,363.1159058c0,0,1.0332642,9.0744629,3.9981689,13.4768982
				c2.9649048,4.4024658,7.7267456,4.4923096,7.7267456,4.4923096s-11.3632202,1.5746155-11.3632202,23.3173218
				c0,0,0.4020386-21.4700317-12.0865479-21.4700317C694.5308838,382.9324036,704.9080811,379.5577087,706.2557373,363.1159058z"/>
		</g>
	</g>
</g>
</svg>
